<?xml version="1.0" encoding="utf-8"?>
<!-- Generator: Adobe Illustrator 19.0.0, SVG Export Plug-In . SVG Version: 6.00 Build 0)  -->
<svg version="1.1" id="Layer_1" xmlns="http://www.w3.org/2000/svg" xmlns:xlink="http://www.w3.org/1999/xlink" x="0px" y="0px"
	 viewBox="0 0 798 565" style="enable-background:new 0 0 798 565;" xml:space="preserve">
<style type="text/css">
	.st0{fill:none;stroke:#716F82;stroke-width:7;stroke-miterlimit:10;}
	.st1{fill:#072050;}
	.st2{fill:#747282;}
	.st3{fill:#2D2D3A;}
	.st4{fill:#FFFFFF;}
	.st5{fill:#A29FB0;}
	.st6{fill:#6E89C4;}
	.st7{fill:#EA5444;}
	.st8{fill:#FFC543;}
	.st9{fill:#A2CC3B;}
	.st10{fill:#313D6E;}
	.st11{fill:#678C6E;}
	.st12{opacity:0.55;fill:#C5CBED;}
	.st13{fill:#7C4B39;}
	.st14{fill:#FCBBA4;}
	.st15{fill:#FFC7B0;}
	.st16{fill:#081344;}
	.st17{opacity:0.2;fill:#081344;}
	.st18{fill:#716F82;}
	.st19{fill:#B1AEC1;}
	.st20{fill:#585668;}
	.st21{fill:#DDDDDD;}
	.st22{fill:#767684;}
	.st23{fill:#1F3468;}
	.st24{fill:#ABA9C4;}
	.st25{fill:#4A4960;}
	.st26{fill:#E79271;}
	.st27{fill:#A5483C;}
	.st28{fill:#84352F;}
	.st29{fill:#7F3954;}
	.st30{fill:#6E3856;}
	.st31{fill:#DF7D54;}
	.st32{fill:none;stroke:#081344;stroke-width:1.4933;stroke-linecap:round;stroke-miterlimit:10;}
	.st33{fill:#1C1C2D;}
	.st34{fill:#A0523A;}
	.st35{fill:#25253A;}
	.st36{fill:#9F293B;}
	.st37{fill:#F14747;}
	.st38{opacity:0.32;fill:#25253A;}
	.st39{fill:#ECEEF0;}
	.st40{opacity:0.55;fill:#CDD6F9;}
	.st41{fill:#FC4F42;}
	.st42{opacity:0.79;fill:#CE2D29;}
	.st43{fill:#6075B0;}
	.st44{fill:#794061;}
	.st45{fill:#072859;}
	.st46{fill:#F3885E;}
	.st47{fill:#FFBE62;}
	.st48{fill:#FBAF3D;}
	.st49{fill:#FFD72E;}
	.st50{fill:#F38154;}
	.st51{fill:#709B2C;}
	.st52{fill:#4C842F;}
	.st53{fill:none;stroke:#081344;stroke-width:4.5943;stroke-miterlimit:10;}
	.st54{fill:#517F38;}
	.st55{fill:#3B6837;}
	.st56{fill:#65B15B;}
	.st57{fill:#62324A;}
	.st58{fill:#2191ED;}
	.st59{fill:#683A2D;}
	.st60{fill:#227BC4;}
	.st61{fill:none;stroke:#A8AAAF;stroke-width:4.5943;stroke-miterlimit:10;}
	.st62{fill:#A09D9C;}
	.st63{fill:#D6D3CE;}
</style>
<line class="st0" x1="-1024.3" y1="541.3" x2="-244.4" y2="541.3"/>
<g>
	<rect x="-911.4" y="138.2" class="st1" width="66.1" height="142.2"/>
	<g>
		<path class="st2" d="M-984.9,230.6h212V93.7c0-4.8-3.9-8.7-8.7-8.7h-194.7c-4.8,0-8.7,3.9-8.7,8.7V230.6z"/>
		<path class="st2" d="M-964.5,251.8h175.4c10.1,0,18.3-8.2,18.3-18.3v-7h-212v7C-982.9,243.6-974.7,251.8-964.5,251.8z"/>
		<path class="st3" d="M-765.4,93.7v136.9l-52-0.8l-54.5-0.9l-17.2-0.3l-55-0.9l-33.3-0.5V93.7c0-4.8,3.9-8.7,8.7-8.7h194.7
			C-769.3,85-765.4,88.9-765.4,93.7z"/>
		<path class="st4" d="M-969.6,97.5v120.8c0,0.4,0.4,0.8,0.8,0.8h194.6c0.4,0,0.8-0.4,0.8-0.8V97.5c0-0.4-0.4-0.8-0.8-0.8h-194.6
			C-969.2,96.7-969.6,97.1-969.6,97.5z"/>
		<path class="st5" d="M-959.1,251.8h175.4c10.1,0,18.3-8.2,18.3-18.3v-7h-212v7C-977.4,243.6-969.2,251.8-959.1,251.8z"/>
	</g>
	<path class="st5" d="M-913.1,281h88.6c2.7,0,4.9-2.2,4.9-4.9l0,0c0-2.7-2.2-4.9-4.9-4.9h-88.6c-2.7,0-4.9,2.2-4.9,4.9l0,0
		C-918,278.8-915.8,281-913.1,281z"/>
	<g>
		<path class="st6" d="M-782.7,118H-957c-1.5,0-2.6-1.2-2.6-2.6v-10.2c0-1.5,1.2-2.6,2.6-2.6h174.3c1.5,0,2.6,1.2,2.6,2.6v10.2
			C-780,116.8-781.2,118-782.7,118z"/>
		<g>
			<g>
				<ellipse class="st7" cx="-949.3" cy="110" rx="3.3" ry="3.4"/>
			</g>
		</g>
		<g>
			<g>
				<ellipse class="st8" cx="-937.3" cy="110" rx="3.3" ry="3.4"/>
			</g>
		</g>
		<g>
			<g>
				<ellipse class="st9" cx="-925.3" cy="110" rx="3.3" ry="3.4"/>
			</g>
		</g>
		<path class="st10" d="M-900.2,145h-58.2c-0.9,0-1.6-0.7-1.6-1.6v-17.8c0-0.9,0.7-1.6,1.6-1.6h58.2c0.9,0,1.6,0.7,1.6,1.6v17.8
			C-898.6,144.3-899.3,145-900.2,145z"/>
		<path class="st11" d="M-828.7,171.5H-887c-0.9,0-1.6-0.7-1.6-1.6v-17.8c0-0.9,0.7-1.6,1.6-1.6h58.2c0.9,0,1.6,0.7,1.6,1.6v17.8
			C-827.1,170.8-827.8,171.5-828.7,171.5z"/>
		<path class="st11" d="M-781.6,145h-35.2c-0.9,0-1.6-0.7-1.6-1.6v-17.8c0-0.9,0.7-1.6,1.6-1.6h35.2c0.9,0,1.6,0.7,1.6,1.6v17.8
			C-780,144.3-780.7,145-781.6,145z"/>
		<path class="st7" d="M-781.6,171.9h-35.2c-0.9,0-1.6-0.7-1.6-1.6v-17.8c0-0.9,0.7-1.6,1.6-1.6h35.2c0.9,0,1.6,0.7,1.6,1.6v17.8
			C-780,171.2-780.7,171.9-781.6,171.9z"/>
		<g>
			<rect x="-888.1" y="140.9" class="st1" width="61.4" height="1.5"/>
			<rect x="-888.1" y="135.5" class="st1" width="61.4" height="1.5"/>
			<rect x="-888.1" y="130.2" class="st1" width="61.4" height="1.5"/>
			<rect x="-888.1" y="124.8" class="st1" width="61.4" height="1.5"/>
		</g>
		<path class="st7" d="M-900.2,197.5h-58.2c-0.9,0-1.6-0.7-1.6-1.6v-17.8c0-0.9,0.7-1.6,1.6-1.6h58.2c0.9,0,1.6,0.7,1.6,1.6v17.8
			C-898.6,196.8-899.3,197.5-900.2,197.5z"/>
		<g>
			<rect x="-888.1" y="193.3" class="st1" width="61.4" height="1.5"/>
			<rect x="-888.1" y="188" class="st1" width="61.4" height="1.5"/>
			<rect x="-888.1" y="182.6" class="st1" width="61.4" height="1.5"/>
			<rect x="-888.1" y="177.3" class="st1" width="61.4" height="1.5"/>
		</g>
		<g>
			<rect x="-960.3" y="166.5" class="st1" width="61.4" height="1.5"/>
			<rect x="-960.3" y="161.1" class="st1" width="61.4" height="1.5"/>
			<rect x="-960.3" y="155.8" class="st1" width="61.4" height="1.5"/>
			<rect x="-960.3" y="150.5" class="st1" width="61.4" height="1.5"/>
		</g>
	</g>
	<polygon class="st12" points="-806.2,85 -871.9,226.7 -944.2,226.7 -879,85 	"/>
</g>
<g>
	<path class="st13" d="M-758.6,14.4l13.6,8.4c9.8,6.1,13.3,18.7,8.1,29c-1,2-1.7,3.4-1.6,3.2c0.5-0.6-20.8-40.4-20.8-40.4"/>
	<path class="st14" d="M-794,144.3h-7c-6.4,0-11.7-5.3-11.7-11.7v-33c0-6.4,5.3-11.7,11.7-11.7h7c6.4,0,11.7,5.3,11.7,11.7v33
		C-782.3,139-787.5,144.3-794,144.3z"/>
	<path class="st13" d="M-738.8,55.1c0.3,2.7-12.1,7.2-12.3,10l2,5.6c-15.3-5.5-1.8,2.9-1.8,2.9c-4.5,13.5-3,20.9-15.9,26.1
		c-6.5,2.6-13.6,3.7-21,3.2c-9.9-0.7-18.7,2.4-25.9-1c-1.5-0.7-2.9-1.7-4.2-3c-2.5-2.5-4.8-5.3-6.7-8.3c-0.7-1.2-1.4-2.4-2.1-3.6
		c-3.9-7.6-11.9-29.7-11.3-38.8c1.8-25.7,26.4-42.9,54.8-41c0.7,0.1,1.4,0.1,2.2,0.1c15.3,1.1,28.4,9.2,36.4,21
		c0.4,0.6,0.8,1.3,1.2,1.9c0,0,0,0,0,0c2.3,3.7,3.5,19.8,3.5,19.8C-739.3,51.6-739,53.3-738.8,55.1z"/>
	<path class="st15" d="M-739.9,63.3l-0.4,7.1l-0.6,11.7l-1,4.1c-0.1,1.8-1,11.5-1.4,13.3c-3.2,16.6-14.1,20.1-31,22.2
		c-0.5,0.1-1,0.1-1.5,0.1c-1.8,0.2-3.6,0.2-5.5,0.1c-1.8-0.1-3.6-0.3-5.3-0.6c-3.4-0.6-6.6-1.7-9.6-3.1c0,0,0,0,0,0
		c-7.5-3.5-13.6-9.3-17.6-16.3c-3-5.3-4.8-11.4-5-17.8c0-0.4,0-0.9,0-1.3c0-0.5,0-1,0-1.6v-0.3l0-1.3l0.2-3.3l0.6-11.5l0-0.1v0
		l0.1-2.1l0.1-1.7l0.1-1.5l0-0.4c0.2-2.7,0.7-5.2,1.5-7.7c0.5-1.7,1.2-3.4,1.9-5c0.1-0.3,0.2-0.5,0.3-0.7c0.6-1.3,1.3-2.6,2-3.9
		c0,0,0,0,0,0c2.8-4.8,6.7-8.9,11.2-12c0.9-0.6,1.8-1.3,2.8-1.8c6.6-3.9,14.3-5.9,22.5-5.5c6.8,0.4,11.8,2.4,17.3,5.7
		c3.3,2,6.3,4.4,8.9,7.3c3.7,4,6,8.7,7.8,13.8c0.1,0.3,0.2,0.6,0.3,0.9c0.5,1.7,0.9,3.4,1.1,5.2C-739.8,57.7-739.8,60.5-739.9,63.3z
		"/>
	<path class="st13" d="M-754.2,28.3c8.3,22.8-13.5,20.9-14.5,31.4c-0.1,1.2-0.5,2.9-0.8,11.5l-1.7,5.4c-0.5,1.7-2,2.8-3.8,2.8
		c-2.2,0-3.9-1.8-3.9-3.9v-0.1l0.2-8.5l-4.2,11.3c-3.1,8.1-7.7,15.5-13.6,21.7c-4.9,5.1-10.6,9.5-16.9,12.8c0,0-26.6-15.8-26.6-51.9
		c0-2.9,0.2-5.9,0.5-9c0.3-2.8,0.8-5.4,1.4-7.9c11-44.8,66.1-29.5,71.4-27.5C-761.1,18.4-754.2,28.3-754.2,28.3z"/>
	<path class="st15" d="M-735.2,87.5c0,0.1,0,0.6,0,0.6c-0.1,2.5-2.2,4.4-7.5,4.3l0.7-19.3C-737.7,79.6-735.6,83.4-735.2,87.5z"/>
	<path class="st13" d="M-738.1,64.2h-11.8c-1.4,0-2.5-1.1-2.5-2.5l0,0c0-1.4,1.1-2.5,2.5-2.5h11.8c1.4,0,2.5,1.1,2.5,2.5v0
		C-735.6,63-736.7,64.2-738.1,64.2z"/>
	<path class="st16" d="M-744.7,73L-744.7,73c-1,0-1.8-0.8-1.8-1.8v-2.6c0-1,0.8-1.8,1.8-1.8l0,0c1,0,1.8,0.8,1.8,1.8v2.6
		C-742.9,72.2-743.7,73-744.7,73z"/>
	<path class="st17" d="M-796.5,99.8c-4.9,5.1-10.6,9.5-16.9,12.8c0,0-26.6-15.8-26.6-51.9c0-2.9,0.2-5.9,0.5-9
		c0.3-2.8,0.8-5.4,1.4-7.9c1.2,6.9,4.3,17.3,12.2,30.1C-813.9,93.5-800.8,98.6-796.5,99.8z"/>
	<path class="st13" d="M-742.8,98.3l-0.4,13.5c0,11.5-13.6,16.1-23.7,15L-783,125l1.6-13.9l4.4-26.7l-7.1-19.9l14.6,6.1l0,0
		c-1.1,15.8,10.2,28.6,26.1,27.9L-742.8,98.3z"/>
	<path class="st14" d="M-779.9,64c1.6,0,2.9,1.3,2.9,3l-0.1,10l-0.1,8.8l-3.4,0c-0.3,0-0.5,0-0.7,0c-5.8-0.4-10.3-5.5-10.3-11.2
		c0-3,1.3-5.5,3.3-7.5c1.8-1.8,4.2-2.8,6.9-2.9l0,0c0.3,0,0.6-0.1,0.9,0L-779.9,64z"/>
	<g>
		<rect x="-883.2" y="357.2" class="st16" width="92.6" height="17.1"/>
		<line class="st10" x1="-914.8" y1="516.5" x2="-914.8" y2="523"/>
		<rect x="-529.2" y="358.7" class="st18" width="84.8" height="17.1"/>
		<rect x="-458" y="300.6" class="st18" width="19.3" height="240.5"/>
		<rect x="-535.5" y="299.1" class="st19" width="19.3" height="241.9"/>
		<rect x="-535.5" y="289.4" class="st18" width="19.3" height="103.2"/>
		<rect x="-991.8" y="358.7" class="st18" width="84.8" height="17.1"/>
		<rect x="-920.7" y="300.6" class="st18" width="19.3" height="240.5"/>
		<rect x="-998.1" y="299.1" class="st18" width="19.3" height="241.9"/>
		<g>
			<rect x="-641.2" y="139.1" class="st20" width="63.7" height="137"/>
			<g>
				<g>
					<path class="st21" d="M-509.8,231h-209.3V103.2c0-4.6,3.7-8.4,8.4-8.4h192.6c4.6,0,8.4,3.7,8.4,8.4V231z"/>
					<path class="st21" d="M-529.5,251.5h-174c-9.7,0-17.6-7.9-17.6-17.6v-6.8h209.3v6.8C-511.8,243.6-519.7,251.5-529.5,251.5z"/>
					<path class="st22" d="M-517,103.2v127.8h-209.3V103.2c0-4.6,3.7-8.3,8.4-8.3h192.6C-520.8,94.9-517,98.6-517,103.2z"/>
					<path class="st23" d="M-524.6,102.9v116.3c0,0.4-0.4,0.8-0.8,0.8h-192.5c-0.4,0-0.8-0.4-0.8-0.8V102.9c0-0.4,0.4-0.8,0.8-0.8
						h192.5C-525,102.2-524.6,102.5-524.6,102.9z"/>
					<path class="st24" d="M-517,227.1v6.8c0,7.1-4.2,13.2-10.2,16c-2.3,1.1-4.8,1.6-7.5,1.6h-174c-9.7,0-17.6-7.9-17.6-17.6v-6.8
						H-517z"/>
				</g>
				<g>
					<g>
						<rect x="-707.5" y="116.5" class="st6" width="65" height="2.3"/>
						<rect x="-614.2" y="116.5" class="st21" width="30.8" height="2.3"/>
						<rect x="-569.8" y="116.5" class="st8" width="30.8" height="2.3"/>
						<rect x="-580.7" y="116.5" class="st6" width="7.3" height="2.3"/>
						<rect x="-639.4" y="116.5" class="st7" width="21.6" height="2.3"/>
					</g>
					<g>
						<rect x="-707.5" y="174.2" class="st6" width="65" height="2.3"/>
						<rect x="-614.2" y="174.2" class="st21" width="30.8" height="2.3"/>
						<rect x="-569.8" y="174.2" class="st8" width="30.8" height="2.3"/>
						<rect x="-580.7" y="174.2" class="st6" width="7.3" height="2.3"/>
						<rect x="-639.4" y="174.2" class="st5" width="21.6" height="2.3"/>
					</g>
					<g>
						<rect x="-604" y="155" class="st6" width="65" height="2.3"/>
						<rect x="-663" y="155" class="st21" width="30.8" height="2.3"/>
						<rect x="-707.5" y="155" class="st8" width="30.8" height="2.3"/>
						<rect x="-673" y="155" class="st6" width="7.3" height="2.3"/>
						<rect x="-628.7" y="155" class="st5" width="21.6" height="2.3"/>
					</g>
					<g>
						<rect x="-707.5" y="126.1" class="st7" width="24.4" height="2.3"/>
						<rect x="-634.6" y="126.1" class="st6" width="10.5" height="2.3"/>
						<rect x="-590.1" y="126.1" class="st21" width="51.1" height="2.3"/>
						<rect x="-621.4" y="126.1" class="st6" width="27.6" height="2.3"/>
						<rect x="-680" y="126.1" class="st6" width="41.9" height="2.3"/>
					</g>
					<g>
						<rect x="-707.5" y="183.8" class="st6" width="24.4" height="2.3"/>
						<rect x="-634.6" y="183.8" class="st6" width="10.5" height="2.3"/>
						<rect x="-590.1" y="183.8" class="st6" width="51.1" height="2.3"/>
						<rect x="-621.4" y="183.8" class="st6" width="27.6" height="2.3"/>
						<rect x="-680" y="183.8" class="st6" width="41.9" height="2.3"/>
					</g>
					<g>
						<rect x="-707.5" y="164.6" class="st7" width="24.4" height="2.3"/>
						<rect x="-634.6" y="164.6" class="st6" width="10.5" height="2.3"/>
						<rect x="-590.1" y="164.6" class="st21" width="51.1" height="2.3"/>
						<rect x="-621.4" y="164.6" class="st6" width="27.6" height="2.3"/>
						<rect x="-680" y="164.6" class="st6" width="41.9" height="2.3"/>
					</g>
					<g>
						<rect x="-707.5" y="135.7" class="st21" width="24.4" height="2.3"/>
						<rect x="-680" y="135.7" class="st6" width="41.9" height="2.3"/>
					</g>
					<g>
						<rect x="-662.5" y="145.3" class="st21" width="24.4" height="2.3"/>
						<rect x="-707.5" y="145.3" class="st6" width="41.9" height="2.3"/>
					</g>
				</g>
			</g>
			<path class="st25" d="M-579,279.6h-85.3c-2.6,0-4.7-2.1-4.7-4.7v0c0-2.6,2.1-4.7,4.7-4.7h85.3c2.6,0,4.7,2.1,4.7,4.7v0
				C-574.2,277.5-576.4,279.6-579,279.6z"/>
		</g>
		<path class="st26" d="M-422.2,300.4h-269.1v-13.9c0-4.2,3.4-7.6,7.6-7.6h253.9c4.2,0,7.6,3.4,7.6,7.6V300.4z"/>
		<g>
			<path class="st27" d="M-500.7,286.5v13.9h-518.1v-13.9c0-4.2,3.4-7.6,7.6-7.6h502.9C-504.1,278.9-500.7,282.3-500.7,286.5z"/>
			<path class="st28" d="M-650.6,278.9c-4.1,6.7-9,14.7-13.2,21.5h-126.8l1.7-21.5H-650.6z"/>
		</g>
		<g>
			<rect x="-395.3" y="374.2" class="st29" width="133.1" height="166.8"/>
			<rect x="-442.5" y="374.2" class="st30" width="130.8" height="166.8"/>
			<g>
				<rect x="-444" y="386.7" class="st31" width="124.1" height="45.1"/>
				<rect x="-444" y="439.7" class="st31" width="124.1" height="45.1"/>
				<rect x="-444" y="492.6" class="st31" width="124.1" height="48.4"/>
			</g>
			<g>
				<path class="st4" d="M-404.5,411.7h31c1.3,0,2.4-1.1,2.4-2.4l0,0c0-1.3-1.1-2.4-2.4-2.4h-31c-1.3,0-2.4,1.1-2.4,2.4l0,0
					C-406.9,410.6-405.8,411.7-404.5,411.7z"/>
				<path class="st4" d="M-405.7,464.3h31c1.3,0,2.4-1.1,2.4-2.4l0,0c0-1.3-1.1-2.4-2.4-2.4h-31c-1.3,0-2.4,1.1-2.4,2.4l0,0
					C-408.1,463.2-407,464.3-405.7,464.3z"/>
				<path class="st4" d="M-405.7,516.9h31c1.3,0,2.4-1.1,2.4-2.4v0c0-1.3-1.1-2.4-2.4-2.4h-31c-1.3,0-2.4,1.1-2.4,2.4l0,0
					C-408.1,515.8-407,516.9-405.7,516.9z"/>
			</g>
		</g>
		<g>
			<g>
				<path class="st29" d="M-746.1,551.3l62.2,0.7c3.7,0,6.7-2.9,6.8-6.6l0,0c0-2.9-1.7-5.4-4.4-6.4l-30.7-11.1l-33.6,0.5
					L-746.1,551.3z"/>
				<path class="st16" d="M-682.6,553.7l-63-0.2l0-4.5l67.5,0.2l0,0C-678.1,551.7-680.1,553.7-682.6,553.7z"/>
			</g>
			<g>
				<line class="st32" x1="-713" y1="536.9" x2="-705.6" y2="529.1"/>
				<line class="st32" x1="-707.6" y1="539.2" x2="-700.3" y2="531.4"/>
				<line class="st32" x1="-702.5" y1="542.2" x2="-694.2" y2="533.4"/>
			</g>
			<g>
				<path class="st33" d="M-748.2,530.8c3.6-60.7,2.6-116.8-2.1-128.1c-4.8-7.1-42.6-22.3-80.4-24l17.7-38.6
					c49.5,2.5,84.9,21.1,97.3,42.3c5.2,9,9.8,27,7.3,88.9c-1.3,32.4-2.9,57.8-2.9,57.8L-748.2,530.8z"/>
			</g>
			<g>
				<path class="st34" d="M-690.7,552.8l62.2,0.4c3.7,0,6.7-3,6.8-6.7l0,0c0-2.9-1.8-5.4-4.5-6.4l-30.7-10.9l-33.6,0.6L-690.7,552.8
					z"/>
				<path class="st16" d="M-627.2,555l-64,0l0-4.5l68.5,0l0,0C-622.7,552.9-624.8,555-627.2,555z"/>
			</g>
			<g>
				<line class="st32" x1="-657.6" y1="538.3" x2="-650.3" y2="530.5"/>
				<line class="st32" x1="-652.3" y1="540.6" x2="-645" y2="532.8"/>
				<line class="st32" x1="-647.2" y1="543.6" x2="-638.9" y2="534.8"/>
			</g>
			<g>
				<path class="st33" d="M-692.9,530.8c3.6-60.7,2.6-116.8-2.1-128.1c-4.8-7.1-42.6-22.3-80.4-24l17.7-38.6
					c49.5,2.5,84.9,21.1,97.3,42.3c5.2,9,9.8,27,7.3,88.9c-1.3,32.4-2.9,57.8-2.9,57.8L-692.9,530.8z"/>
			</g>
			<path class="st33" d="M-746.1,351.2c0,6.8-2.4,13-6.4,17.9c-5.1,6.2-12.9,10.2-21.7,10.2h-47.2c-1.4,0-2.8-0.1-4.1-0.3
				c-3.5-0.5-6.7-1.6-9.6-3.3c-0.5-0.3-1-0.6-1.5-0.9c-7.7-5-12.8-13.7-12.8-23.5l0.9-15l101.7-0.9L-746.1,351.2z"/>
			<g>
				<g>
					<g>
						<path class="st14" d="M-713.7,271.2l24.3-3.9c1.8-0.3,3-2,2.7-3.7l0,0c-0.3-1.8-2-3-3.7-2.7l-24.3,3.9c-1.8,0.3-3,2-2.7,3.7
							l0,0C-717.2,270.3-715.5,271.5-713.7,271.2z"/>
						<path class="st14" d="M-706,277.8l19.5-3.1c1.8-0.3,3-2,2.7-3.7l0,0c-0.3-1.8-2-3-3.7-2.7l-19.5,3.1c-1.8,0.3-3,2-2.7,3.7l0,0
							C-709.4,276.9-707.7,278.1-706,277.8z"/>
						<path class="st14" d="M-710.5,286.4l23.1-3.7c1.8-0.3,3-2,2.7-3.7l0,0c-0.3-1.8-2-3-3.7-2.7l-23.1,3.7c-1.8,0.3-3,2-2.7,3.7
							l0,0C-713.9,285.4-712.3,286.6-710.5,286.4z"/>
					</g>
					<path class="st14" d="M-703.2,265c-0.3,0-3.2,0-6.5-0.1c-5.6-0.1-11.1,1.1-16.1,3.6l-9.6,4.7c0,0,5.5,16.3,6.3,16.4
						c18.5,3.3,24.8-5.1,24.8-5.1L-703.2,265z"/>
				</g>
				<rect x="-725.7" y="264.9" class="st4" width="8.2" height="26.7"/>
			</g>
			<g>
				<path class="st33" d="M-779.6,294.5c-19.4,0-37.1-11.3-45.2-28.9l-0.4-0.9l-25.3-77.4l31.2-10.2l24.7,75.4
					c2.9,5.6,8.8,9.2,15.2,9.1l53.8-0.5l0.3,32.9l-53.8,0.5C-779.2,294.5-779.4,294.5-779.6,294.5z"/>
			</g>
			<g>
				<g>
					<path class="st14" d="M-603.9,262.6c-2-3.6-5-6.5-8.7-8.3c0,0-0.1,0-0.1,0c-5-2.5-10.5-3.7-16.1-3.6l-10.7,0.2
						c0,0-2.7,23.2-2.6,22.4c0.3-1.5,26.1-1.1,38-0.9c2.6,0.1,4.2-2.7,3-4.9L-603.9,262.6z"/>
				</g>
				<rect x="-646" y="249.1" class="st4" width="10.2" height="27.3"/>
			</g>
			<g>
				<path class="st35" d="M-695.9,279.5c-19.4,0-37.1-11.3-45.2-28.9l-36.5-79l29.8-13.8l36.5,79c2.8,6,8.8,9.9,15.5,9.8l53.8-0.5
					l0.3,32.9l-53.8,0.5C-695.6,279.5-695.8,279.5-695.9,279.5z"/>
			</g>
			<path class="st35" d="M-737.4,187.1l-0.6,69l-0.8,87.8c0,0-1.9,2.1-7.5,5.1c-4.9,2.6-12.6,5.8-24.3,8.8
				c-13.7,3.5-32.9,4.1-49.4,3.7c-18.1-0.4-32.9-2-32.9-2l0.4-172.4c0-24.3,17.6-44.4,40.7-48.5c2.8-0.5,5.6-0.7,8.6-0.7h16.6
				C-759.5,137.9-737.4,159.9-737.4,187.1z"/>
			<g>
				<g>
					<rect x="-814.2" y="413.4" class="st19" width="16.6" height="95.4"/>
					<path class="st18" d="M-814.2,418.8v20.9l16.6-6.1v-14.1C-801.8,419.3-809.8,419-814.2,418.8z"/>
				</g>
				<path class="st3" d="M-754.8,421.6h-99.5c-5.1,0-9.3-4.2-9.3-9.3l0,0c0-5.1,4.2-9.3,9.3-9.3h99.5c5.1,0,9.3,4.2,9.3,9.3l0,0
					C-745.5,417.5-749.7,421.6-754.8,421.6z"/>
				<g>
					<g>
						<path class="st3" d="M-735.5,539.6h-10.4c0-11.7-10.1-21.2-22.5-21.2h-75.7c-12.4,0-22.5,9.5-22.5,21.2H-877
							c0-17.1,14.8-31,32.9-31h75.7C-750.3,508.5-735.5,522.5-735.5,539.6z"/>
					</g>
					<rect x="-818.1" y="493.8" class="st3" width="24.3" height="14.9"/>
				</g>
				<g>
					<ellipse class="st16" cx="-872.2" cy="549" rx="8.6" ry="8.1"/>
					<path class="st1" d="M-859.8,548.3h-23.6v-2.2c0-6.1,4.9-11,11-11h1.6c6.1,0,11,4.9,11,11V548.3z"/>
					<ellipse class="st16" cx="-740.2" cy="549" rx="8.6" ry="8.1"/>
					<path class="st1" d="M-727.7,548.3h-23.6v-2.2c0-6.1,4.9-11,11-11h1.6c6.1,0,11,4.9,11,11V548.3z"/>
				</g>
				<rect x="-812.4" y="511.6" class="st3" width="13.8" height="29.4"/>
				<g>
					<ellipse class="st16" cx="-805.2" cy="549" rx="8.6" ry="8.1"/>
					<path class="st1" d="M-792.8,548.3h-23.6v-2.2c0-6.1,4.9-11,11-11h1.6c6.1,0,11,4.9,11,11V548.3z"/>
				</g>
			</g>
			<path class="st36" d="M-938.2,234l22.2,160.6c1.4,9.8,9.6,17.1,19.4,17.4l81.2,0.9l-45.1-202l-57.6,0
				C-930.4,210.9-939.9,221.8-938.2,234z"/>
			<path class="st37" d="M-719.5,412.9h-112.9c-9.6,0-17.5-7.9-17.5-17.5v0c0-9.6,7.9-17.5,17.5-17.5h112.9
				c9.6,0,17.5,7.9,17.5,17.5v0C-702,405.1-709.8,412.9-719.5,412.9z"/>
			<path class="st33" d="M-825.9,181.9c-2.2,31.7,4,145.9,5.9,179.6c-18.1-0.4-32.9-2-32.9-2l0.4-172.4c0-24.3,17.6-44.4,40.7-48.5
				C-811.8,138.6-823.3,144.6-825.9,181.9z"/>
			<polygon class="st4" points="-769.3,140.9 -820.1,140.9 -820.1,126.7 -769.3,132.7 			"/>
			<path class="st37" d="M-851.3,390.8l-23.6-164.7c-1.1-7.3,4.5-14.2,12.2-15.1l0,0c7.8-1,15,4.2,16.1,11.5l23.6,164.7
				c1.1,7.3-4.5,14.2-12.2,15.1l0,0C-843,403.4-847,408.9-851.3,390.8z"/>
			<path class="st33" d="M-738,256.1l-0.8,87.8c0,0-1.9,2.1-7.5,5.1L-758,216.6C-758,216.6-747.3,243.4-738,256.1z"/>
		</g>
	</g>
	<path class="st38" d="M-517.3,194.7l-5.8,32.5l-4.1,22.7c-2.3,1.1-4.8,1.6-7.5,1.6h-55c5.2-5.4,14-14.5,23.4-24.4
		c14.7-15.4,31-32.9,38.3-41.8L-517.3,194.7z"/>
</g>
<g>
	<path class="st21" d="M-547.6,278.6h108.9c0.6-0.9,1.1-1.9,1.4-2.9l24.4-87.9c1.2-4.2-2-8.3-6.3-8.3h-95.8c-3,0-5.5,2-6.3,4.8
		L-547.6,278.6z"/>
	<path class="st5" d="M-418.2,184.7l-24.3,87.8c-1.1,4.1-4.9,6.9-9.1,6.9h-102.1l27.2-98.3c0.8-2.8,3.4-4.8,6.3-4.8h95.7
		C-420.1,176.3-417,180.5-418.2,184.7z"/>
	<path class="st23" d="M-423.5,188.5l-19.9,71.6l-4.2,15h-101.3l4.2-15l20.8-74.9c0.7-2.6,3.1-4.4,5.9-4.4h88.7
		C-425.4,180.8-422.5,184.7-423.5,188.5z"/>
	<g>
		<g>
			<polygon class="st39" points="-483.2,190.6 -514.4,190.6 -513.7,188.4 -482.5,188.4 			"/>
			<polygon class="st7" points="-454.9,190.6 -469.7,190.6 -469,188.4 -454.3,188.4 			"/>
			<polygon class="st5" points="-433.6,190.6 -448.4,190.6 -447.7,188.4 -432.9,188.4 			"/>
			<polygon class="st6" points="-450.1,190.6 -453.6,190.6 -452.9,188.4 -449.4,188.4 			"/>
			<polygon class="st5" points="-471.4,190.6 -481.8,190.6 -481.1,188.4 -470.7,188.4 			"/>
		</g>
		<g>
			<polygon class="st21" points="-505,228 -490.2,228 -489.5,225.8 -504.3,225.8 			"/>
			<polygon class="st8" points="-526.3,228 -511.5,228 -510.8,225.8 -525.6,225.8 			"/>
			<polygon class="st6" points="-509.8,228 -506.3,228 -505.6,225.8 -509.1,225.8 			"/>
		</g>
		<g>
			<polygon class="st7" points="-505.7,199.9 -517.4,199.9 -516.7,197.7 -505,197.7 			"/>
			<polygon class="st6" points="-477.4,199.9 -482.4,199.9 -481.7,197.7 -476.7,197.7 			"/>
			<polygon class="st7" points="-436.6,199.9 -461.1,199.9 -460.4,197.7 -435.9,197.7 			"/>
			<polygon class="st6" points="-462.8,199.9 -476.1,199.9 -475.4,197.7 -462.2,197.7 			"/>
			<polygon class="st6" points="-484.1,199.9 -504.2,199.9 -503.5,197.7 -483.4,197.7 			"/>
		</g>
		<g>
			<polygon class="st10" points="-523.5,256.1 -535.2,256.1 -534.5,253.9 -522.8,253.9 			"/>
		</g>
		<g>
			<polygon class="st21" points="-508.7,209.3 -520.4,209.3 -519.7,207.1 -508,207.1 			"/>
			<polygon class="st21" points="-489.6,209.3 -501.3,209.3 -500.6,207.1 -488.9,207.1 			"/>
			<polygon class="st6" points="-442.8,209.3 -462.9,209.3 -462.2,207.1 -442.1,207.1 			"/>
		</g>
		<g>
			<polygon class="st6" points="-523.3,218.6 -503.2,218.6 -502.5,216.4 -522.6,216.4 			"/>
		</g>
	</g>
	<polygon class="st5" points="-442.1,260.2 -446.4,275.2 -550.3,275.2 -546,260.2 	"/>
	<g>
		<path class="st5" d="M-498.1,279.7h-124.4c-2.9,0-5.3-2.4-5.3-5.3l0,0c0-2.9,2.4-5.3,5.3-5.3h124.4c2.9,0,5.3,2.4,5.3,5.3l0,0
			C-492.8,277.3-495.1,279.7-498.1,279.7z"/>
	</g>
	<polygon class="st40" points="-449.1,176.3 -451.2,180.8 -487.4,260.1 -491.1,268.3 -530.3,268.3 -526.5,260.1 -490.3,180.8 
		-488.3,176.3 	"/>
	<polygon class="st40" points="-564.2,102.2 -618,220 -675.6,220 -621.8,102.2 	"/>
	<g>
		<g>
			<path class="st21" d="M-450.9,279.3h-72c-2.9,0-5.3-2.4-5.3-5.3l0,0c0-2.9,2.4-5.3,5.3-5.3h72c2.9,0,5.3,2.4,5.3,5.3l0,0
				C-445.6,277-448,279.3-450.9,279.3z"/>
		</g>
		<g>
			<rect x="-487" y="272.3" class="st16" width="10.3" height="3.1"/>
			<rect x="-497.6" y="272.3" class="st16" width="7.5" height="3.1"/>
		</g>
	</g>
</g>
<g>
	<g>
		<path class="st41" d="M-552.2,236.5v43.1h-36v-43.1c0-1.9,1.5-3.4,3.4-3.4h29.1C-553.8,233.1-552.2,234.6-552.2,236.5z"/>
		<g>
			<path class="st7" d="M-587.8,272.2c-0.5-0.3-11.5-6.7-12.5-18.1c-0.4-4.3,1.3-7,2.7-8.5c4-4.1,10.5-3.8,11.3-3.8l-0.3,5.3
				c-1.3-0.1-5.3,0.2-7.2,2.2c-1,1-1.4,2.5-1.2,4.4c0.8,8.6,9.8,13.9,9.9,14L-587.8,272.2z"/>
		</g>
	</g>
	<path class="st7" d="M-569,279.6h-19.2v-43.1c0-1.9,1.5-3.4,3.4-3.4h1.2c0.1,2.2,0.7,19.4,5.5,31.8
		C-573.9,275.6-570.2,278.8-569,279.6z"/>
	<path class="st42" d="M-600.3,254.1c0.9,10.2,9.9,16.5,12.1,17.8v7.7h19.2c-1.1-0.8-4.9-3.9-9.1-14.7c-4.8-12.4-5.4-29.6-5.5-31.8
		h-1.2c-1.9,0-3.4,1.5-3.4,3.4v5.4c-2.4,0.2-6.5,0.9-9.4,3.8C-599,247.1-600.6,249.8-600.3,254.1z M-593.8,249.3
		c1.4-1.4,3.8-2,5.6-2.2v18.2c-2.7-2.3-6.3-6.4-6.8-11.7C-595.2,251.8-594.8,250.3-593.8,249.3z"/>
</g>
<g>
	<g>
		
			<rect x="-968" y="198.8" transform="matrix(0.9847 0.1743 -0.1743 0.9847 24.8349 171.8058)" class="st43" width="4.1" height="57.1"/>
		
			<rect x="-965.3" y="197.7" transform="matrix(0.9847 0.1743 -0.1743 0.9847 21.2204 170.8233)" class="st43" width="6.4" height="17.2"/>
	</g>
	<g>
		<polygon class="st44" points="-975.7,263 -979.8,262.7 -975,205.7 -972.5,202.1 -970.9,206.1 		"/>
	</g>
	<g>
		<polygon class="st45" points="-981.4,265.9 -985.5,266.7 -996.4,210.6 -995,206.4 -992.3,209.8 		"/>
	</g>
	<g>
		<polygon class="st46" points="-972.3,279 -990,279 -995.8,232.1 -966.5,232.1 		"/>
		<polygon class="st47" points="-965.6,279 -983.3,279 -985.9,232.1 -959.8,232.1 		"/>
	</g>
</g>
<g>
	<g>
		<path class="st37" d="M-419.3,349.6v25.8h90c5.6,0,10.4-3.6,12.1-8.6c0.5-1.3,0.7-2.8,0.7-4.3c0-3.5-1.4-6.8-3.8-9.1
			c-2.3-2.3-5.6-3.8-9.1-3.8H-419.3z"/>
		<path class="st42" d="M-399.2,366.8v8.6h69.9c5.6,0,10.4-3.6,12.1-8.6H-399.2z"/>
		<path class="st36" d="M-438.6,349.5l0,25.8l59,0c7.1,0,12.9-5.8,12.9-12.9c0-3.6-1.4-6.8-3.8-9.1c-2.3-2.3-5.6-3.8-9.1-3.8
			L-438.6,349.5z"/>
		<path class="st4" d="M-438.6,354l0,16.5l55.6,0c4.6,0,8.3-3.7,8.3-8.3c0-2.3-0.9-4.3-2.4-5.8c-1.5-1.5-3.6-2.4-5.9-2.4L-438.6,354
			z"/>
	</g>
	<g>
		<path class="st48" d="M-421,298.3v25.8l90,0c7.1,0,12.9-5.8,12.9-12.9c0-3.6-1.4-6.8-3.8-9.1c-2.3-2.3-5.6-3.8-9.1-3.8L-421,298.3
			z"/>
		<path class="st49" d="M-400.6,306.9v-8.6h69.9c5.6,0,10.4,3.6,12.1,8.6H-400.6z"/>
		<path class="st50" d="M-438.6,298.3v25.8l59,0c7.1,0,12.9-5.8,12.9-12.9c0-3.6-1.4-6.8-3.8-9.1c-2.3-2.3-5.6-3.8-9.1-3.8
			L-438.6,298.3z"/>
		<path class="st4" d="M-438.6,302.7v16.5l55.6,0c4.6,0,8.3-3.7,8.3-8.3c0-2.3-0.9-4.3-2.4-5.8c-1.5-1.5-3.6-2.4-5.9-2.4
			L-438.6,302.7z"/>
	</g>
	<g>
		<path class="st9" d="M-425.7,324.2V350h90c7.1,0,12.9-5.8,12.9-12.9c0-2.2-0.5-4.3-1.5-6.1c-0.6-1.1-1.4-2.2-2.3-3.1
			c-2.3-2.3-5.6-3.8-9.1-3.8H-425.7z"/>
		<path class="st51" d="M-423.3,324.2v6.8h99c-0.6-1.1-1.4-2.2-2.3-3.1c-2.3-2.3-5.6-3.8-9.1-3.8H-423.3z"/>
		<path class="st51" d="M-423.3,350v-6.8l99,0c-0.6,1.1-1.4,2.2-2.3,3.1c-2.3,2.3-5.6,3.8-9.1,3.8L-423.3,350z"/>
		<path class="st52" d="M-449.3,324.2V350l54,0c7.1,0,12.9-5.8,12.9-12.9c0-3.6-1.4-6.8-3.8-9.1c-2.3-2.3-5.6-3.8-9.1-3.8
			L-449.3,324.2z"/>
		<path class="st4" d="M-449.3,328.7v16.5l50.6,0c4.6,0,8.3-3.7,8.3-8.3c0-2.3-0.9-4.3-2.4-5.8c-1.5-1.5-3.6-2.4-5.8-2.4
			L-449.3,328.7z"/>
	</g>
</g>
<g>
	<g>
		<g>
			<path class="st16" d="M-411.8,172.8L-411.8,172.8c-4.3-4.6-3.9-11.7,0.8-15.8l0.5-0.5c4.8-4.2,12.1-3.8,16.4,0.8v0
				c4.3,4.6,3.9,11.7-0.8,15.8l-0.5,0.5C-400.1,177.8-407.5,177.4-411.8,172.8z"/>
			<path class="st31" d="M-402.7,195.1L-414,205l-32.2-34.3l11.3-9.9c7.9-6.8,19.1-7.7,27.9-3c2.2,1.2,4.2,2.7,6,4.7
				c4.4,4.7,6.5,10.8,6.2,16.7C-395.1,185.1-397.7,190.8-402.7,195.1z"/>
			<path class="st8" d="M-412.9,184.2l-11.3,9.9l-21.9-23.4l11.3-9.9c7.9-6.8,19.1-7.7,27.9-3c1.5,3.3,2.2,6.9,2,10.4
				C-405.3,174.1-408,179.9-412.9,184.2z"/>
		</g>
		<path class="st5" d="M-413.4,204.9c-3.4,3.1-13.5-2-22.6-11.4c-9-9.4-13.6-19.4-10.2-22.5c2.7-2.4,9.6,0.3,16.8,6.1
			c1.9,1.6,3.9,3.3,5.7,5.3c2.2,2.3,4.1,4.6,5.8,6.9C-412.8,196.2-410.8,202.5-413.4,204.9z"/>
		<path class="st4" d="M-417.8,189.2c-2.6,2.9-7.1,3.7-10.7,1.7c-4.1-2.2-5.6-7.3-3.2-11.3c0.6-1.1,1.5-1.9,2.4-2.6
			c1.9,1.6,3.9,3.3,5.7,5.3C-421.4,184.6-419.5,187-417.8,189.2z"/>
	</g>
	<polyline class="st53" points="-354.6,283.8 -325.2,189 -384.7,149.4 -397.2,160 	"/>
	<g>
		<ellipse class="st16" cx="-385.5" cy="149.9" rx="7.3" ry="7"/>
		<ellipse class="st10" cx="-385.5" cy="149.9" rx="3.7" ry="3.5"/>
	</g>
	<path class="st10" d="M-325,298.6h-75.7l0,0c0-8.3,6.7-15,15-15h45.6C-331.7,283.6-325,290.3-325,298.6L-325,298.6z"/>
	<rect x="-385.1" y="279.8" class="st16" width="13.7" height="4.1"/>
	<g>
		<ellipse class="st16" cx="-325.8" cy="189.9" rx="10.2" ry="9.9"/>
		<ellipse class="st10" cx="-325.8" cy="189.9" rx="5.1" ry="4.9"/>
	</g>
</g>
<g>
	<g>
		<path class="st54" d="M-260.1,304.2c-11.1,15.1-33.4,17.6-33.4,17.6s-4.3-22,6.8-37.1c11.1-15.1,33.4-17.6,33.4-17.6
			S-249,289.1-260.1,304.2z"/>
		<path class="st55" d="M-306.7,295.2c10.2,10,9.6,27.1,9.6,27.1s-17,0.8-27.2-9.2c-10.2-10-9.6-27.1-9.6-27.1
			S-316.9,285.1-306.7,295.2z"/>
		<path class="st56" d="M-281.5,287.6c2.1,18.6-12.6,35.6-12.6,35.6s-18-13.3-20.1-31.9c-2.1-18.6,12.6-35.6,12.6-35.6
			S-283.6,269-281.5,287.6z"/>
	</g>
	<g>
		<polygon class="st57" points="-282.9,374.6 -321.5,374.6 -334.1,318.3 -270.2,318.3 		"/>
		<polygon class="st34" points="-268.3,374.6 -306.9,374.6 -312.6,318.3 -255.6,318.3 		"/>
	</g>
</g>
<g id="XMLID_28_">
	<g id="XMLID_1456_">
		<path id="XMLID_43_" class="st58" d="M997.6,201l-92.9-29.8v-100l92.8-34.7l90.2,35.7v99.9L997.6,201z M911.7,166.1l85.9,27.5
			l83.1-26.5V77l-83.3-33l-85.7,32V166.1z"/>
	</g>
	<g id="XMLID_1455_">
		
			<rect id="XMLID_27_" x="923" y="115.3" transform="matrix(1.060534e-003 1 -1 1.060534e-003 1119.2759 -882.8148)" class="st58" width="157" height="7"/>
	</g>
	<g id="XMLID_1454_">
		<rect id="XMLID_26_" x="1028.7" y="103.7" class="st58" width="7" height="32"/>
	</g>
	<g id="XMLID_1453_">
		<rect id="XMLID_25_" x="958.7" y="97.7" class="st58" width="43" height="7"/>
	</g>
	<g id="XMLID_1452_">
		<rect id="XMLID_24_" x="911.7" y="141.7" class="st58" width="41" height="7"/>
	</g>
</g>
<g>
	<line class="st0" x1="789.5" y1="541.3" x2="9.6" y2="541.3"/>
	<g>
		<rect x="610.5" y="138.2" class="st1" width="66.1" height="142.2"/>
		<g>
			<path class="st2" d="M750,230.6H538V93.7c0-4.8,3.9-8.7,8.7-8.7h194.7c4.8,0,8.7,3.9,8.7,8.7V230.6z"/>
			<path class="st2" d="M729.7,251.8H554.4c-10.1,0-18.3-8.2-18.3-18.3v-7h212v7C748,243.6,739.8,251.8,729.7,251.8z"/>
			<path class="st3" d="M530.6,93.7v136.9l52-0.8l54.5-0.9l17.2-0.3l55-0.9l33.3-0.5V93.7c0-4.8-3.9-8.7-8.7-8.7H539.3
				C534.5,85,530.6,88.9,530.6,93.7z"/>
			<path class="st4" d="M734.7,97.5v120.8c0,0.4-0.4,0.8-0.8,0.8H539.3c-0.4,0-0.8-0.4-0.8-0.8V97.5c0-0.4,0.4-0.8,0.8-0.8h194.6
				C734.4,96.7,734.7,97.1,734.7,97.5z"/>
			<path class="st5" d="M724.3,251.8H548.9c-10.1,0-18.3-8.2-18.3-18.3v-7h212v7C742.6,243.6,734.4,251.8,724.3,251.8z"/>
		</g>
		<path class="st5" d="M678.3,281h-88.6c-2.7,0-4.9-2.2-4.9-4.9l0,0c0-2.7,2.2-4.9,4.9-4.9h88.6c2.7,0,4.9,2.2,4.9,4.9l0,0
			C683.2,278.8,681,281,678.3,281z"/>
		<g>
			<path class="st6" d="M547.8,118h174.3c1.5,0,2.6-1.2,2.6-2.6v-10.2c0-1.5-1.2-2.6-2.6-2.6H547.8c-1.5,0-2.6,1.2-2.6,2.6v10.2
				C545.2,116.8,546.4,118,547.8,118z"/>
			<g>
				<g>
					<ellipse class="st7" cx="714.4" cy="110" rx="3.3" ry="3.4"/>
				</g>
			</g>
			<g>
				<g>
					<ellipse class="st8" cx="702.4" cy="110" rx="3.3" ry="3.4"/>
				</g>
			</g>
			<g>
				<g>
					<ellipse class="st9" cx="690.5" cy="110" rx="3.3" ry="3.4"/>
				</g>
			</g>
			<path class="st10" d="M665.4,145h58.2c0.9,0,1.6-0.7,1.6-1.6v-17.8c0-0.9-0.7-1.6-1.6-1.6h-58.2c-0.9,0-1.6,0.7-1.6,1.6v17.8
				C663.8,144.3,664.5,145,665.4,145z"/>
			<path class="st11" d="M593.9,171.5h58.2c0.9,0,1.6-0.7,1.6-1.6v-17.8c0-0.9-0.7-1.6-1.6-1.6h-58.2c-0.9,0-1.6,0.7-1.6,1.6v17.8
				C592.3,170.8,593,171.5,593.9,171.5z"/>
			<path class="st11" d="M546.8,145H582c0.9,0,1.6-0.7,1.6-1.6v-17.8c0-0.9-0.7-1.6-1.6-1.6h-35.2c-0.9,0-1.6,0.7-1.6,1.6v17.8
				C545.2,144.3,545.9,145,546.8,145z"/>
			<path class="st7" d="M546.8,171.9H582c0.9,0,1.6-0.7,1.6-1.6v-17.8c0-0.9-0.7-1.6-1.6-1.6h-35.2c-0.9,0-1.6,0.7-1.6,1.6v17.8
				C545.2,171.2,545.9,171.9,546.8,171.9z"/>
			<g>
				<rect x="591.8" y="140.9" class="st1" width="61.4" height="1.5"/>
				<rect x="591.8" y="135.5" class="st1" width="61.4" height="1.5"/>
				<rect x="591.8" y="130.2" class="st1" width="61.4" height="1.5"/>
				<rect x="591.8" y="124.8" class="st1" width="61.4" height="1.5"/>
			</g>
			<path class="st7" d="M665.4,197.5h58.2c0.9,0,1.6-0.7,1.6-1.6v-17.8c0-0.9-0.7-1.6-1.6-1.6h-58.2c-0.9,0-1.6,0.7-1.6,1.6v17.8
				C663.8,196.8,664.5,197.5,665.4,197.5z"/>
			<g>
				<rect x="591.8" y="193.3" class="st1" width="61.4" height="1.5"/>
				<rect x="591.8" y="188" class="st1" width="61.4" height="1.5"/>
				<rect x="591.8" y="182.6" class="st1" width="61.4" height="1.5"/>
				<rect x="591.8" y="177.3" class="st1" width="61.4" height="1.5"/>
			</g>
			<g>
				<rect x="664" y="166.5" class="st1" width="61.4" height="1.5"/>
				<rect x="664" y="161.1" class="st1" width="61.4" height="1.5"/>
				<rect x="664" y="155.8" class="st1" width="61.4" height="1.5"/>
				<rect x="664" y="150.5" class="st1" width="61.4" height="1.5"/>
			</g>
		</g>
		<polygon class="st12" points="571.4,85 637.1,226.7 709.3,226.7 644.2,85 		"/>
	</g>
	<path class="st13" d="M523.8,14.4l-13.6,8.4c-9.8,6.1-13.3,18.7-8.1,29c1,2,1.7,3.4,1.6,3.2c-0.5-0.6,20.8-40.4,20.8-40.4"/>
	<path class="st14" d="M559.1,144.3h7c6.4,0,11.7-5.3,11.7-11.7v-33c0-6.4-5.3-11.7-11.7-11.7h-7c-6.4,0-11.7,5.3-11.7,11.7v33
		C547.4,139,552.7,144.3,559.1,144.3z"/>
	<path class="st13" d="M503.9,55.1c-0.3,2.7,12.1,7.2,12.3,10l-2,5.6c15.3-5.5,1.8,2.9,1.8,2.9c4.5,13.5,3,20.9,15.9,26.1
		c6.5,2.6,13.6,3.7,21,3.2c9.9-0.7,18.7,2.4,25.9-1c1.5-0.7,2.9-1.7,4.2-3c2.5-2.5,4.8-5.3,6.7-8.3c0.7-1.2,1.4-2.4,2.1-3.6
		c3.9-7.6,11.9-29.7,11.3-38.8c-1.8-25.7-26.4-42.9-54.8-41c-0.7,0.1-1.4,0.1-2.2,0.1c-15.3,1.1-28.4,9.2-36.4,21
		c-0.4,0.6-0.8,1.3-1.2,1.9c0,0,0,0,0,0c-2.3,3.7-3.5,19.8-3.5,19.8C504.5,51.6,504.1,53.3,503.9,55.1z"/>
	<path class="st15" d="M505.1,63.3l0.4,7.1l0.6,11.7l1,4.1c0.1,1.8,1,11.5,1.4,13.3c3.2,16.6,14.1,20.1,31,22.2
		c0.5,0.1,1,0.1,1.5,0.1c1.8,0.2,3.6,0.2,5.5,0.1c1.8-0.1,3.6-0.3,5.3-0.6c3.4-0.6,6.6-1.7,9.6-3.1c0,0,0,0,0,0
		c7.5-3.5,13.6-9.3,17.6-16.3c3-5.3,4.8-11.4,5-17.8c0-0.4,0-0.9,0-1.3c0-0.5,0-1,0-1.6v-0.3l0-1.3l-0.2-3.3L583,64.7l0-0.1v0
		l-0.1-2.1l-0.1-1.7l-0.1-1.5l0-0.4c-0.2-2.7-0.7-5.2-1.5-7.7c-0.5-1.7-1.2-3.4-1.9-5c-0.1-0.3-0.2-0.5-0.3-0.7
		c-0.6-1.3-1.3-2.6-2-3.9c0,0,0,0,0,0c-2.8-4.8-6.7-8.9-11.2-12c-0.9-0.6-1.8-1.3-2.8-1.8c-6.6-3.9-14.3-5.9-22.5-5.5
		c-6.8,0.4-11.8,2.4-17.3,5.7c-3.3,2-6.3,4.4-8.9,7.3c-3.7,4-6,8.7-7.8,13.8c-0.1,0.3-0.2,0.6-0.3,0.9c-0.5,1.7-0.9,3.4-1.1,5.2
		C505,57.7,504.9,60.5,505.1,63.3z"/>
	<path class="st13" d="M519.3,28.3c-8.3,22.8,13.5,20.9,14.5,31.4c0.1,1.2,0.5,2.9,0.8,11.5l1.7,5.4c0.5,1.7,2,2.8,3.8,2.8
		c2.2,0,3.9-1.8,3.9-3.9v-0.1l-0.2-8.5l4.2,11.3c3.1,8.1,7.7,15.5,13.6,21.7c4.9,5.1,10.6,9.5,16.9,12.8c0,0,26.6-15.8,26.6-51.9
		c0-2.9-0.2-5.9-0.5-9c-0.3-2.8-0.8-5.4-1.4-7.9c-11-44.8-66.1-29.5-71.4-27.5C526.3,18.4,519.3,28.3,519.3,28.3z"/>
	<path class="st15" d="M500.4,87.5c0,0.1,0,0.6,0,0.6c0.1,2.5,2.2,4.4,7.5,4.3l-0.7-19.3C502.9,79.6,500.8,83.4,500.4,87.5z"/>
	<path class="st13" d="M503.3,64.2H515c1.4,0,2.5-1.1,2.5-2.5l0,0c0-1.4-1.1-2.5-2.5-2.5h-11.8c-1.4,0-2.5,1.1-2.5,2.5v0
		C500.8,63,501.9,64.2,503.3,64.2z"/>
	<path class="st16" d="M509.9,73L509.9,73c1,0,1.8-0.8,1.8-1.8v-2.6c0-1-0.8-1.8-1.8-1.8l0,0c-1,0-1.8,0.8-1.8,1.8v2.6
		C508.1,72.2,508.9,73,509.9,73z"/>
	<path class="st17" d="M561.7,99.8c4.9,5.1,10.6,9.5,16.9,12.8c0,0,26.6-15.8,26.6-51.9c0-2.9-0.2-5.9-0.5-9
		c-0.3-2.8-0.8-5.4-1.4-7.9c-1.2,6.9-4.3,17.3-12.2,30.1C579,93.5,566,98.6,561.7,99.8z"/>
	<path class="st13" d="M508,98.3l0.4,13.5c0,11.5,13.6,16.1,23.7,15l16.1-1.7l-1.6-13.9l-4.4-26.7l7.1-19.9l-14.6,6.1l0,0
		c1.1,15.8-10.2,28.6-26.1,27.9L508,98.3z"/>
	<rect x="555.8" y="357.2" class="st16" width="92.6" height="17.1"/>
	<line class="st10" x1="680" y1="516.5" x2="680" y2="523"/>
	<rect x="209.5" y="358.7" class="st18" width="84.8" height="17.1"/>
	<rect x="203.9" y="300.6" class="st18" width="19.3" height="240.5"/>
	<rect x="281.3" y="299.1" class="st19" width="19.3" height="241.9"/>
	<rect x="281.3" y="289.4" class="st18" width="19.3" height="103.2"/>
	<rect x="672.2" y="358.7" class="st18" width="84.8" height="17.1"/>
	<rect x="666.5" y="300.6" class="st18" width="19.3" height="240.5"/>
	<rect x="744" y="299.1" class="st18" width="19.3" height="241.9"/>
	<rect x="342.7" y="139.1" class="st20" width="63.7" height="137"/>
	<path class="st21" d="M275,231h209.3V103.2c0-4.6-3.7-8.4-8.4-8.4H283.3c-4.6,0-8.4,3.7-8.4,8.4V231z"/>
	<path class="st21" d="M294.6,251.5h174c9.7,0,17.6-7.9,17.6-17.6v-6.8H277v6.8C277,243.6,284.9,251.5,294.6,251.5z"/>
	<path class="st22" d="M282.2,103.2v127.8h209.3V103.2c0-4.6-3.7-8.3-8.4-8.3H290.5C285.9,94.9,282.2,98.6,282.2,103.2z"/>
	<path class="st23" d="M289.8,102.9v116.3c0,0.4,0.4,0.8,0.8,0.8h192.5c0.4,0,0.8-0.4,0.8-0.8V102.9c0-0.4-0.4-0.8-0.8-0.8H290.6
		C290.1,102.2,289.8,102.5,289.8,102.9z"/>
	<path class="st24" d="M282.2,227.1v6.8c0,7.1,4.2,13.2,10.2,16c2.3,1.1,4.8,1.6,7.5,1.6h174c9.7,0,17.6-7.9,17.6-17.6v-6.8H282.2z"
		/>
	<rect x="407.6" y="116.5" class="st6" width="65" height="2.3"/>
	<rect x="348.6" y="116.5" class="st21" width="30.8" height="2.3"/>
	<rect x="304.2" y="116.5" class="st8" width="30.8" height="2.3"/>
	<rect x="338.6" y="116.5" class="st6" width="7.3" height="2.3"/>
	<rect x="383" y="116.5" class="st7" width="21.6" height="2.3"/>
	<rect x="407.6" y="174.2" class="st6" width="65" height="2.3"/>
	<rect x="348.6" y="174.2" class="st21" width="30.8" height="2.3"/>
	<rect x="304.2" y="174.2" class="st8" width="30.8" height="2.3"/>
	<rect x="338.6" y="174.2" class="st6" width="7.3" height="2.3"/>
	<rect x="383" y="174.2" class="st5" width="21.6" height="2.3"/>
	<rect x="304.2" y="155" class="st6" width="65" height="2.3"/>
	<rect x="397.4" y="155" class="st21" width="30.8" height="2.3"/>
	<rect x="441.8" y="155" class="st8" width="30.8" height="2.3"/>
	<rect x="430.9" y="155" class="st6" width="7.3" height="2.3"/>
	<rect x="372.2" y="155" class="st5" width="21.6" height="2.3"/>
	<rect x="448.2" y="126.1" class="st7" width="24.4" height="2.3"/>
	<rect x="389.3" y="126.1" class="st6" width="10.5" height="2.3"/>
	<rect x="304.2" y="126.1" class="st21" width="51.1" height="2.3"/>
	<rect x="358.9" y="126.1" class="st6" width="27.6" height="2.3"/>
	<rect x="403.3" y="126.1" class="st6" width="41.9" height="2.3"/>
	<rect x="448.2" y="183.8" class="st6" width="24.4" height="2.3"/>
	<rect x="389.3" y="183.8" class="st6" width="10.5" height="2.3"/>
	<rect x="304.2" y="183.8" class="st6" width="51.1" height="2.3"/>
	<rect x="358.9" y="183.8" class="st6" width="27.6" height="2.3"/>
	<rect x="403.3" y="183.8" class="st6" width="41.9" height="2.3"/>
	<rect x="448.2" y="164.6" class="st7" width="24.4" height="2.3"/>
	<rect x="389.3" y="164.6" class="st6" width="10.5" height="2.3"/>
	<rect x="304.2" y="164.6" class="st21" width="51.1" height="2.3"/>
	<rect x="358.9" y="164.6" class="st6" width="27.6" height="2.3"/>
	<rect x="403.3" y="164.6" class="st6" width="41.9" height="2.3"/>
	<rect x="348.9" y="135.7" class="st21" width="24.4" height="2.3"/>
	<rect x="303.9" y="135.7" class="st6" width="41.9" height="2.3"/>
	<rect x="303.9" y="145.3" class="st21" width="24.4" height="2.3"/>
	<rect x="331.4" y="145.3" class="st6" width="41.9" height="2.3"/>
	<path class="st25" d="M344.1,279.6h85.3c2.6,0,4.7-2.1,4.7-4.7v0c0-2.6-2.1-4.7-4.7-4.7h-85.3c-2.6,0-4.7,2.1-4.7,4.7v0
		C339.4,277.5,341.5,279.6,344.1,279.6z"/>
	<path class="st31" d="M187.4,300.4h269.1v-13.9c0-4.2-3.4-7.6-7.6-7.6H195c-4.2,0-7.6,3.4-7.6,7.6V300.4z"/>
	<path class="st59" d="M265.8,286.5v13.9h518.1v-13.9c0-4.2-3.4-7.6-7.6-7.6H273.4C269.2,278.9,265.8,282.3,265.8,286.5z"/>
	<path class="st59" d="M415.7,278.9c4.1,6.7,9,14.7,13.2,21.5h126.8l-1.7-21.5H415.7z"/>
	<rect x="27.3" y="326.3" class="st31" width="133.1" height="214.7"/>
	<rect x="76.8" y="326.3" class="st59" width="130.8" height="214.7"/>
	<rect x="85" y="386.7" class="st31" width="124.1" height="45.1"/>
	<rect x="85" y="439.7" class="st31" width="124.1" height="45.1"/>
	<rect x="85" y="492.6" class="st31" width="124.1" height="48.4"/>
	<path class="st4" d="M169.6,411.7h-31c-1.3,0-2.4-1.1-2.4-2.4l0,0c0-1.3,1.1-2.4,2.4-2.4h31c1.3,0,2.4,1.1,2.4,2.4l0,0
		C172,410.6,171,411.7,169.6,411.7z"/>
	<rect x="85" y="334.8" class="st31" width="124.1" height="45.1"/>
	<path class="st4" d="M169.6,359.8h-31c-1.3,0-2.4-1.1-2.4-2.4l0,0c0-1.3,1.1-2.4,2.4-2.4h31c1.3,0,2.4,1.1,2.4,2.4l0,0
		C172,358.7,171,359.8,169.6,359.8z"/>
	<path class="st4" d="M170.8,464.3h-31c-1.3,0-2.4-1.1-2.4-2.4l0,0c0-1.3,1.1-2.4,2.4-2.4h31c1.3,0,2.4,1.1,2.4,2.4l0,0
		C173.3,463.2,172.2,464.3,170.8,464.3z"/>
	<path class="st4" d="M170.8,516.9h-31c-1.3,0-2.4-1.1-2.4-2.4v0c0-1.3,1.1-2.4,2.4-2.4h31c1.3,0,2.4,1.1,2.4,2.4l0,0
		C173.3,515.8,172.2,516.9,170.8,516.9z"/>
	<path class="st59" d="M511.2,551.3l-62.2,0.7c-3.7,0-6.7-2.9-6.8-6.6l0,0c0-2.9,1.7-5.4,4.4-6.4l30.7-11.1l33.6,0.5L511.2,551.3z"
		/>
	<path class="st16" d="M447.8,553.7l63-0.2l0-4.5l-67.5,0.2l0,0C443.3,551.7,445.3,553.7,447.8,553.7z"/>
	<line class="st32" x1="478.1" y1="536.9" x2="470.8" y2="529.1"/>
	<line class="st32" x1="472.8" y1="539.2" x2="465.4" y2="531.4"/>
	<line class="st32" x1="467.7" y1="542.2" x2="459.4" y2="533.4"/>
	<path class="st33" d="M513.3,530.8c-3.6-60.7-2.6-116.8,2.1-128.1c4.8-7.1,42.6-22.3,80.4-24l-17.7-38.6
		c-49.5,2.5-84.9,21.1-97.3,42.3c-5.2,9-9.8,27-7.3,88.9c1.3,32.4,2.9,57.8,2.9,57.8L513.3,530.8z"/>
	<path class="st34" d="M455.8,552.8l-62.2,0.4c-3.7,0-6.7-3-6.8-6.7l0,0c0-2.9,1.8-5.4,4.5-6.4l30.7-10.9l33.6,0.6L455.8,552.8z"/>
	<path class="st16" d="M392.4,555l64,0l0-4.5l-68.5,0l0,0C387.9,552.9,389.9,555,392.4,555z"/>
	<line class="st32" x1="422.8" y1="538.3" x2="415.5" y2="530.5"/>
	<line class="st32" x1="417.4" y1="540.6" x2="410.1" y2="532.8"/>
	<line class="st32" x1="412.3" y1="543.6" x2="404.1" y2="534.8"/>
	<path class="st33" d="M458.1,530.8c-3.6-60.7-2.6-116.8,2.1-128.1c4.8-7.1,42.6-22.3,80.4-24l-17.7-38.6
		c-49.5,2.5-84.9,21.1-97.3,42.3c-5.2,9-9.8,27-7.3,88.9c1.3,32.4,2.9,57.8,2.9,57.8L458.1,530.8z"/>
	<path class="st33" d="M511.3,351.2c0,6.8,2.4,13,6.4,17.9c5.1,6.2,12.9,10.2,21.7,10.2h47.2c1.4,0,2.8-0.1,4.1-0.3
		c3.5-0.5,6.7-1.6,9.6-3.3c0.5-0.3,1-0.6,1.5-0.9c7.7-5,12.8-13.7,12.8-23.5l-0.9-15l-101.7-0.9L511.3,351.2z"/>
	<path class="st14" d="M478.9,271.2l-24.3-3.9c-1.8-0.3-3-2-2.7-3.7l0,0c0.3-1.8,2-3,3.7-2.7l24.3,3.9c1.8,0.3,3,2,2.7,3.7l0,0
		C482.3,270.3,480.6,271.5,478.9,271.2z"/>
	<path class="st14" d="M471.1,277.8l-19.5-3.1c-1.8-0.3-3-2-2.7-3.7l0,0c0.3-1.8,2-3,3.7-2.7l19.5,3.1c1.8,0.3,3,2,2.7,3.7l0,0
		C474.6,276.9,472.9,278.1,471.1,277.8z"/>
	<path class="st14" d="M475.6,286.4l-23.1-3.7c-1.8-0.3-3-2-2.7-3.7l0,0c0.3-1.8,2-3,3.7-2.7l23.1,3.7c1.8,0.3,3,2,2.7,3.7l0,0
		C479.1,285.4,477.4,286.6,475.6,286.4z"/>
	<path class="st14" d="M468.4,265c0.3,0,3.2,0,6.5-0.1c5.6-0.1,11.1,1.1,16.1,3.6l9.6,4.7c0,0-5.5,16.3-6.3,16.4
		c-18.5,3.3-24.8-5.1-24.8-5.1L468.4,265z"/>
	<rect x="482.7" y="264.9" class="st4" width="8.2" height="26.7"/>
	<path class="st33" d="M544.7,294.5c19.4,0,37.1-11.3,45.2-28.9l0.4-0.9l25.3-77.4l-31.2-10.2l-24.7,75.4c-2.9,5.6-8.8,9.2-15.2,9.1
		l-53.8-0.5l-0.3,32.9l53.8,0.5C544.4,294.5,544.6,294.5,544.7,294.5z"/>
	<path class="st14" d="M369.1,262.6c2-3.6,5-6.5,8.7-8.3c0,0,0.1,0,0.1,0c5-2.5,10.5-3.7,16.1-3.6l10.7,0.2c0,0,2.7,23.2,2.6,22.4
		c-0.3-1.5-26.1-1.1-38-0.9c-2.6,0.1-4.2-2.7-3-4.9L369.1,262.6z"/>
	<rect x="401" y="249.1" class="st4" width="10.2" height="27.3"/>
	<path class="st35" d="M461.1,279.5c19.4,0,37.1-11.3,45.2-28.9l36.5-79L513,157.9l-36.5,79c-2.8,6-8.8,9.9-15.5,9.8l-53.8-0.5
		l-0.3,32.9l53.8,0.5C460.8,279.5,460.9,279.5,461.1,279.5z"/>
	<path class="st35" d="M502.6,187.1l0.6,69l0.8,87.8c0,0,1.9,2.1,7.5,5.1c4.9,2.6,12.6,5.8,24.3,8.8c13.7,3.5,32.9,4.1,49.4,3.7
		c18.1-0.4,32.9-2,32.9-2l-0.4-172.4c0-24.3-17.6-44.4-40.7-48.5c-2.8-0.5-5.6-0.7-8.6-0.7h-16.6
		C524.6,137.9,502.6,159.9,502.6,187.1z"/>
	<rect x="562.8" y="413.4" class="st19" width="16.6" height="95.4"/>
	<path class="st18" d="M579.4,418.8v20.9l-16.6-6.1v-14.1C566.9,419.3,574.9,419,579.4,418.8z"/>
	<path class="st3" d="M520,421.6h99.5c5.1,0,9.3-4.2,9.3-9.3l0,0c0-5.1-4.2-9.3-9.3-9.3H520c-5.1,0-9.3,4.2-9.3,9.3l0,0
		C510.7,417.5,514.9,421.6,520,421.6z"/>
	<path class="st18" d="M500.6,539.6H511c0-11.7,10.1-21.2,22.5-21.2h75.7c12.4,0,22.5,9.5,22.5,21.2h10.4c0-17.1-14.8-31-32.9-31
		h-75.7C515.4,508.5,500.6,522.5,500.6,539.6z"/>
	<rect x="559" y="493.8" class="st18" width="24.3" height="14.9"/>
	<ellipse class="st18" cx="637.4" cy="549" rx="8.6" ry="8.1"/>
	<path class="st19" d="M624.9,548.3h23.6v-2.2c0-6.1-4.9-11-11-11H636c-6.1,0-11,4.9-11,11V548.3z"/>
	<ellipse class="st18" cx="505.4" cy="549" rx="8.6" ry="8.1"/>
	<path class="st19" d="M492.9,548.3h23.6v-2.2c0-6.1-4.9-11-11-11h-1.6c-6.1,0-11,4.9-11,11V548.3z"/>
	<rect x="563.8" y="511.6" class="st18" width="13.8" height="29.4"/>
	<ellipse class="st18" cx="569.7" cy="548.3" rx="8.6" ry="8.1"/>
	<path class="st19" d="M557.9,548.3h23.6v-2.2c0-6.1-4.9-11-11-11H569c-6.1,0-11,4.9-11,11V548.3z"/>
	<path class="st60" d="M703.3,234l-22.2,160.6c-1.4,9.8-9.6,17.1-19.4,17.4l-81.2,0.9l45.1-202l57.6,0
		C695.6,210.9,705,221.8,703.3,234z"/>
	<path class="st58" d="M484.6,412.9h112.9c9.6,0,17.5-7.9,17.5-17.5v0c0-9.6-7.9-17.5-17.5-17.5H484.6c-9.6,0-17.5,7.9-17.5,17.5v0
		C467.1,405.1,475,412.9,484.6,412.9z"/>
	<path class="st33" d="M591.1,181.9c2.2,31.7-4,145.9-5.9,179.6c18.1-0.4,32.9-2,32.9-2l-0.4-172.4c0-24.3-17.6-44.4-40.7-48.5
		C577,138.6,588.5,144.6,591.1,181.9z"/>
	<polygon class="st4" points="534.5,140.9 585.3,140.9 585.3,126.7 534.5,132.7 	"/>
	<path class="st58" d="M616.4,390.8L640,226.1c1.1-7.3-4.5-14.2-12.2-15.1l0,0c-7.8-1-15,4.2-16.1,11.5l-23.6,164.7
		c-1.1,7.3,4.5,14.2,12.2,15.1l0,0C608.2,403.4,612.2,408.9,616.4,390.8z"/>
	<path class="st33" d="M503.2,256.1l0.8,87.8c0,0,1.9,2.1,7.5,5.1l11.7-132.3C523.2,216.6,512.5,243.4,503.2,256.1z"/>
	<path class="st38" d="M282.5,194.7l5.8,32.5l4.1,22.7c2.3,1.1,4.8,1.6,7.5,1.6h55c-5.2-5.4-14-14.5-23.4-24.4
		c-14.7-15.4-31-32.9-38.3-41.8L282.5,194.7z"/>
	<g>
		<path class="st21" d="M312.7,278.6H203.9c-0.6-0.9-1.1-1.9-1.4-2.9l-24.4-87.9c-1.2-4.2,2-8.3,6.3-8.3h95.8c3,0,5.5,2,6.3,4.8
			L312.7,278.6z"/>
		<path class="st5" d="M183.3,184.7l24.3,87.8c1.1,4.1,4.9,6.9,9.1,6.9h102.1l-27.2-98.3c-0.8-2.8-3.4-4.8-6.3-4.8h-95.7
			C185.3,176.3,182.2,180.5,183.3,184.7z"/>
		<path class="st23" d="M188.7,188.5l19.9,71.6l4.2,15h101.3l-4.2-15l-20.8-74.9c-0.7-2.6-3.1-4.4-5.9-4.4h-88.7
			C190.5,180.8,187.6,184.7,188.7,188.5z"/>
		<g>
			<g>
				<polygon class="st39" points="248.4,190.6 279.6,190.6 278.9,188.4 247.7,188.4 				"/>
				<polygon class="st7" points="220.1,190.6 234.9,190.6 234.2,188.4 219.4,188.4 				"/>
				<polygon class="st5" points="198.8,190.6 213.6,190.6 212.9,188.4 198.1,188.4 				"/>
				<polygon class="st6" points="215.3,190.6 218.8,190.6 218.1,188.4 214.6,188.4 				"/>
				<polygon class="st5" points="236.6,190.6 246.9,190.6 246.2,188.4 235.9,188.4 				"/>
			</g>
			<g>
				<polygon class="st21" points="228.6,228 213.8,228 213.2,225.8 227.9,225.8 				"/>
				<polygon class="st8" points="249.9,228 235.2,228 234.5,225.8 249.2,225.8 				"/>
				<polygon class="st6" points="233.4,228 229.9,228 229.2,225.8 232.7,225.8 				"/>
			</g>
			<g>
				<polygon class="st7" points="270.9,199.9 282.5,199.9 281.9,197.7 270.2,197.7 				"/>
				<polygon class="st6" points="242.6,199.9 247.6,199.9 246.9,197.7 241.9,197.7 				"/>
				<polygon class="st7" points="201.7,199.9 226.3,199.9 225.6,197.7 201.1,197.7 				"/>
				<polygon class="st6" points="228,199.9 241.2,199.9 240.6,197.7 227.3,197.7 				"/>
				<polygon class="st6" points="249.3,199.9 269.4,199.9 268.7,197.7 248.6,197.7 				"/>
			</g>
			<g>
				<polygon class="st10" points="220.8,256.1 232.5,256.1 231.8,253.9 220.1,253.9 				"/>
			</g>
			<g>
				<polygon class="st21" points="251,209.3 262.7,209.3 262,207.1 250.3,207.1 				"/>
				<polygon class="st21" points="231.9,209.3 243.6,209.3 242.9,207.1 231.2,207.1 				"/>
				<polygon class="st6" points="208,209.3 228.1,209.3 227.4,207.1 207.3,207.1 				"/>
			</g>
			<g>
				<polygon class="st6" points="231.5,218.6 211.4,218.6 210.8,216.4 230.9,216.4 				"/>
			</g>
		</g>
		<polygon class="st5" points="207.3,260.2 211.6,275.2 315.4,275.2 311.2,260.2 		"/>
		<g>
			<path class="st5" d="M263.2,279.7h124.4c2.9,0,5.3-2.4,5.3-5.3l0,0c0-2.9-2.4-5.3-5.3-5.3H263.2c-2.9,0-5.3,2.4-5.3,5.3l0,0
				C257.9,277.3,260.3,279.7,263.2,279.7z"/>
		</g>
		<polygon class="st40" points="214.3,176.3 216.3,180.8 252.6,260.1 256.3,268.3 295.4,268.3 291.7,260.1 255.5,180.8 253.4,176.3 
					"/>
		<polygon class="st40" points="329.4,102.2 383.2,220 440.8,220 386.9,102.2 		"/>
		<g>
			<g>
				<path class="st21" d="M216,279.3h72c2.9,0,5.3-2.4,5.3-5.3l0,0c0-2.9-2.4-5.3-5.3-5.3h-72c-2.9,0-5.3,2.4-5.3,5.3l0,0
					C210.8,277,213.1,279.3,216,279.3z"/>
			</g>
			<g>
				<rect x="241.9" y="272.3" class="st16" width="10.3" height="3.1"/>
				<rect x="255.3" y="272.3" class="st16" width="7.5" height="3.1"/>
			</g>
		</g>
	</g>
	<g>
		<g>
			<path class="st41" d="M317.4,236.5v43.1h36v-43.1c0-1.9-1.5-3.4-3.4-3.4h-29.1C318.9,233.1,317.4,234.6,317.4,236.5z"/>
			<g>
				<path class="st7" d="M352.9,272.2c0.5-0.3,11.5-6.7,12.5-18.1c0.4-4.3-1.3-7-2.7-8.5c-4-4.1-10.5-3.8-11.3-3.8l0.3,5.3
					c1.3-0.1,5.3,0.2,7.2,2.2c1,1,1.4,2.5,1.2,4.4c-0.8,8.6-9.8,13.9-9.9,14L352.9,272.2z"/>
			</g>
		</g>
		<path class="st7" d="M334.2,279.6h19.2v-43.1c0-1.9-1.5-3.4-3.4-3.4h-1.2c-0.1,2.2-0.7,19.4-5.5,31.8
			C339.1,275.6,335.3,278.8,334.2,279.6z"/>
		<path class="st42" d="M362.7,245.6c-2.8-2.9-6.9-3.6-9.4-3.8v-5.4c0-1.9-1.5-3.4-3.4-3.4h-1.2c-0.1,2.2-0.7,19.4-5.5,31.8
			c-4.2,10.8-7.9,14-9.1,14.7h19.2v-7.7c2.1-1.3,11.2-7.6,12.1-17.8C365.8,249.8,364.2,247.1,362.7,245.6z M360.2,253.7
			c-0.5,5.3-4.1,9.4-6.8,11.7v-18.2c1.7,0.2,4.2,0.7,5.6,2.2C360,250.3,360.3,251.8,360.2,253.7z"/>
	</g>
	<polyline class="st61" points="118.9,311.1 89.5,216.3 149,176.7 172,192 	"/>
	<g>
		<path class="st62" d="M167,222.5l11.3,9.9l32.2-34.3l-11.3-9.9c-7.9-6.8-19.1-7.7-27.9-3c-2.2,1.2-4.2,2.7-6,4.7
			c-4.4,4.7-6.5,10.8-6.2,16.7C159.4,212.4,162.1,218.2,167,222.5z"/>
		<path class="st63" d="M177.2,211.5l11.3,9.9l21.9-23.4l-11.3-9.9c-7.9-6.8-19.1-7.7-27.9-3c-1.5,3.3-2.2,6.9-2,10.4
			C169.7,201.5,172.3,207.3,177.2,211.5z"/>
	</g>
	<path class="st5" d="M177.7,232.2c3.4,3.1,13.5-2,22.6-11.4c9-9.4,13.6-19.4,10.2-22.5c-2.7-2.4-9.6,0.3-16.8,6.1
		c-1.9,1.6-3.9,3.3-5.7,5.3c-2.2,2.3-4.1,4.6-5.8,6.9C177.1,223.6,175.1,229.9,177.7,232.2z"/>
	<path class="st4" d="M182.2,216.6c2.6,2.9,7.1,3.7,10.7,1.7c4.1-2.2,5.6-7.3,3.2-11.3c-0.6-1.1-1.5-1.9-2.4-2.6
		c-1.9,1.6-3.9,3.3-5.7,5.3C185.7,212,183.8,214.3,182.2,216.6z"/>
	<ellipse class="st3" cx="149.8" cy="177.3" rx="7.3" ry="7"/>
	<ellipse class="st63" cx="149.8" cy="177.3" rx="3.7" ry="3.5"/>
	<path class="st3" d="M89.3,325.9H165l0,0c0-8.3-6.7-15-15-15h-45.6C96.1,310.9,89.3,317.6,89.3,325.9L89.3,325.9z"/>
	<ellipse class="st3" cx="90.1" cy="217.3" rx="10.2" ry="9.9"/>
	<ellipse class="st63" cx="90.1" cy="217.3" rx="5.1" ry="4.9"/>
	<path class="st14" d="M545,64c-1.6,0-2.9,1.3-2.9,3l0.1,10l0.1,8.8l3.4,0c0.3,0,0.5,0,0.7,0c5.8-0.4,10.3-5.5,10.3-11.2
		c0-3-1.3-5.5-3.3-7.5c-1.8-1.8-4.2-2.8-6.9-2.9l0,0c-0.3,0-0.6-0.1-0.9,0L545,64z"/>
	<g>
		<g>
			<path class="st3" d="M87.4,153.5c0.6,0,0.6-1,0-1C86.7,152.5,86.7,153.5,87.4,153.5L87.4,153.5z"/>
		</g>
	</g>
</g>
</svg>
