<?xml version="1.0" encoding="utf-8"?>
<!-- Generator: Adobe Illustrator 19.0.0, SVG Export Plug-In . SVG Version: 6.00 Build 0)  -->
<svg version="1.1" id="Layer_1" xmlns="http://www.w3.org/2000/svg" xmlns:xlink="http://www.w3.org/1999/xlink" x="0px" y="0px"
	 viewBox="0 0 900 900" style="enable-background:new 0 0 900 900;" xml:space="preserve">
<style type="text/css">
	.st0{fill:none;stroke:#716F82;stroke-width:7;stroke-miterlimit:10;}
	.st1{fill:#072050;}
	.st2{fill:#747282;}
	.st3{fill:#2D2D3A;}
	.st4{fill:#FFFFFF;}
	.st5{fill:#A29FB0;}
	.st6{fill:#6E89C4;}
	.st7{fill:#EA5444;}
	.st8{fill:#FFC543;}
	.st9{fill:#A2CC3B;}
	.st10{fill:#313D6E;}
	.st11{fill:#678C6E;}
	.st12{opacity:0.55;fill:#C5CBED;}
	.st13{fill:#7C4B39;}
	.st14{fill:#FCBBA4;}
	.st15{fill:#FFC7B0;}
	.st16{fill:#081344;}
	.st17{opacity:0.2;fill:#081344;}
	.st18{fill:#716F82;}
	.st19{fill:#B1AEC1;}
	.st20{fill:#585668;}
	.st21{fill:#DDDDDD;}
	.st22{fill:#767684;}
	.st23{fill:#1F3468;}
	.st24{fill:#ABA9C4;}
	.st25{fill:#4A4960;}
	.st26{fill:#E79271;}
	.st27{fill:#A5483C;}
	.st28{fill:#84352F;}
	.st29{fill:#7F3954;}
	.st30{fill:#6E3856;}
	.st31{fill:#DF7D54;}
	.st32{fill:none;stroke:#081344;stroke-width:1.4933;stroke-linecap:round;stroke-miterlimit:10;}
	.st33{fill:#1C1C2D;}
	.st34{fill:#A0523A;}
	.st35{fill:#25253A;}
	.st36{fill:#9F293B;}
	.st37{fill:#F14747;}
	.st38{opacity:0.32;fill:#25253A;}
	.st39{fill:#ECEEF0;}
	.st40{opacity:0.55;fill:#CDD6F9;}
	.st41{fill:#FC4F42;}
	.st42{opacity:0.79;fill:#CE2D29;}
	.st43{fill:#6075B0;}
	.st44{fill:#794061;}
	.st45{fill:#072859;}
	.st46{fill:#F3885E;}
	.st47{fill:#FFBE62;}
	.st48{fill:#FBAF3D;}
	.st49{fill:#FFD72E;}
	.st50{fill:#F38154;}
	.st51{fill:#709B2C;}
	.st52{fill:#4C842F;}
	.st53{fill:none;stroke:#081344;stroke-width:4.5943;stroke-miterlimit:10;}
	.st54{fill:#517F38;}
	.st55{fill:#3B6837;}
	.st56{fill:#65B15B;}
	.st57{fill:#62324A;}
	.st58{fill:#2191ED;}
	.st59{fill:#683A2D;}
	.st60{fill:#227BC4;}
	.st61{fill:none;stroke:#A8AAAF;stroke-width:4.5943;stroke-miterlimit:10;}
	.st62{fill:#A09D9C;}
	.st63{fill:#D6D3CE;}
</style>
<line class="st0" x1="-970.2" y1="705.3" x2="-190.3" y2="705.3"/>
<g>
	<rect x="-857.3" y="302.2" class="st1" width="66.1" height="142.2"/>
	<g>
		<path class="st2" d="M-930.8,394.6h212V257.7c0-4.8-3.9-8.7-8.7-8.7h-194.7c-4.8,0-8.7,3.9-8.7,8.7V394.6z"/>
		<path class="st2" d="M-910.4,415.8h175.4c10.1,0,18.3-8.2,18.3-18.3v-7h-212v7C-928.7,407.6-920.5,415.8-910.4,415.8z"/>
		<path class="st3" d="M-711.3,257.6v136.9l-52-0.8l-54.5-0.9l-17.2-0.3l-55-0.9l-33.3-0.5V257.6c0-4.8,3.9-8.7,8.7-8.7H-720
			C-715.2,249-711.3,252.9-711.3,257.6z"/>
		<path class="st4" d="M-915.4,261.5v120.8c0,0.4,0.4,0.8,0.8,0.8H-720c0.4,0,0.8-0.4,0.8-0.8V261.5c0-0.4-0.4-0.8-0.8-0.8h-194.6
			C-915.1,260.7-915.4,261.1-915.4,261.5z"/>
		<path class="st5" d="M-905,415.8h175.4c10.1,0,18.3-8.2,18.3-18.3v-7h-212v7C-923.3,407.6-915.1,415.8-905,415.8z"/>
	</g>
	<path class="st5" d="M-859,445h88.6c2.7,0,4.9-2.2,4.9-4.9l0,0c0-2.7-2.2-4.9-4.9-4.9H-859c-2.7,0-4.9,2.2-4.9,4.9l0,0
		C-863.9,442.8-861.7,445-859,445z"/>
	<g>
		<path class="st6" d="M-728.5,282h-174.3c-1.5,0-2.6-1.2-2.6-2.6v-10.2c0-1.5,1.2-2.6,2.6-2.6h174.3c1.5,0,2.6,1.2,2.6,2.6v10.2
			C-725.9,280.8-727.1,282-728.5,282z"/>
		<g>
			<g>
				<ellipse class="st7" cx="-895.2" cy="274" rx="3.3" ry="3.4"/>
			</g>
		</g>
		<g>
			<g>
				<ellipse class="st8" cx="-883.2" cy="274" rx="3.3" ry="3.4"/>
			</g>
		</g>
		<g>
			<g>
				<ellipse class="st9" cx="-871.2" cy="274" rx="3.3" ry="3.4"/>
			</g>
		</g>
		<path class="st10" d="M-846.1,309h-58.2c-0.9,0-1.6-0.7-1.6-1.6v-17.8c0-0.9,0.7-1.6,1.6-1.6h58.2c0.9,0,1.6,0.7,1.6,1.6v17.8
			C-844.5,308.3-845.2,309-846.1,309z"/>
		<path class="st11" d="M-774.6,335.5h-58.2c-0.9,0-1.6-0.7-1.6-1.6v-17.8c0-0.9,0.7-1.6,1.6-1.6h58.2c0.9,0,1.6,0.7,1.6,1.6v17.8
			C-773,334.8-773.7,335.5-774.6,335.5z"/>
		<path class="st11" d="M-727.5,309h-35.2c-0.9,0-1.6-0.7-1.6-1.6v-17.8c0-0.9,0.7-1.6,1.6-1.6h35.2c0.9,0,1.6,0.7,1.6,1.6v17.8
			C-725.9,308.3-726.6,309-727.5,309z"/>
		<path class="st7" d="M-727.5,335.9h-35.2c-0.9,0-1.6-0.7-1.6-1.6v-17.8c0-0.9,0.7-1.6,1.6-1.6h35.2c0.9,0,1.6,0.7,1.6,1.6v17.8
			C-725.9,335.2-726.6,335.9-727.5,335.9z"/>
		<g>
			<rect x="-834" y="304.9" class="st1" width="61.4" height="1.5"/>
			<rect x="-834" y="299.5" class="st1" width="61.4" height="1.5"/>
			<rect x="-834" y="294.2" class="st1" width="61.4" height="1.5"/>
			<rect x="-834" y="288.8" class="st1" width="61.4" height="1.5"/>
		</g>
		<path class="st7" d="M-846.1,361.5h-58.2c-0.9,0-1.6-0.7-1.6-1.6v-17.8c0-0.9,0.7-1.6,1.6-1.6h58.2c0.9,0,1.6,0.7,1.6,1.6v17.8
			C-844.5,360.8-845.2,361.5-846.1,361.5z"/>
		<g>
			<rect x="-834" y="357.3" class="st1" width="61.4" height="1.5"/>
			<rect x="-834" y="352" class="st1" width="61.4" height="1.5"/>
			<rect x="-834" y="346.6" class="st1" width="61.4" height="1.5"/>
			<rect x="-834" y="341.3" class="st1" width="61.4" height="1.5"/>
		</g>
		<g>
			<rect x="-906.2" y="330.5" class="st1" width="61.4" height="1.5"/>
			<rect x="-906.2" y="325.1" class="st1" width="61.4" height="1.5"/>
			<rect x="-906.2" y="319.8" class="st1" width="61.4" height="1.5"/>
			<rect x="-906.2" y="314.5" class="st1" width="61.4" height="1.5"/>
		</g>
	</g>
	<polygon class="st12" points="-752.1,249 -817.8,390.7 -890.1,390.7 -824.9,249 	"/>
</g>
<g>
	<path class="st13" d="M-704.5,178.4l13.6,8.4c9.8,6.1,13.3,18.7,8.1,29c-1,2-1.7,3.4-1.6,3.2c0.5-0.6-20.8-40.4-20.8-40.4"/>
	<path class="st14" d="M-739.9,308.3h-7c-6.4,0-11.7-5.3-11.7-11.7v-33c0-6.4,5.3-11.7,11.7-11.7h7c6.4,0,11.7,5.3,11.7,11.7v33
		C-728.1,303-733.4,308.3-739.9,308.3z"/>
	<path class="st13" d="M-684.7,219.1c0.3,2.7-12.1,7.2-12.3,10l2,5.6c-15.3-5.5-1.8,2.9-1.8,2.9c-4.5,13.5-3,20.9-15.9,26.1
		c-6.5,2.6-13.6,3.7-21,3.2c-9.9-0.7-18.7,2.4-25.9-1c-1.5-0.7-2.9-1.7-4.2-3c-2.5-2.5-4.8-5.3-6.7-8.3c-0.7-1.2-1.4-2.4-2.1-3.6
		c-3.9-7.6-11.9-29.7-11.3-38.8c1.8-25.7,26.4-42.9,54.8-41c0.7,0.1,1.4,0.1,2.2,0.1c15.3,1.1,28.4,9.2,36.4,21
		c0.4,0.6,0.8,1.3,1.2,1.9c0,0,0,0,0,0c2.3,3.7,3.5,19.8,3.5,19.8C-685.2,215.6-684.9,217.3-684.7,219.1z"/>
	<path class="st15" d="M-685.8,227.3l-0.4,7.1l-0.6,11.7l-1,4.1c-0.1,1.8-1,11.5-1.4,13.3c-3.2,16.6-14.1,20.1-31,22.2
		c-0.5,0.1-1,0.1-1.5,0.1c-1.8,0.2-3.6,0.2-5.5,0.1c-1.8-0.1-3.6-0.3-5.3-0.6c-3.4-0.6-6.6-1.7-9.6-3.1c0,0,0,0,0,0
		c-7.5-3.5-13.6-9.3-17.6-16.3c-3-5.3-4.8-11.4-5-17.8c0-0.4,0-0.9,0-1.3c0-0.5,0-1,0-1.6v-0.3l0-1.3l0.2-3.3l0.6-11.5l0-0.1v0
		l0.1-2.1l0.1-1.7l0.1-1.5l0-0.4c0.2-2.7,0.7-5.2,1.5-7.7c0.5-1.7,1.2-3.4,1.9-5c0.1-0.3,0.2-0.5,0.3-0.7c0.6-1.3,1.3-2.6,2-3.9
		c0,0,0,0,0,0c2.8-4.8,6.7-8.9,11.2-12c0.9-0.6,1.8-1.3,2.8-1.8c6.6-3.9,14.3-5.9,22.5-5.5c6.8,0.4,11.8,2.4,17.3,5.7
		c3.3,2,6.3,4.4,8.9,7.3c3.7,4,6,8.7,7.8,13.8c0.1,0.3,0.2,0.6,0.3,0.9c0.5,1.7,0.9,3.4,1.1,5.2
		C-685.7,221.7-685.7,224.5-685.8,227.3z"/>
	<path class="st13" d="M-700,192.3c8.3,22.8-13.5,20.9-14.5,31.4c-0.1,1.2-0.5,2.9-0.8,11.5l-1.7,5.4c-0.5,1.7-2,2.8-3.8,2.8
		c-2.2,0-3.9-1.8-3.9-3.9v-0.1l0.2-8.5l-4.2,11.3c-3.1,8.1-7.7,15.5-13.6,21.7c-4.9,5.1-10.6,9.5-16.9,12.8c0,0-26.6-15.8-26.6-51.9
		c0-2.9,0.2-5.9,0.5-9c0.3-2.8,0.8-5.4,1.4-7.9c11-44.8,66.1-29.5,71.4-27.5C-707,182.4-700,192.3-700,192.3z"/>
	<path class="st15" d="M-681.1,251.5c0,0.1,0,0.6,0,0.6c-0.1,2.5-2.2,4.4-7.5,4.3l0.7-19.3C-683.6,243.6-681.5,247.4-681.1,251.5z"
		/>
	<path class="st13" d="M-684,228.2h-11.8c-1.4,0-2.5-1.1-2.5-2.5l0,0c0-1.4,1.1-2.5,2.5-2.5h11.8c1.4,0,2.5,1.1,2.5,2.5v0
		C-681.5,227-682.6,228.2-684,228.2z"/>
	<path class="st16" d="M-690.6,237L-690.6,237c-1,0-1.8-0.8-1.8-1.8v-2.6c0-1,0.8-1.8,1.8-1.8l0,0c1,0,1.8,0.8,1.8,1.8v2.6
		C-688.8,236.2-689.6,237-690.6,237z"/>
	<path class="st17" d="M-742.4,263.8c-4.9,5.1-10.6,9.5-16.9,12.8c0,0-26.6-15.8-26.6-51.9c0-2.9,0.2-5.9,0.5-9
		c0.3-2.8,0.8-5.4,1.4-7.9c1.2,6.9,4.3,17.3,12.2,30.1C-759.8,257.5-746.7,262.6-742.4,263.8z"/>
	<path class="st13" d="M-688.7,262.3l-0.4,13.5c0,11.5-13.6,16.1-23.7,15l-16.1-1.7l1.6-13.9l4.4-26.7l-7.1-19.9l14.6,6.1l0,0
		c-1.1,15.8,10.2,28.6,26.1,27.9L-688.7,262.3z"/>
	<path class="st14" d="M-725.8,228c1.6,0,2.9,1.3,2.9,3l-0.1,10l-0.1,8.8l-3.4,0c-0.3,0-0.5,0-0.7,0c-5.8-0.4-10.3-5.5-10.3-11.2
		c0-3,1.3-5.5,3.3-7.5c1.8-1.8,4.2-2.8,6.9-2.9l0,0c0.3,0,0.6-0.1,0.9,0L-725.8,228z"/>
	<g>
		<rect x="-829.1" y="521.2" class="st16" width="92.6" height="17.1"/>
		<line class="st10" x1="-860.7" y1="680.5" x2="-860.7" y2="687"/>
		<rect x="-475.1" y="522.7" class="st18" width="84.8" height="17.1"/>
		<rect x="-403.9" y="464.6" class="st18" width="19.3" height="240.5"/>
		<rect x="-481.4" y="463.1" class="st19" width="19.3" height="241.9"/>
		<rect x="-481.4" y="453.4" class="st18" width="19.3" height="103.2"/>
		<rect x="-937.7" y="522.7" class="st18" width="84.8" height="17.1"/>
		<rect x="-866.6" y="464.6" class="st18" width="19.3" height="240.5"/>
		<rect x="-944" y="463.1" class="st18" width="19.3" height="241.9"/>
		<g>
			<rect x="-587.1" y="303.1" class="st20" width="63.7" height="137"/>
			<g>
				<g>
					<path class="st21" d="M-455.7,395H-665V267.2c0-4.6,3.7-8.4,8.4-8.4H-464c4.6,0,8.4,3.7,8.4,8.4V395z"/>
					<path class="st21" d="M-475.3,415.5h-174c-9.7,0-17.6-7.9-17.6-17.6v-6.8h209.3v6.8C-457.7,407.6-465.6,415.5-475.3,415.5z"/>
					<path class="st22" d="M-462.9,267.2V395h-209.3V267.2c0-4.6,3.7-8.3,8.4-8.3h192.6C-466.6,258.9-462.9,262.6-462.9,267.2z"/>
					<path class="st23" d="M-470.5,266.9v116.3c0,0.4-0.4,0.8-0.8,0.8h-192.5c-0.4,0-0.8-0.4-0.8-0.8V266.9c0-0.4,0.4-0.8,0.8-0.8
						h192.5C-470.9,266.2-470.5,266.5-470.5,266.9z"/>
					<path class="st24" d="M-462.9,391.1v6.8c0,7.1-4.2,13.2-10.2,16c-2.3,1.1-4.8,1.6-7.5,1.6h-174c-9.7,0-17.6-7.9-17.6-17.6v-6.8
						H-462.9z"/>
				</g>
				<g>
					<g>
						<rect x="-653.3" y="280.5" class="st6" width="65" height="2.3"/>
						<rect x="-560.1" y="280.5" class="st21" width="30.8" height="2.3"/>
						<rect x="-515.7" y="280.5" class="st8" width="30.8" height="2.3"/>
						<rect x="-526.6" y="280.5" class="st6" width="7.3" height="2.3"/>
						<rect x="-585.3" y="280.5" class="st7" width="21.6" height="2.3"/>
					</g>
					<g>
						<rect x="-653.3" y="338.2" class="st6" width="65" height="2.3"/>
						<rect x="-560.1" y="338.2" class="st21" width="30.8" height="2.3"/>
						<rect x="-515.7" y="338.2" class="st8" width="30.8" height="2.3"/>
						<rect x="-526.6" y="338.2" class="st6" width="7.3" height="2.3"/>
						<rect x="-585.3" y="338.2" class="st5" width="21.6" height="2.3"/>
					</g>
					<g>
						<rect x="-549.9" y="319" class="st6" width="65" height="2.3"/>
						<rect x="-608.9" y="319" class="st21" width="30.8" height="2.3"/>
						<rect x="-653.3" y="319" class="st8" width="30.8" height="2.3"/>
						<rect x="-618.9" y="319" class="st6" width="7.3" height="2.3"/>
						<rect x="-574.5" y="319" class="st5" width="21.6" height="2.3"/>
					</g>
					<g>
						<rect x="-653.3" y="290.1" class="st7" width="24.4" height="2.3"/>
						<rect x="-580.4" y="290.1" class="st6" width="10.5" height="2.3"/>
						<rect x="-536" y="290.1" class="st21" width="51.1" height="2.3"/>
						<rect x="-567.2" y="290.1" class="st6" width="27.6" height="2.3"/>
						<rect x="-625.9" y="290.1" class="st6" width="41.9" height="2.3"/>
					</g>
					<g>
						<rect x="-653.3" y="347.8" class="st6" width="24.4" height="2.3"/>
						<rect x="-580.4" y="347.8" class="st6" width="10.5" height="2.3"/>
						<rect x="-536" y="347.8" class="st6" width="51.1" height="2.3"/>
						<rect x="-567.2" y="347.8" class="st6" width="27.6" height="2.3"/>
						<rect x="-625.9" y="347.8" class="st6" width="41.9" height="2.3"/>
					</g>
					<g>
						<rect x="-653.3" y="328.6" class="st7" width="24.4" height="2.3"/>
						<rect x="-580.4" y="328.6" class="st6" width="10.5" height="2.3"/>
						<rect x="-536" y="328.6" class="st21" width="51.1" height="2.3"/>
						<rect x="-567.2" y="328.6" class="st6" width="27.6" height="2.3"/>
						<rect x="-625.9" y="328.6" class="st6" width="41.9" height="2.3"/>
					</g>
					<g>
						<rect x="-653.3" y="299.7" class="st21" width="24.4" height="2.3"/>
						<rect x="-625.9" y="299.7" class="st6" width="41.9" height="2.3"/>
					</g>
					<g>
						<rect x="-608.4" y="309.3" class="st21" width="24.4" height="2.3"/>
						<rect x="-653.3" y="309.3" class="st6" width="41.9" height="2.3"/>
					</g>
				</g>
			</g>
			<path class="st25" d="M-524.9,443.6h-85.3c-2.6,0-4.7-2.1-4.7-4.7v0c0-2.6,2.1-4.7,4.7-4.7h85.3c2.6,0,4.7,2.1,4.7,4.7v0
				C-520.1,441.5-522.3,443.6-524.9,443.6z"/>
		</g>
		<path class="st26" d="M-368.1,464.4h-269.1v-13.9c0-4.2,3.4-7.6,7.6-7.6h253.9c4.2,0,7.6,3.4,7.6,7.6V464.4z"/>
		<g>
			<path class="st27" d="M-446.5,450.5v13.9h-518.1v-13.9c0-4.2,3.4-7.6,7.6-7.6h502.9C-450,442.9-446.5,446.3-446.5,450.5z"/>
			<path class="st28" d="M-596.5,442.9c-4.1,6.7-9,14.7-13.2,21.5h-126.8l1.7-21.5H-596.5z"/>
		</g>
		<g>
			<rect x="-341.2" y="538.2" class="st29" width="133.1" height="166.8"/>
			<rect x="-388.4" y="538.2" class="st30" width="130.8" height="166.8"/>
			<g>
				<rect x="-389.8" y="550.7" class="st31" width="124.1" height="45.1"/>
				<rect x="-389.8" y="603.7" class="st31" width="124.1" height="45.1"/>
				<rect x="-389.8" y="656.6" class="st31" width="124.1" height="48.4"/>
			</g>
			<g>
				<path class="st4" d="M-350.4,575.7h31c1.3,0,2.4-1.1,2.4-2.4l0,0c0-1.3-1.1-2.4-2.4-2.4h-31c-1.3,0-2.4,1.1-2.4,2.4l0,0
					C-352.8,574.6-351.7,575.7-350.4,575.7z"/>
				<path class="st4" d="M-351.6,628.3h31c1.3,0,2.4-1.1,2.4-2.4l0,0c0-1.3-1.1-2.4-2.4-2.4h-31c-1.3,0-2.4,1.1-2.4,2.4l0,0
					C-354,627.2-352.9,628.3-351.6,628.3z"/>
				<path class="st4" d="M-351.6,680.9h31c1.3,0,2.4-1.1,2.4-2.4v0c0-1.3-1.1-2.4-2.4-2.4h-31c-1.3,0-2.4,1.1-2.4,2.4l0,0
					C-354,679.8-352.9,680.9-351.6,680.9z"/>
			</g>
		</g>
		<g>
			<g>
				<path class="st29" d="M-691.9,715.3l62.2,0.7c3.7,0,6.7-2.9,6.8-6.6l0,0c0-2.9-1.7-5.4-4.4-6.4l-30.7-11.1l-33.6,0.5
					L-691.9,715.3z"/>
				<path class="st16" d="M-628.5,717.7l-63-0.2l0-4.5l67.5,0.2l0,0C-624,715.7-626,717.7-628.5,717.7z"/>
			</g>
			<g>
				<line class="st32" x1="-658.8" y1="700.9" x2="-651.5" y2="693.1"/>
				<line class="st32" x1="-653.5" y1="703.2" x2="-646.2" y2="695.4"/>
				<line class="st32" x1="-648.4" y1="706.2" x2="-640.1" y2="697.4"/>
			</g>
			<g>
				<path class="st33" d="M-694.1,694.8c3.6-60.7,2.6-116.8-2.1-128.1c-4.8-7.1-42.6-22.3-80.4-24l17.7-38.6
					c49.5,2.5,84.9,21.1,97.3,42.3c5.2,9,9.8,27,7.3,88.9c-1.3,32.4-2.9,57.8-2.9,57.8L-694.1,694.8z"/>
			</g>
			<g>
				<path class="st34" d="M-636.6,716.8l62.2,0.4c3.7,0,6.7-3,6.8-6.7l0,0c0-2.9-1.8-5.4-4.5-6.4l-30.7-10.9l-33.6,0.6L-636.6,716.8
					z"/>
				<path class="st16" d="M-573.1,719l-64,0l0-4.5l68.5,0l0,0C-568.6,716.9-570.6,719-573.1,719z"/>
			</g>
			<g>
				<line class="st32" x1="-603.5" y1="702.3" x2="-596.2" y2="694.5"/>
				<line class="st32" x1="-598.2" y1="704.6" x2="-590.9" y2="696.8"/>
				<line class="st32" x1="-593" y1="707.6" x2="-584.8" y2="698.8"/>
			</g>
			<g>
				<path class="st33" d="M-638.8,694.8c3.6-60.7,2.6-116.8-2.1-128.1c-4.8-7.1-42.6-22.3-80.4-24l17.7-38.6
					c49.5,2.5,84.9,21.1,97.3,42.3c5.2,9,9.8,27,7.3,88.9c-1.3,32.4-2.9,57.8-2.9,57.8L-638.8,694.8z"/>
			</g>
			<path class="st33" d="M-692,515.2c0,6.8-2.4,13-6.4,17.9c-5.1,6.2-12.9,10.2-21.7,10.2h-47.2c-1.4,0-2.8-0.1-4.1-0.3
				c-3.5-0.5-6.7-1.6-9.6-3.3c-0.5-0.3-1-0.6-1.5-0.9c-7.7-5-12.8-13.7-12.8-23.5l0.9-15l101.7-0.9L-692,515.2z"/>
			<g>
				<g>
					<g>
						<path class="st14" d="M-659.6,435.2l24.3-3.9c1.8-0.3,3-2,2.7-3.7l0,0c-0.3-1.8-2-3-3.7-2.7l-24.3,3.9c-1.8,0.3-3,2-2.7,3.7
							l0,0C-663.1,434.3-661.4,435.5-659.6,435.2z"/>
						<path class="st14" d="M-651.8,441.8l19.5-3.1c1.8-0.3,3-2,2.7-3.7l0,0c-0.3-1.8-2-3-3.7-2.7l-19.5,3.1c-1.8,0.3-3,2-2.7,3.7
							l0,0C-655.3,440.9-653.6,442.1-651.8,441.8z"/>
						<path class="st14" d="M-656.4,450.4l23.1-3.7c1.8-0.3,3-2,2.7-3.7l0,0c-0.3-1.8-2-3-3.7-2.7l-23.1,3.7c-1.8,0.3-3,2-2.7,3.7
							l0,0C-659.8,449.4-658.1,450.6-656.4,450.4z"/>
					</g>
					<path class="st14" d="M-649.1,429c-0.3,0-3.2,0-6.5-0.1c-5.6-0.1-11.1,1.1-16.1,3.6l-9.6,4.7c0,0,5.5,16.3,6.3,16.4
						c18.5,3.3,24.8-5.1,24.8-5.1L-649.1,429z"/>
				</g>
				<rect x="-671.6" y="428.9" class="st4" width="8.2" height="26.7"/>
			</g>
			<g>
				<path class="st33" d="M-725.5,458.5c-19.4,0-37.1-11.3-45.2-28.9l-0.4-0.9l-25.3-77.4l31.2-10.2l24.7,75.4
					c2.9,5.6,8.8,9.2,15.2,9.1l53.8-0.5l0.3,32.9l-53.8,0.5C-725.1,458.5-725.3,458.5-725.5,458.5z"/>
			</g>
			<g>
				<g>
					<path class="st14" d="M-549.8,426.6c-2-3.6-5-6.5-8.7-8.3c0,0-0.1,0-0.1,0c-5-2.5-10.5-3.7-16.1-3.6l-10.7,0.2
						c0,0-2.7,23.2-2.6,22.4c0.3-1.5,26.1-1.1,38-0.9c2.6,0.1,4.2-2.7,3-4.9L-549.8,426.6z"/>
				</g>
				<rect x="-591.9" y="413.1" class="st4" width="10.2" height="27.3"/>
			</g>
			<g>
				<path class="st35" d="M-641.8,443.5c-19.4,0-37.1-11.3-45.2-28.9l-36.5-79l29.8-13.8l36.5,79c2.8,6,8.8,9.9,15.5,9.8l53.8-0.5
					l0.3,32.9l-53.8,0.5C-641.5,443.5-641.7,443.5-641.8,443.5z"/>
			</g>
			<path class="st35" d="M-683.3,351.1l-0.6,69l-0.8,87.8c0,0-1.9,2.1-7.5,5.1c-4.9,2.6-12.6,5.8-24.3,8.8
				c-13.7,3.5-32.9,4.1-49.4,3.7c-18.1-0.4-32.9-2-32.9-2l0.4-172.4c0-24.3,17.6-44.4,40.7-48.5c2.8-0.5,5.6-0.7,8.6-0.7h16.6
				C-705.4,301.9-683.3,323.9-683.3,351.1z"/>
			<g>
				<g>
					<rect x="-760.1" y="577.4" class="st19" width="16.6" height="95.4"/>
					<path class="st18" d="M-760.1,582.8v20.9l16.6-6.1v-14.1C-747.6,583.3-755.6,583-760.1,582.8z"/>
				</g>
				<path class="st3" d="M-700.7,585.6h-99.5c-5.1,0-9.3-4.2-9.3-9.3l0,0c0-5.1,4.2-9.3,9.3-9.3h99.5c5.1,0,9.3,4.2,9.3,9.3l0,0
					C-691.4,581.5-695.6,585.6-700.7,585.6z"/>
				<g>
					<g>
						<path class="st3" d="M-681.4,703.6h-10.4c0-11.7-10.1-21.2-22.5-21.2H-790c-12.4,0-22.5,9.5-22.5,21.2h-10.4
							c0-17.1,14.8-31,32.9-31h75.7C-696.1,672.5-681.4,686.5-681.4,703.6z"/>
					</g>
					<rect x="-764" y="657.8" class="st3" width="24.3" height="14.9"/>
				</g>
				<g>
					<ellipse class="st16" cx="-818.1" cy="713" rx="8.6" ry="8.1"/>
					<path class="st1" d="M-805.7,712.3h-23.6v-2.2c0-6.1,4.9-11,11-11h1.6c6.1,0,11,4.9,11,11V712.3z"/>
					<ellipse class="st16" cx="-686.1" cy="713" rx="8.6" ry="8.1"/>
					<path class="st1" d="M-673.6,712.3h-23.6v-2.2c0-6.1,4.9-11,11-11h1.6c6.1,0,11,4.9,11,11V712.3z"/>
				</g>
				<rect x="-758.3" y="675.6" class="st3" width="13.8" height="29.4"/>
				<g>
					<ellipse class="st16" cx="-751.1" cy="713" rx="8.6" ry="8.1"/>
					<path class="st1" d="M-738.7,712.3h-23.6v-2.2c0-6.1,4.9-11,11-11h1.6c6.1,0,11,4.9,11,11V712.3z"/>
				</g>
			</g>
			<path class="st36" d="M-884.1,398l22.2,160.6c1.4,9.8,9.6,17.1,19.4,17.4l81.2,0.9l-45.1-202l-57.6,0
				C-876.3,374.9-885.8,385.8-884.1,398z"/>
			<path class="st37" d="M-665.3,576.9h-112.9c-9.6,0-17.5-7.9-17.5-17.5v0c0-9.6,7.9-17.5,17.5-17.5h112.9
				c9.6,0,17.5,7.9,17.5,17.5v0C-647.8,569.1-655.7,576.9-665.3,576.9z"/>
			<path class="st33" d="M-771.8,345.9c-2.2,31.7,4,145.9,5.9,179.6c-18.1-0.4-32.9-2-32.9-2l0.4-172.4c0-24.3,17.6-44.4,40.7-48.5
				C-757.7,302.6-769.2,308.6-771.8,345.9z"/>
			<polygon class="st4" points="-715.2,304.9 -766,304.9 -766,290.7 -715.2,296.7 			"/>
			<path class="st37" d="M-797.2,554.8l-23.6-164.7c-1.1-7.3,4.5-14.2,12.2-15.1l0,0c7.8-1,15,4.2,16.1,11.5l23.6,164.7
				c1.1,7.3-4.5,14.2-12.2,15.1l0,0C-788.9,567.4-792.9,572.9-797.2,554.8z"/>
			<path class="st33" d="M-683.9,420.1l-0.8,87.8c0,0-1.9,2.1-7.5,5.1l-11.7-132.3C-703.9,380.6-693.2,407.4-683.9,420.1z"/>
		</g>
	</g>
	<path class="st38" d="M-463.2,358.7l-5.8,32.5l-4.1,22.7c-2.3,1.1-4.8,1.6-7.5,1.6h-55c5.2-5.4,14-14.5,23.4-24.4
		c14.7-15.4,31-32.9,38.3-41.8L-463.2,358.7z"/>
</g>
<g>
	<path class="st21" d="M-493.4,442.6h108.9c0.6-0.9,1.1-1.9,1.4-2.9l24.4-87.9c1.2-4.2-2-8.3-6.3-8.3H-461c-3,0-5.5,2-6.3,4.8
		L-493.4,442.6z"/>
	<path class="st5" d="M-364.1,348.7l-24.3,87.8c-1.1,4.1-4.9,6.9-9.1,6.9h-102.1l27.2-98.3c0.8-2.8,3.4-4.8,6.3-4.8h95.7
		C-366,340.3-362.9,344.5-364.1,348.7z"/>
	<path class="st23" d="M-369.4,352.5l-19.9,71.6l-4.2,15h-101.3l4.2-15l20.8-74.9c0.7-2.6,3.1-4.4,5.9-4.4h88.7
		C-371.3,344.8-368.4,348.7-369.4,352.5z"/>
	<g>
		<g>
			<polygon class="st39" points="-429.1,354.6 -460.3,354.6 -459.6,352.4 -428.4,352.4 			"/>
			<polygon class="st7" points="-400.8,354.6 -415.6,354.6 -414.9,352.4 -400.1,352.4 			"/>
			<polygon class="st5" points="-379.5,354.6 -394.3,354.6 -393.6,352.4 -378.8,352.4 			"/>
			<polygon class="st6" points="-396,354.6 -399.5,354.6 -398.8,352.4 -395.3,352.4 			"/>
			<polygon class="st5" points="-417.3,354.6 -427.7,354.6 -427,352.4 -416.6,352.4 			"/>
		</g>
		<g>
			<polygon class="st21" points="-450.8,392 -436.1,392 -435.4,389.8 -450.1,389.8 			"/>
			<polygon class="st8" points="-472.2,392 -457.4,392 -456.7,389.8 -471.5,389.8 			"/>
			<polygon class="st6" points="-455.6,392 -452.2,392 -451.5,389.8 -455,389.8 			"/>
		</g>
		<g>
			<polygon class="st7" points="-451.6,363.9 -463.3,363.9 -462.6,361.7 -450.9,361.7 			"/>
			<polygon class="st6" points="-423.3,363.9 -428.3,363.9 -427.6,361.7 -422.6,361.7 			"/>
			<polygon class="st7" points="-382.5,363.9 -407,363.9 -406.3,361.7 -381.8,361.7 			"/>
			<polygon class="st6" points="-408.7,363.9 -422,363.9 -421.3,361.7 -408,361.7 			"/>
			<polygon class="st6" points="-430,363.9 -450.1,363.9 -449.4,361.7 -429.3,361.7 			"/>
		</g>
		<g>
			<polygon class="st10" points="-469.4,420.1 -481,420.1 -480.4,417.9 -468.7,417.9 			"/>
		</g>
		<g>
			<polygon class="st21" points="-454.5,373.3 -466.2,373.3 -465.5,371.1 -453.8,371.1 			"/>
			<polygon class="st21" points="-435.5,373.3 -447.1,373.3 -446.5,371.1 -434.8,371.1 			"/>
			<polygon class="st6" points="-388.7,373.3 -408.8,373.3 -408.1,371.1 -388,371.1 			"/>
		</g>
		<g>
			<polygon class="st6" points="-469.2,382.6 -449.1,382.6 -448.4,380.4 -468.5,380.4 			"/>
		</g>
	</g>
	<polygon class="st5" points="-388,424.2 -392.3,439.2 -496.2,439.2 -491.9,424.2 	"/>
	<g>
		<path class="st5" d="M-443.9,443.7h-124.4c-2.9,0-5.3-2.4-5.3-5.3l0,0c0-2.9,2.4-5.3,5.3-5.3h124.4c2.9,0,5.3,2.4,5.3,5.3l0,0
			C-438.7,441.3-441,443.7-443.9,443.7z"/>
	</g>
	<polygon class="st40" points="-395,340.3 -397.1,344.8 -433.3,424.1 -437,432.3 -476.2,432.3 -472.4,424.1 -436.2,344.8 
		-434.1,340.3 	"/>
	<polygon class="st40" points="-510.1,266.2 -563.9,384 -621.5,384 -567.7,266.2 	"/>
	<g>
		<g>
			<path class="st21" d="M-396.8,443.3h-72c-2.9,0-5.3-2.4-5.3-5.3l0,0c0-2.9,2.4-5.3,5.3-5.3h72c2.9,0,5.3,2.4,5.3,5.3l0,0
				C-391.5,441-393.9,443.3-396.8,443.3z"/>
		</g>
		<g>
			<rect x="-432.9" y="436.3" class="st16" width="10.3" height="3.1"/>
			<rect x="-443.5" y="436.3" class="st16" width="7.5" height="3.1"/>
		</g>
	</g>
</g>
<g>
	<g>
		<path class="st41" d="M-498.1,400.5v43.1h-36v-43.1c0-1.9,1.5-3.4,3.4-3.4h29.1C-499.7,397.1-498.1,398.6-498.1,400.5z"/>
		<g>
			<path class="st7" d="M-533.7,436.2c-0.5-0.3-11.5-6.7-12.5-18.1c-0.4-4.3,1.3-7,2.7-8.5c4-4.1,10.5-3.8,11.3-3.8l-0.3,5.3
				c-1.3-0.1-5.3,0.2-7.2,2.2c-1,1-1.4,2.5-1.2,4.4c0.8,8.6,9.8,13.9,9.9,14L-533.7,436.2z"/>
		</g>
	</g>
	<path class="st7" d="M-514.9,443.6h-19.2v-43.1c0-1.9,1.5-3.4,3.4-3.4h1.2c0.1,2.2,0.7,19.4,5.5,31.8
		C-519.8,439.6-516.1,442.8-514.9,443.6z"/>
	<path class="st42" d="M-546.2,418.1c0.9,10.2,9.9,16.5,12.1,17.8v7.7h19.2c-1.1-0.8-4.9-3.9-9.1-14.7c-4.8-12.4-5.4-29.6-5.5-31.8
		h-1.2c-1.9,0-3.4,1.5-3.4,3.4v5.4c-2.4,0.2-6.5,0.9-9.4,3.8C-544.9,411.1-546.5,413.8-546.2,418.1z M-539.7,413.3
		c1.4-1.4,3.8-2,5.6-2.2v18.2c-2.7-2.3-6.3-6.4-6.8-11.7C-541.1,415.8-540.7,414.3-539.7,413.3z"/>
</g>
<g>
	<g>
		
			<rect x="-913.9" y="362.8" transform="matrix(0.9847 0.1743 -0.1743 0.9847 54.2424 164.8849)" class="st43" width="4.1" height="57.1"/>
		
			<rect x="-911.2" y="361.7" transform="matrix(0.9847 0.1743 -0.1743 0.9847 50.6293 163.9022)" class="st43" width="6.4" height="17.2"/>
	</g>
	<g>
		<polygon class="st44" points="-921.6,427 -925.7,426.7 -920.9,369.7 -918.4,366.1 -916.8,370.1 		"/>
	</g>
	<g>
		<polygon class="st45" points="-927.3,429.9 -931.3,430.7 -942.3,374.6 -940.9,370.4 -938.2,373.8 		"/>
	</g>
	<g>
		<polygon class="st46" points="-918.1,443 -935.8,443 -941.6,396.1 -912.3,396.1 		"/>
		<polygon class="st47" points="-911.5,443 -929.2,443 -931.8,396.1 -905.7,396.1 		"/>
	</g>
</g>
<g>
	<g>
		<path class="st37" d="M-365.2,513.6v25.8h90c5.6,0,10.4-3.6,12.1-8.6c0.5-1.3,0.7-2.8,0.7-4.3c0-3.5-1.4-6.8-3.8-9.1
			c-2.3-2.3-5.6-3.8-9.1-3.8H-365.2z"/>
		<path class="st42" d="M-345,530.8v8.6h69.9c5.6,0,10.4-3.6,12.1-8.6H-345z"/>
		<path class="st36" d="M-384.4,513.5l0,25.8l59,0c7.1,0,12.9-5.8,12.9-12.9c0-3.6-1.4-6.8-3.8-9.1c-2.3-2.3-5.6-3.8-9.1-3.8
			L-384.4,513.5z"/>
		<path class="st4" d="M-384.4,518l0,16.5l55.6,0c4.6,0,8.3-3.7,8.3-8.3c0-2.3-0.9-4.3-2.4-5.8c-1.5-1.5-3.6-2.4-5.9-2.4L-384.4,518
			z"/>
	</g>
	<g>
		<path class="st48" d="M-366.9,462.3v25.8l90,0c7.1,0,12.9-5.8,12.9-12.9c0-3.6-1.4-6.8-3.8-9.1c-2.3-2.3-5.6-3.8-9.1-3.8
			L-366.9,462.3z"/>
		<path class="st49" d="M-346.5,470.9v-8.6h69.9c5.6,0,10.4,3.6,12.1,8.6H-346.5z"/>
		<path class="st50" d="M-384.4,462.3v25.8l59,0c7.1,0,12.9-5.8,12.9-12.9c0-3.6-1.4-6.8-3.8-9.1c-2.3-2.3-5.6-3.8-9.1-3.8
			L-384.4,462.3z"/>
		<path class="st4" d="M-384.4,466.7v16.5l55.6,0c4.6,0,8.3-3.7,8.3-8.3c0-2.3-0.9-4.3-2.4-5.8c-1.5-1.5-3.6-2.4-5.9-2.4
			L-384.4,466.7z"/>
	</g>
	<g>
		<path class="st9" d="M-371.6,488.2V514h90c7.1,0,12.9-5.8,12.9-12.9c0-2.2-0.5-4.3-1.5-6.1c-0.6-1.1-1.4-2.2-2.3-3.1
			c-2.3-2.3-5.6-3.8-9.1-3.8H-371.6z"/>
		<path class="st51" d="M-369.2,488.2v6.8h99c-0.6-1.1-1.4-2.2-2.3-3.1c-2.3-2.3-5.6-3.8-9.1-3.8H-369.2z"/>
		<path class="st51" d="M-369.2,514v-6.8l99,0c-0.6,1.1-1.4,2.2-2.3,3.1c-2.3,2.3-5.6,3.8-9.1,3.8L-369.2,514z"/>
		<path class="st52" d="M-395.1,488.2V514l54,0c7.1,0,12.9-5.8,12.9-12.9c0-3.6-1.4-6.8-3.8-9.1c-2.3-2.3-5.6-3.8-9.1-3.8
			L-395.1,488.2z"/>
		<path class="st4" d="M-395.1,492.7v16.5l50.6,0c4.6,0,8.3-3.7,8.3-8.3c0-2.3-0.9-4.3-2.4-5.8c-1.5-1.5-3.6-2.4-5.8-2.4
			L-395.1,492.7z"/>
	</g>
</g>
<g>
	<g>
		<g>
			<path class="st16" d="M-357.7,336.8L-357.7,336.8c-4.3-4.6-3.9-11.7,0.8-15.8l0.5-0.5c4.8-4.2,12.1-3.8,16.4,0.8v0
				c4.3,4.6,3.9,11.7-0.8,15.8l-0.5,0.5C-346,341.8-353.4,341.4-357.7,336.8z"/>
			<path class="st31" d="M-348.5,359.1l-11.3,9.9l-32.2-34.3l11.3-9.9c7.9-6.8,19.1-7.7,27.9-3c2.2,1.2,4.2,2.7,6,4.7
				c4.4,4.7,6.5,10.8,6.2,16.7C-341,349.1-343.6,354.8-348.5,359.1z"/>
			<path class="st8" d="M-358.8,348.2l-11.3,9.9l-21.9-23.4l11.3-9.9c7.9-6.8,19.1-7.7,27.9-3c1.5,3.3,2.2,6.9,2,10.4
				C-351.2,338.1-353.9,343.9-358.8,348.2z"/>
		</g>
		<path class="st5" d="M-359.3,368.9c-3.4,3.1-13.5-2-22.6-11.4c-9-9.4-13.6-19.4-10.2-22.5c2.7-2.4,9.6,0.3,16.8,6.1
			c1.9,1.6,3.9,3.3,5.7,5.3c2.2,2.3,4.1,4.6,5.8,6.9C-358.7,360.2-356.7,366.5-359.3,368.9z"/>
		<path class="st4" d="M-363.7,353.2c-2.6,2.9-7.1,3.7-10.7,1.7c-4.1-2.2-5.6-7.3-3.2-11.3c0.6-1.1,1.5-1.9,2.4-2.6
			c1.9,1.6,3.9,3.3,5.7,5.3C-367.3,348.6-365.3,351-363.7,353.2z"/>
	</g>
	<polyline class="st53" points="-300.5,447.8 -271.1,353 -330.6,313.4 -343.1,324 	"/>
	<g>
		<ellipse class="st16" cx="-331.4" cy="313.9" rx="7.3" ry="7"/>
		<ellipse class="st10" cx="-331.4" cy="313.9" rx="3.7" ry="3.5"/>
	</g>
	<path class="st10" d="M-270.9,462.6h-75.7l0,0c0-8.3,6.7-15,15-15h45.6C-277.6,447.6-270.9,454.3-270.9,462.6L-270.9,462.6z"/>
	<rect x="-331" y="443.8" class="st16" width="13.7" height="4.1"/>
	<g>
		<ellipse class="st16" cx="-271.7" cy="353.9" rx="10.2" ry="9.9"/>
		<ellipse class="st10" cx="-271.7" cy="353.9" rx="5.1" ry="4.9"/>
	</g>
</g>
<g>
	<g>
		<path class="st54" d="M-206,468.2c-11.1,15.1-33.4,17.6-33.4,17.6s-4.3-22,6.8-37.1c11.1-15.1,33.4-17.6,33.4-17.6
			S-194.9,453.1-206,468.2z"/>
		<path class="st55" d="M-252.6,459.2c10.2,10,9.6,27.1,9.6,27.1s-17,0.8-27.2-9.2c-10.2-10-9.6-27.1-9.6-27.1
			S-262.8,449.1-252.6,459.2z"/>
		<path class="st56" d="M-227.4,451.6c2.1,18.6-12.6,35.6-12.6,35.6s-18-13.3-20.1-31.9c-2.1-18.6,12.6-35.6,12.6-35.6
			S-229.4,433-227.4,451.6z"/>
	</g>
	<g>
		<polygon class="st57" points="-228.7,538.6 -267.4,538.6 -280,482.3 -216.1,482.3 		"/>
		<polygon class="st34" points="-214.2,538.6 -252.8,538.6 -258.5,482.3 -201.5,482.3 		"/>
	</g>
</g>
<g id="XMLID_28_">
	<g id="XMLID_1456_">
		<path id="XMLID_43_" class="st58" d="M1051.7,365l-92.9-29.8v-100l92.8-34.7l90.2,35.7v99.9L1051.7,365z M965.8,330.1l85.9,27.5
			l83.1-26.5V241l-83.3-33l-85.7,32V330.1z"/>
	</g>
	<g id="XMLID_1455_">
		
			<rect id="XMLID_27_" x="977.1" y="279.3" transform="matrix(1.060534e-003 1 -1 1.060534e-003 1337.3333 -773.1036)" class="st58" width="157" height="7"/>
	</g>
	<g id="XMLID_1454_">
		<rect id="XMLID_26_" x="1082.8" y="267.7" class="st58" width="7" height="32"/>
	</g>
	<g id="XMLID_1453_">
		<rect id="XMLID_25_" x="1012.8" y="261.7" class="st58" width="43" height="7"/>
	</g>
	<g id="XMLID_1452_">
		<rect id="XMLID_24_" x="965.8" y="305.7" class="st58" width="41" height="7"/>
	</g>
</g>
<g>
	<line class="st0" x1="843.6" y1="705.3" x2="63.7" y2="705.3"/>
	<g>
		<rect x="664.6" y="302.2" class="st1" width="66.1" height="142.2"/>
		<g>
			<path class="st2" d="M804.2,394.6h-212V257.7c0-4.8,3.9-8.7,8.7-8.7h194.7c4.8,0,8.7,3.9,8.7,8.7V394.6z"/>
			<path class="st2" d="M783.8,415.8H608.5c-10.1,0-18.3-8.2-18.3-18.3v-7h212v7C802.1,407.6,793.9,415.8,783.8,415.8z"/>
			<path class="st3" d="M584.7,257.6v136.9l52-0.8l54.5-0.9l17.2-0.3l55-0.9l33.3-0.5V257.6c0-4.8-3.9-8.7-8.7-8.7H593.4
				C588.6,249,584.7,252.9,584.7,257.6z"/>
			<path class="st4" d="M788.8,261.5v120.8c0,0.4-0.4,0.8-0.8,0.8H593.4c-0.4,0-0.8-0.4-0.8-0.8V261.5c0-0.4,0.4-0.8,0.8-0.8H788
				C788.5,260.7,788.8,261.1,788.8,261.5z"/>
			<path class="st5" d="M778.4,415.8H603.1c-10.1,0-18.3-8.2-18.3-18.3v-7h212v7C796.7,407.6,788.5,415.8,778.4,415.8z"/>
		</g>
		<path class="st5" d="M732.4,445h-88.6c-2.7,0-4.9-2.2-4.9-4.9l0,0c0-2.7,2.2-4.9,4.9-4.9h88.6c2.7,0,4.9,2.2,4.9,4.9l0,0
			C737.3,442.8,735.1,445,732.4,445z"/>
		<g>
			<path class="st6" d="M601.9,282h174.3c1.5,0,2.6-1.2,2.6-2.6v-10.2c0-1.5-1.2-2.6-2.6-2.6H601.9c-1.5,0-2.6,1.2-2.6,2.6v10.2
				C599.3,280.8,600.5,282,601.9,282z"/>
			<g>
				<g>
					<ellipse class="st7" cx="768.6" cy="274" rx="3.3" ry="3.4"/>
				</g>
			</g>
			<g>
				<g>
					<ellipse class="st8" cx="756.6" cy="274" rx="3.3" ry="3.4"/>
				</g>
			</g>
			<g>
				<g>
					<ellipse class="st9" cx="744.6" cy="274" rx="3.3" ry="3.4"/>
				</g>
			</g>
			<path class="st10" d="M719.5,309h58.2c0.9,0,1.6-0.7,1.6-1.6v-17.8c0-0.9-0.7-1.6-1.6-1.6h-58.2c-0.9,0-1.6,0.7-1.6,1.6v17.8
				C717.9,308.3,718.6,309,719.5,309z"/>
			<path class="st11" d="M648,335.5h58.2c0.9,0,1.6-0.7,1.6-1.6v-17.8c0-0.9-0.7-1.6-1.6-1.6H648c-0.9,0-1.6,0.7-1.6,1.6v17.8
				C646.4,334.8,647.1,335.5,648,335.5z"/>
			<path class="st11" d="M600.9,309h35.2c0.9,0,1.6-0.7,1.6-1.6v-17.8c0-0.9-0.7-1.6-1.6-1.6h-35.2c-0.9,0-1.6,0.7-1.6,1.6v17.8
				C599.3,308.3,600,309,600.9,309z"/>
			<path class="st7" d="M600.9,335.9h35.2c0.9,0,1.6-0.7,1.6-1.6v-17.8c0-0.9-0.7-1.6-1.6-1.6h-35.2c-0.9,0-1.6,0.7-1.6,1.6v17.8
				C599.3,335.2,600,335.9,600.9,335.9z"/>
			<g>
				<rect x="646" y="304.9" class="st1" width="61.4" height="1.5"/>
				<rect x="646" y="299.5" class="st1" width="61.4" height="1.5"/>
				<rect x="646" y="294.2" class="st1" width="61.4" height="1.5"/>
				<rect x="646" y="288.8" class="st1" width="61.4" height="1.5"/>
			</g>
			<path class="st7" d="M719.5,361.5h58.2c0.9,0,1.6-0.7,1.6-1.6v-17.8c0-0.9-0.7-1.6-1.6-1.6h-58.2c-0.9,0-1.6,0.7-1.6,1.6v17.8
				C717.9,360.8,718.6,361.5,719.5,361.5z"/>
			<g>
				<rect x="646" y="357.3" class="st1" width="61.4" height="1.5"/>
				<rect x="646" y="352" class="st1" width="61.4" height="1.5"/>
				<rect x="646" y="346.6" class="st1" width="61.4" height="1.5"/>
				<rect x="646" y="341.3" class="st1" width="61.4" height="1.5"/>
			</g>
			<g>
				<rect x="718.1" y="330.5" class="st1" width="61.4" height="1.5"/>
				<rect x="718.1" y="325.1" class="st1" width="61.4" height="1.5"/>
				<rect x="718.1" y="319.8" class="st1" width="61.4" height="1.5"/>
				<rect x="718.1" y="314.5" class="st1" width="61.4" height="1.5"/>
			</g>
		</g>
		<polygon class="st12" points="625.5,249 691.2,390.7 763.4,390.7 698.3,249 		"/>
	</g>
	<path class="st13" d="M577.9,178.4l-13.6,8.4c-9.8,6.1-13.3,18.7-8.1,29c1,2,1.7,3.4,1.6,3.2c-0.5-0.6,20.8-40.4,20.8-40.4"/>
	<path class="st14" d="M613.2,308.3h7c6.4,0,11.7-5.3,11.7-11.7v-33c0-6.4-5.3-11.7-11.7-11.7h-7c-6.4,0-11.7,5.3-11.7,11.7v33
		C601.5,303,606.8,308.3,613.2,308.3z"/>
	<path class="st13" d="M558.1,219.1c-0.3,2.7,12.1,7.2,12.3,10l-2,5.6c15.3-5.5,1.8,2.9,1.8,2.9c4.5,13.5,3,20.9,15.9,26.1
		c6.5,2.6,13.6,3.7,21,3.2c9.9-0.7,18.7,2.4,25.9-1c1.5-0.7,2.9-1.7,4.2-3c2.5-2.5,4.8-5.3,6.7-8.3c0.7-1.2,1.4-2.4,2.1-3.6
		c3.9-7.6,11.9-29.7,11.3-38.8c-1.8-25.7-26.4-42.9-54.8-41c-0.7,0.1-1.4,0.1-2.2,0.1c-15.3,1.1-28.4,9.2-36.4,21
		c-0.4,0.6-0.8,1.3-1.2,1.9c0,0,0,0,0,0c-2.3,3.7-3.5,19.8-3.5,19.8C558.6,215.6,558.3,217.3,558.1,219.1z"/>
	<path class="st15" d="M559.2,227.3l0.4,7.1l0.6,11.7l1,4.1c0.1,1.8,1,11.5,1.4,13.3c3.2,16.6,14.1,20.1,31,22.2
		c0.5,0.1,1,0.1,1.5,0.1c1.8,0.2,3.6,0.2,5.5,0.1c1.8-0.1,3.6-0.3,5.3-0.6c3.4-0.6,6.6-1.7,9.6-3.1c0,0,0,0,0,0
		c7.5-3.5,13.6-9.3,17.6-16.3c3-5.3,4.8-11.4,5-17.8c0-0.4,0-0.9,0-1.3c0-0.5,0-1,0-1.6v-0.3l0-1.3l-0.2-3.3l-0.6-11.5l0-0.1v0
		l-0.1-2.1l-0.1-1.7l-0.1-1.5l0-0.4c-0.2-2.7-0.7-5.2-1.5-7.7c-0.5-1.7-1.2-3.4-1.9-5c-0.1-0.3-0.2-0.5-0.3-0.7
		c-0.6-1.3-1.3-2.6-2-3.9c0,0,0,0,0,0c-2.8-4.8-6.7-8.9-11.2-12c-0.9-0.6-1.8-1.3-2.8-1.8c-6.6-3.9-14.3-5.9-22.5-5.5
		c-6.8,0.4-11.8,2.4-17.3,5.7c-3.3,2-6.3,4.4-8.9,7.3c-3.7,4-6,8.7-7.8,13.8c-0.1,0.3-0.2,0.6-0.3,0.9c-0.5,1.7-0.9,3.4-1.1,5.2
		C559.1,221.7,559,224.5,559.2,227.3z"/>
	<path class="st13" d="M573.4,192.3c-8.3,22.8,13.5,20.9,14.5,31.4c0.1,1.2,0.5,2.9,0.8,11.5l1.7,5.4c0.5,1.7,2,2.8,3.8,2.8
		c2.2,0,3.9-1.8,3.9-3.9v-0.1l-0.2-8.5l4.2,11.3c3.1,8.1,7.7,15.5,13.6,21.7c4.9,5.1,10.6,9.5,16.9,12.8c0,0,26.6-15.8,26.6-51.9
		c0-2.9-0.2-5.9-0.5-9c-0.3-2.8-0.8-5.4-1.4-7.9c-11-44.8-66.1-29.5-71.4-27.5C580.4,182.4,573.4,192.3,573.4,192.3z"/>
	<path class="st15" d="M554.5,251.5c0,0.1,0,0.6,0,0.6c0.1,2.5,2.2,4.4,7.5,4.3l-0.7-19.3C557,243.6,554.9,247.4,554.5,251.5z"/>
	<path class="st13" d="M557.4,228.2h11.8c1.4,0,2.5-1.1,2.5-2.5l0,0c0-1.4-1.1-2.5-2.5-2.5h-11.8c-1.4,0-2.5,1.1-2.5,2.5v0
		C554.9,227,556,228.2,557.4,228.2z"/>
	<path class="st16" d="M564,237L564,237c1,0,1.8-0.8,1.8-1.8v-2.6c0-1-0.8-1.8-1.8-1.8l0,0c-1,0-1.8,0.8-1.8,1.8v2.6
		C562.2,236.2,563,237,564,237z"/>
	<path class="st17" d="M615.8,263.8c4.9,5.1,10.6,9.5,16.9,12.8c0,0,26.6-15.8,26.6-51.9c0-2.9-0.2-5.9-0.5-9
		c-0.3-2.8-0.8-5.4-1.4-7.9c-1.2,6.9-4.3,17.3-12.2,30.1C633.2,257.5,620.1,262.6,615.8,263.8z"/>
	<path class="st13" d="M562.1,262.3l0.4,13.5c0,11.5,13.6,16.1,23.7,15l16.1-1.7l-1.6-13.9l-4.4-26.7l7.1-19.9l-14.6,6.1l0,0
		c1.1,15.8-10.2,28.6-26.1,27.9L562.1,262.3z"/>
	<rect x="609.9" y="521.2" class="st16" width="92.6" height="17.1"/>
	<line class="st10" x1="734.1" y1="680.5" x2="734.1" y2="687"/>
	<rect x="263.6" y="522.7" class="st18" width="84.8" height="17.1"/>
	<rect x="258" y="464.6" class="st18" width="19.3" height="240.5"/>
	<rect x="335.4" y="463.1" class="st19" width="19.3" height="241.9"/>
	<rect x="335.4" y="453.4" class="st18" width="19.3" height="103.2"/>
	<rect x="726.3" y="522.7" class="st18" width="84.8" height="17.1"/>
	<rect x="720.6" y="464.6" class="st18" width="19.3" height="240.5"/>
	<rect x="798.1" y="463.1" class="st18" width="19.3" height="241.9"/>
	<rect x="396.8" y="303.1" class="st20" width="63.7" height="137"/>
	<path class="st21" d="M329.1,395h209.3V267.2c0-4.6-3.7-8.4-8.4-8.4H337.4c-4.6,0-8.4,3.7-8.4,8.4V395z"/>
	<path class="st21" d="M348.7,415.5h174c9.7,0,17.6-7.9,17.6-17.6v-6.8H331.1v6.8C331.1,407.6,339,415.5,348.7,415.5z"/>
	<path class="st22" d="M336.3,267.2V395h209.3V267.2c0-4.6-3.7-8.3-8.4-8.3H344.6C340,258.9,336.3,262.6,336.3,267.2z"/>
	<path class="st23" d="M343.9,266.9v116.3c0,0.4,0.4,0.8,0.8,0.8h192.5c0.4,0,0.8-0.4,0.8-0.8V266.9c0-0.4-0.4-0.8-0.8-0.8H344.7
		C344.3,266.2,343.9,266.5,343.9,266.9z"/>
	<path class="st24" d="M336.3,391.1v6.8c0,7.1,4.2,13.2,10.2,16c2.3,1.1,4.8,1.6,7.5,1.6h174c9.7,0,17.6-7.9,17.6-17.6v-6.8H336.3z"
		/>
	<rect x="461.7" y="280.5" class="st6" width="65" height="2.3"/>
	<rect x="402.7" y="280.5" class="st21" width="30.8" height="2.3"/>
	<rect x="358.3" y="280.5" class="st8" width="30.8" height="2.3"/>
	<rect x="392.7" y="280.5" class="st6" width="7.3" height="2.3"/>
	<rect x="437.1" y="280.5" class="st7" width="21.6" height="2.3"/>
	<rect x="461.7" y="338.2" class="st6" width="65" height="2.3"/>
	<rect x="402.7" y="338.2" class="st21" width="30.8" height="2.3"/>
	<rect x="358.3" y="338.2" class="st8" width="30.8" height="2.3"/>
	<rect x="392.7" y="338.2" class="st6" width="7.3" height="2.3"/>
	<rect x="437.1" y="338.2" class="st5" width="21.6" height="2.3"/>
	<rect x="358.3" y="319" class="st6" width="65" height="2.3"/>
	<rect x="451.5" y="319" class="st21" width="30.8" height="2.3"/>
	<rect x="495.9" y="319" class="st8" width="30.8" height="2.3"/>
	<rect x="485" y="319" class="st6" width="7.3" height="2.3"/>
	<rect x="426.3" y="319" class="st5" width="21.6" height="2.3"/>
	<rect x="502.4" y="290.1" class="st7" width="24.4" height="2.3"/>
	<rect x="443.4" y="290.1" class="st6" width="10.5" height="2.3"/>
	<rect x="358.3" y="290.1" class="st21" width="51.1" height="2.3"/>
	<rect x="413" y="290.1" class="st6" width="27.6" height="2.3"/>
	<rect x="457.4" y="290.1" class="st6" width="41.9" height="2.3"/>
	<rect x="502.4" y="347.8" class="st6" width="24.4" height="2.3"/>
	<rect x="443.4" y="347.8" class="st6" width="10.5" height="2.3"/>
	<rect x="358.3" y="347.8" class="st6" width="51.1" height="2.3"/>
	<rect x="413" y="347.8" class="st6" width="27.6" height="2.3"/>
	<rect x="457.4" y="347.8" class="st6" width="41.9" height="2.3"/>
	<rect x="502.4" y="328.6" class="st7" width="24.4" height="2.3"/>
	<rect x="443.4" y="328.6" class="st6" width="10.5" height="2.3"/>
	<rect x="358.3" y="328.6" class="st21" width="51.1" height="2.3"/>
	<rect x="413" y="328.6" class="st6" width="27.6" height="2.3"/>
	<rect x="457.4" y="328.6" class="st6" width="41.9" height="2.3"/>
	<rect x="502.4" y="299.7" class="st21" width="24.4" height="2.3"/>
	<rect x="457.4" y="299.7" class="st6" width="41.9" height="2.3"/>
	<rect x="457.4" y="309.3" class="st21" width="24.4" height="2.3"/>
	<rect x="484.8" y="309.3" class="st6" width="41.9" height="2.3"/>
	<path class="st25" d="M398.3,443.6h85.3c2.6,0,4.7-2.1,4.7-4.7v0c0-2.6-2.1-4.7-4.7-4.7h-85.3c-2.6,0-4.7,2.1-4.7,4.7v0
		C393.5,441.5,395.6,443.6,398.3,443.6z"/>
	<path class="st31" d="M241.5,464.4h269.1v-13.9c0-4.2-3.4-7.6-7.6-7.6H249.1c-4.2,0-7.6,3.4-7.6,7.6V464.4z"/>
	<path class="st59" d="M319.9,450.5v13.9H838v-13.9c0-4.2-3.4-7.6-7.6-7.6H327.6C323.3,442.9,319.9,446.3,319.9,450.5z"/>
	<path class="st59" d="M469.8,442.9c4.1,6.7,9,14.7,13.2,21.5h126.8l-1.7-21.5H469.8z"/>
	<rect x="81.4" y="490.3" class="st31" width="133.1" height="214.7"/>
	<rect x="130.9" y="490.3" class="st59" width="130.8" height="214.7"/>
	<rect x="139.1" y="550.7" class="st31" width="124.1" height="45.1"/>
	<rect x="139.1" y="603.7" class="st31" width="124.1" height="45.1"/>
	<rect x="139.1" y="656.6" class="st31" width="124.1" height="48.4"/>
	<path class="st4" d="M223.7,575.7h-31c-1.3,0-2.4-1.1-2.4-2.4l0,0c0-1.3,1.1-2.4,2.4-2.4h31c1.3,0,2.4,1.1,2.4,2.4l0,0
		C226.2,574.6,225.1,575.7,223.7,575.7z"/>
	<rect x="139.1" y="498.8" class="st31" width="124.1" height="45.1"/>
	<path class="st4" d="M223.7,523.8h-31c-1.3,0-2.4-1.1-2.4-2.4l0,0c0-1.3,1.1-2.4,2.4-2.4h31c1.3,0,2.4,1.1,2.4,2.4l0,0
		C226.2,522.7,225.1,523.8,223.7,523.8z"/>
	<path class="st4" d="M225,628.3h-31c-1.3,0-2.4-1.1-2.4-2.4l0,0c0-1.3,1.1-2.4,2.4-2.4h31c1.3,0,2.4,1.1,2.4,2.4l0,0
		C227.4,627.2,226.3,628.3,225,628.3z"/>
	<path class="st4" d="M225,680.9h-31c-1.3,0-2.4-1.1-2.4-2.4v0c0-1.3,1.1-2.4,2.4-2.4h31c1.3,0,2.4,1.1,2.4,2.4l0,0
		C227.4,679.8,226.3,680.9,225,680.9z"/>
	<path class="st59" d="M565.3,715.3l-62.2,0.7c-3.7,0-6.7-2.9-6.8-6.6l0,0c0-2.9,1.7-5.4,4.4-6.4l30.7-11.1l33.6,0.5L565.3,715.3z"
		/>
	<path class="st16" d="M501.9,717.7l63-0.2l0-4.5l-67.5,0.2l0,0C497.4,715.7,499.4,717.7,501.9,717.7z"/>
	<line class="st32" x1="532.2" y1="700.9" x2="524.9" y2="693.1"/>
	<line class="st32" x1="526.9" y1="703.2" x2="519.6" y2="695.4"/>
	<line class="st32" x1="521.8" y1="706.2" x2="513.5" y2="697.4"/>
	<path class="st33" d="M567.4,694.8c-3.6-60.7-2.6-116.8,2.1-128.1c4.8-7.1,42.6-22.3,80.4-24l-17.7-38.6
		c-49.5,2.5-84.9,21.1-97.3,42.3c-5.2,9-9.8,27-7.3,88.9c1.3,32.4,2.9,57.8,2.9,57.8L567.4,694.8z"/>
	<path class="st34" d="M509.9,716.8l-62.2,0.4c-3.7,0-6.7-3-6.8-6.7l0,0c0-2.9,1.8-5.4,4.5-6.4l30.7-10.9l33.6,0.6L509.9,716.8z"/>
	<path class="st16" d="M446.5,719l64,0l0-4.5l-68.5,0l0,0C442,716.9,444,719,446.5,719z"/>
	<line class="st32" x1="476.9" y1="702.3" x2="469.6" y2="694.5"/>
	<line class="st32" x1="471.6" y1="704.6" x2="464.3" y2="696.8"/>
	<line class="st32" x1="466.4" y1="707.6" x2="458.2" y2="698.8"/>
	<path class="st33" d="M512.2,694.8c-3.6-60.7-2.6-116.8,2.1-128.1c4.8-7.1,42.6-22.3,80.4-24L577,504.1
		c-49.5,2.5-84.9,21.1-97.3,42.3c-5.2,9-9.8,27-7.3,88.9c1.3,32.4,2.9,57.8,2.9,57.8L512.2,694.8z"/>
	<path class="st33" d="M565.4,515.2c0,6.8,2.4,13,6.4,17.9c5.1,6.2,12.9,10.2,21.7,10.2h47.2c1.4,0,2.8-0.1,4.1-0.3
		c3.5-0.5,6.7-1.6,9.6-3.3c0.5-0.3,1-0.6,1.5-0.9c7.7-5,12.8-13.7,12.8-23.5l-0.9-15l-101.7-0.9L565.4,515.2z"/>
	<path class="st14" d="M533,435.2l-24.3-3.9c-1.8-0.3-3-2-2.7-3.7l0,0c0.3-1.8,2-3,3.7-2.7l24.3,3.9c1.8,0.3,3,2,2.7,3.7l0,0
		C536.4,434.3,534.8,435.5,533,435.2z"/>
	<path class="st14" d="M525.2,441.8l-19.5-3.1c-1.8-0.3-3-2-2.7-3.7l0,0c0.3-1.8,2-3,3.7-2.7l19.5,3.1c1.8,0.3,3,2,2.7,3.7l0,0
		C528.7,440.9,527,442.1,525.2,441.8z"/>
	<path class="st14" d="M529.8,450.4l-23.1-3.7c-1.8-0.3-3-2-2.7-3.7l0,0c0.3-1.8,2-3,3.7-2.7l23.1,3.7c1.8,0.3,3,2,2.7,3.7l0,0
		C533.2,449.4,531.5,450.6,529.8,450.4z"/>
	<path class="st14" d="M522.5,429c0.3,0,3.2,0,6.5-0.1c5.6-0.1,11.1,1.1,16.1,3.6l9.6,4.7c0,0-5.5,16.3-6.3,16.4
		c-18.5,3.3-24.8-5.1-24.8-5.1L522.5,429z"/>
	<rect x="536.8" y="428.9" class="st4" width="8.2" height="26.7"/>
	<path class="st33" d="M598.8,458.5c19.4,0,37.1-11.3,45.2-28.9l0.4-0.9l25.3-77.4l-31.2-10.2l-24.7,75.4c-2.9,5.6-8.8,9.2-15.2,9.1
		l-53.8-0.5l-0.3,32.9l53.8,0.5C598.5,458.5,598.7,458.5,598.8,458.5z"/>
	<path class="st14" d="M423.2,426.6c2-3.6,5-6.5,8.7-8.3c0,0,0.1,0,0.1,0c5-2.5,10.5-3.7,16.1-3.6l10.7,0.2c0,0,2.7,23.2,2.6,22.4
		c-0.3-1.5-26.1-1.1-38-0.9c-2.6,0.1-4.2-2.7-3-4.9L423.2,426.6z"/>
	<rect x="455.1" y="413.1" class="st4" width="10.2" height="27.3"/>
	<path class="st35" d="M515.2,443.5c19.4,0,37.1-11.3,45.2-28.9l36.5-79l-29.8-13.8l-36.5,79c-2.8,6-8.8,9.9-15.5,9.8l-53.8-0.5
		l-0.3,32.9l53.8,0.5C514.9,443.5,515.1,443.5,515.2,443.5z"/>
	<path class="st35" d="M556.7,351.1l0.6,69l0.8,87.8c0,0,1.9,2.1,7.5,5.1c4.9,2.6,12.6,5.8,24.3,8.8c13.7,3.5,32.9,4.1,49.4,3.7
		c18.1-0.4,32.9-2,32.9-2l-0.4-172.4c0-24.3-17.6-44.4-40.7-48.5c-2.8-0.5-5.6-0.7-8.6-0.7h-16.6
		C578.7,301.9,556.7,323.9,556.7,351.1z"/>
	<rect x="616.9" y="577.4" class="st19" width="16.6" height="95.4"/>
	<path class="st18" d="M633.5,582.8v20.9l-16.6-6.1v-14.1C621,583.3,629,583,633.5,582.8z"/>
	<path class="st3" d="M574.1,585.6h99.5c5.1,0,9.3-4.2,9.3-9.3l0,0c0-5.1-4.2-9.3-9.3-9.3h-99.5c-5.1,0-9.3,4.2-9.3,9.3l0,0
		C564.8,581.5,569,585.6,574.1,585.6z"/>
	<path class="st18" d="M554.8,703.6h10.4c0-11.7,10.1-21.2,22.5-21.2h75.7c12.4,0,22.5,9.5,22.5,21.2h10.4c0-17.1-14.8-31-32.9-31
		h-75.7C569.5,672.5,554.8,686.5,554.8,703.6z"/>
	<rect x="613.2" y="657.8" class="st18" width="24.3" height="14.9"/>
	<ellipse class="st18" cx="691.5" cy="713" rx="8.6" ry="8.1"/>
	<path class="st19" d="M679.1,712.3h23.6v-2.2c0-6.1-4.9-11-11-11h-1.6c-6.1,0-11,4.9-11,11V712.3z"/>
	<ellipse class="st18" cx="559.5" cy="713" rx="8.6" ry="8.1"/>
	<path class="st19" d="M547,712.3h23.6v-2.2c0-6.1-4.9-11-11-11h-1.6c-6.1,0-11,4.9-11,11V712.3z"/>
	<rect x="617.9" y="675.6" class="st18" width="13.8" height="29.4"/>
	<ellipse class="st18" cx="623.8" cy="712.3" rx="8.6" ry="8.1"/>
	<path class="st19" d="M612.1,712.3h23.6v-2.2c0-6.1-4.9-11-11-11h-1.6c-6.1,0-11,4.9-11,11V712.3z"/>
	<path class="st60" d="M757.5,398l-22.2,160.6c-1.4,9.8-9.6,17.1-19.4,17.4l-81.2,0.9l45.1-202l57.6,0
		C749.7,374.9,759.1,385.8,757.5,398z"/>
	<path class="st58" d="M538.7,576.9h112.9c9.6,0,17.5-7.9,17.5-17.5v0c0-9.6-7.9-17.5-17.5-17.5H538.7c-9.6,0-17.5,7.9-17.5,17.5v0
		C521.2,569.1,529.1,576.9,538.7,576.9z"/>
	<path class="st33" d="M645.2,345.9c2.2,31.7-4,145.9-5.9,179.6c18.1-0.4,32.9-2,32.9-2l-0.4-172.4c0-24.3-17.6-44.4-40.7-48.5
		C631.1,302.6,642.6,308.6,645.2,345.9z"/>
	<polygon class="st4" points="588.6,304.9 639.4,304.9 639.4,290.7 588.6,296.7 	"/>
	<path class="st58" d="M670.6,554.8l23.6-164.7c1.1-7.3-4.5-14.2-12.2-15.1l0,0c-7.8-1-15,4.2-16.1,11.5l-23.6,164.7
		c-1.1,7.3,4.5,14.2,12.2,15.1l0,0C662.3,567.4,666.3,572.9,670.6,554.8z"/>
	<path class="st33" d="M557.3,420.1l0.8,87.8c0,0,1.9,2.1,7.5,5.1l11.7-132.3C577.3,380.6,566.6,407.4,557.3,420.1z"/>
	<path class="st38" d="M336.6,358.7l5.8,32.5l4.1,22.7c2.3,1.1,4.8,1.6,7.5,1.6h55c-5.2-5.4-14-14.5-23.4-24.4
		c-14.7-15.4-31-32.9-38.3-41.8L336.6,358.7z"/>
	<g>
		<path class="st21" d="M366.8,442.6H258c-0.6-0.9-1.1-1.9-1.4-2.9l-24.4-87.9c-1.2-4.2,2-8.3,6.3-8.3h95.8c3,0,5.5,2,6.3,4.8
			L366.8,442.6z"/>
		<path class="st5" d="M237.4,348.7l24.3,87.8c1.1,4.1,4.9,6.9,9.1,6.9H373l-27.2-98.3c-0.8-2.8-3.4-4.8-6.3-4.8h-95.7
			C239.4,340.3,236.3,344.5,237.4,348.7z"/>
		<path class="st23" d="M242.8,352.5l19.9,71.6l4.2,15h101.3l-4.2-15l-20.8-74.9c-0.7-2.6-3.1-4.4-5.9-4.4h-88.7
			C244.7,344.8,241.7,348.7,242.8,352.5z"/>
		<g>
			<g>
				<polygon class="st39" points="302.5,354.6 333.7,354.6 333,352.4 301.8,352.4 				"/>
				<polygon class="st7" points="274.2,354.6 289,354.6 288.3,352.4 273.5,352.4 				"/>
				<polygon class="st5" points="252.9,354.6 267.7,354.6 267,352.4 252.2,352.4 				"/>
				<polygon class="st6" points="269.4,354.6 272.9,354.6 272.2,352.4 268.7,352.4 				"/>
				<polygon class="st5" points="290.7,354.6 301,354.6 300.4,352.4 290,352.4 				"/>
			</g>
			<g>
				<polygon class="st21" points="324.2,392 309.5,392 308.8,389.8 323.5,389.8 				"/>
				<polygon class="st8" points="345.5,392 330.8,392 330.1,389.8 344.9,389.8 				"/>
				<polygon class="st6" points="329,392 325.5,392 324.8,389.8 328.3,389.8 				"/>
			</g>
			<g>
				<polygon class="st7" points="325,363.9 336.7,363.9 336,361.7 324.3,361.7 				"/>
				<polygon class="st6" points="296.7,363.9 301.7,363.9 301,361.7 296,361.7 				"/>
				<polygon class="st7" points="255.9,363.9 280.4,363.9 279.7,361.7 255.2,361.7 				"/>
				<polygon class="st6" points="282.1,363.9 295.4,363.9 294.7,361.7 281.4,361.7 				"/>
				<polygon class="st6" points="303.4,363.9 323.5,363.9 322.8,361.7 302.7,361.7 				"/>
			</g>
			<g>
				<polygon class="st10" points="342.7,420.1 354.4,420.1 353.7,417.9 342,417.9 				"/>
			</g>
			<g>
				<polygon class="st21" points="327.9,373.3 339.6,373.3 338.9,371.1 327.2,371.1 				"/>
				<polygon class="st21" points="308.8,373.3 320.5,373.3 319.8,371.1 308.1,371.1 				"/>
				<polygon class="st6" points="262.1,373.3 282.2,373.3 281.5,371.1 261.4,371.1 				"/>
			</g>
			<g>
				<polygon class="st6" points="342.6,382.6 322.5,382.6 321.8,380.4 341.9,380.4 				"/>
			</g>
		</g>
		<polygon class="st5" points="261.4,424.2 265.7,439.2 369.5,439.2 365.3,424.2 		"/>
		<g>
			<path class="st5" d="M317.3,443.7h124.4c2.9,0,5.3-2.4,5.3-5.3l0,0c0-2.9-2.4-5.3-5.3-5.3H317.3c-2.9,0-5.3,2.4-5.3,5.3l0,0
				C312,441.3,314.4,443.7,317.3,443.7z"/>
		</g>
		<polygon class="st40" points="268.4,340.3 270.5,344.8 306.7,424.1 310.4,432.3 349.5,432.3 345.8,424.1 309.6,344.8 307.5,340.3 
					"/>
		<polygon class="st40" points="383.5,266.2 437.3,384 494.9,384 441.1,266.2 		"/>
		<g>
			<g>
				<path class="st21" d="M270.2,443.3h72c2.9,0,5.3-2.4,5.3-5.3l0,0c0-2.9-2.4-5.3-5.3-5.3h-72c-2.9,0-5.3,2.4-5.3,5.3l0,0
					C264.9,441,267.2,443.3,270.2,443.3z"/>
			</g>
			<g>
				<rect x="296" y="436.3" class="st16" width="10.3" height="3.1"/>
				<rect x="309.4" y="436.3" class="st16" width="7.5" height="3.1"/>
			</g>
		</g>
	</g>
	<g>
		<g>
			<path class="st41" d="M371.5,400.5v43.1h36v-43.1c0-1.9-1.5-3.4-3.4-3.4h-29.1C373,397.1,371.5,398.6,371.5,400.5z"/>
			<g>
				<path class="st7" d="M407,436.2c0.5-0.3,11.5-6.7,12.5-18.1c0.4-4.3-1.3-7-2.7-8.5c-4-4.1-10.5-3.8-11.3-3.8l0.3,5.3
					c1.3-0.1,5.3,0.2,7.2,2.2c1,1,1.4,2.5,1.2,4.4c-0.8,8.6-9.8,13.9-9.9,14L407,436.2z"/>
			</g>
		</g>
		<path class="st7" d="M388.3,443.6h19.2v-43.1c0-1.9-1.5-3.4-3.4-3.4h-1.2c-0.1,2.2-0.7,19.4-5.5,31.8
			C393.2,439.6,389.5,442.8,388.3,443.6z"/>
		<path class="st42" d="M416.9,409.6c-2.8-2.9-6.9-3.6-9.4-3.8v-5.4c0-1.9-1.5-3.4-3.4-3.4h-1.2c-0.1,2.2-0.7,19.4-5.5,31.8
			c-4.2,10.8-7.9,14-9.1,14.7h19.2v-7.7c2.1-1.3,11.2-7.6,12.1-17.8C419.9,413.8,418.3,411.1,416.9,409.6z M414.3,417.7
			c-0.5,5.3-4.1,9.4-6.8,11.7v-18.2c1.7,0.2,4.2,0.7,5.6,2.2C414.1,414.3,414.5,415.8,414.3,417.7z"/>
	</g>
	<polyline class="st61" points="173,475.1 143.7,380.3 203.1,340.7 226.2,356 	"/>
	<g>
		<path class="st62" d="M221.1,386.5l11.3,9.9l32.2-34.3l-11.3-9.9c-7.9-6.8-19.1-7.7-27.9-3c-2.2,1.2-4.2,2.7-6,4.7
			c-4.4,4.7-6.5,10.8-6.2,16.7C213.5,376.4,216.2,382.2,221.1,386.5z"/>
		<path class="st63" d="M231.3,375.5l11.3,9.9l21.9-23.4l-11.3-9.9c-7.9-6.8-19.1-7.7-27.9-3c-1.5,3.3-2.2,6.9-2,10.4
			C223.8,365.5,226.4,371.3,231.3,375.5z"/>
	</g>
	<path class="st5" d="M231.8,396.2c3.4,3.1,13.5-2,22.6-11.4c9-9.4,13.6-19.4,10.2-22.5c-2.7-2.4-9.6,0.3-16.8,6.1
		c-1.9,1.6-3.9,3.3-5.7,5.3c-2.2,2.3-4.1,4.6-5.8,6.9C231.2,387.6,229.3,393.9,231.8,396.2z"/>
	<path class="st4" d="M236.3,380.6c2.6,2.9,7.1,3.7,10.7,1.7c4.1-2.2,5.6-7.3,3.2-11.3c-0.6-1.1-1.5-1.9-2.4-2.6
		c-1.9,1.6-3.9,3.3-5.7,5.3C239.8,376,237.9,378.3,236.3,380.6z"/>
	<ellipse class="st3" cx="203.9" cy="341.3" rx="7.3" ry="7"/>
	<ellipse class="st63" cx="203.9" cy="341.3" rx="3.7" ry="3.5"/>
	<path class="st3" d="M143.5,489.9h75.7l0,0c0-8.3-6.7-15-15-15h-45.6C150.2,474.9,143.5,481.6,143.5,489.9L143.5,489.9z"/>
	<ellipse class="st3" cx="144.2" cy="381.3" rx="10.2" ry="9.9"/>
	<ellipse class="st63" cx="144.2" cy="381.3" rx="5.1" ry="4.9"/>
	<path class="st14" d="M599.1,228c-1.6,0-2.9,1.3-2.9,3l0.1,10l0.1,8.8l3.4,0c0.3,0,0.5,0,0.7,0c5.8-0.4,10.3-5.5,10.3-11.2
		c0-3-1.3-5.5-3.3-7.5c-1.8-1.8-4.2-2.8-6.9-2.9l0,0c-0.3,0-0.6-0.1-0.9,0L599.1,228z"/>
	<g>
		<g>
			<path class="st3" d="M141.5,317.5c0.6,0,0.6-1,0-1C140.8,316.5,140.8,317.5,141.5,317.5L141.5,317.5z"/>
		</g>
	</g>
</g>
</svg>
