<svg version="1.1" id="Layer_1" xmlns="http://www.w3.org/2000/svg" xmlns:xlink="http://www.w3.org/1999/xlink" x="0px" y="0px"
	 viewBox="0 0 1000 1000" style="enable-background:new 0 0 1000 1000;" xml:space="preserve">
<style type="text/css">
	.st0{fill:none;stroke:#FFFFFF;stroke-width:10;stroke-miterlimit:10;}
	.st1{fill:none;stroke:#FFFFFF;stroke-width:6;stroke-miterlimit:10;}
    
    #XMLID_109_ {
    stroke-dasharray: 1200;
    stroke-dashoffset:0;
    -webkit-animation: dash 2s linear forwards;
    -o-animation: dash 2s linear forwards;
    -moz-animation: dash 2s linear forwards;
    animation: dash 2s linear forwards;
    }
    
    @-webjit-keyframes dash {
        from {
            stroke-dashoffset: 1200;
    }
        to {
            stroke-dashoffset: 0;
        }
    }
</style>
<g id="XMLID_171_">
	<g id="XMLID_360_">
		<g id="XMLID_101_">
			<path id="XMLID_109_" class="st0" d="M134.8,464c-21.2,0-41.2-3.3-60.3-9.8c-19-6.6-35.8-16.4-50.5-29.6L60.5,381
				c23.6,18.9,49.2,28.4,76.6,28.4c8.8,0,15.5-1.4,20.1-4.2c4.6-2.8,6.9-6.8,6.9-12v-0.7c0-2.5-0.6-4.7-1.7-6.6
				c-1.1-1.9-3.2-3.8-6.2-5.6c-3-1.8-7.1-3.5-12.2-5.2c-5.1-1.7-11.6-3.4-19.7-5.2c-12.6-2.9-24.3-6.1-35.1-9.6
				c-10.8-3.5-20.2-8-28.2-13.5c-8-5.5-14.3-12.4-18.9-20.6c-4.6-8.2-6.9-18.4-6.9-30.5v-0.7c0-11,2.1-21.1,6.2-30.3
				c4.2-9.2,10.2-17.2,18.2-23.9c8-6.7,17.6-12,28.9-15.7c11.2-3.7,24-5.6,38.1-5.6c20.3,0,38.3,2.7,54.2,8
				c15.9,5.3,30.2,13.2,43,23.6l-32.7,46.4c-10.8-7.6-21.9-13.4-33.2-17.4c-11.4-3.9-22.3-5.9-32.9-5.9c-7.9,0-13.8,1.5-17.7,4.4
				c-3.9,2.9-5.9,6.5-5.9,10.8v0.7c0,2.7,0.6,5.1,1.9,7.1c1.2,2,3.4,3.9,6.4,5.6c3,1.7,7.2,3.4,12.5,5.1c5.3,1.7,12,3.4,20.1,5.2
				c13.5,2.9,25.7,6.3,36.6,10.3c10.9,3.9,20.2,8.7,27.8,14.3c7.6,5.6,13.5,12.4,17.6,20.4c4.1,8,6.1,17.5,6.1,28.5v0.7
				c0,12.1-2.3,22.9-6.9,32.3c-4.6,9.4-11.1,17.5-19.4,24.1c-8.3,6.6-18.3,11.7-30,15.2C162.2,462.3,149.2,464,134.8,464z"/>
			<path id="XMLID_106_" class="st0" d="M343.7,222h63.1l100.6,238h-70.2L420,417.8h-91.1L312,459.9h-68.9L343.7,222z M401.1,367.1
				L374.7,300l-26.7,67.2H401.1z"/>
			<path id="XMLID_104_" class="st0" d="M530.3,223.7h65.5v178.9h114.4v57.4H530.3V223.7z"/>
			<path id="XMLID_102_" class="st0" d="M796,281.1h-70.9v-57.4h207.3v57.4h-70.9v178.9H796V281.1z"/>
		</g>
	</g>
	<g id="XMLID_358_">
		<g id="XMLID_184_">
			<path id="XMLID_206_" class="st1" d="M37.1,497h101v26.3H66.2v27.2h63.3v26.3H66.2v28.2h72.8v26.3h-102V497z"/>
			<path id="XMLID_204_" class="st1" d="M163.8,491.3h29.1v139.9h-29.1V491.3z"/>
			<path id="XMLID_201_" class="st1" d="M269,633.5c-7.7,0-14.8-1.3-21.4-3.8c-6.6-2.6-12.3-6.2-17.1-10.9
				c-4.8-4.7-8.5-10.3-11.2-16.8c-2.7-6.5-4-13.6-4-21.6V580c0-7.3,1.2-14.2,3.7-20.7c2.5-6.5,6-12.2,10.4-17.1
				c4.5-4.9,9.8-8.7,16-11.5c6.2-2.8,13.1-4.2,20.6-4.2c8.6,0,16,1.5,22.2,4.6c6.3,3.1,11.5,7.2,15.6,12.4
				c4.2,5.2,7.2,11.1,9.2,17.8c2,6.7,3,13.7,3,21c0,1.1,0,2.4-0.1,3.6c-0.1,1.3-0.2,2.6-0.3,4h-71.5c1.4,6.6,4.3,11.7,8.7,15
				c4.4,3.4,9.9,5.1,16.4,5.1c4.9,0,9.2-0.8,13-2.5c3.8-1.7,7.8-4.3,11.9-8.1l16.7,14.8c-4.9,6-10.7,10.7-17.6,14.1
				S278.4,633.5,269,633.5z M287.8,571.8c-0.9-6.5-3.2-11.8-6.9-15.8c-3.7-4-8.6-6-14.8-6s-11.1,2-14.9,5.9c-3.8,4-6.2,9.3-7.4,15.9
				H287.8z"/>
			<path id="XMLID_199_" class="st1" d="M386.4,633.5c-7.7,0-14.8-1.4-21.4-4.2c-6.6-2.8-12.2-6.6-17-11.4
				c-4.7-4.8-8.4-10.4-11.1-16.9c-2.7-6.5-4-13.3-4-20.6V580c0-7.3,1.3-14.2,4-20.7s6.4-12.2,11.1-17.1c4.7-4.9,10.4-8.7,17-11.5
				c6.6-2.8,13.8-4.2,21.8-4.2c9.7,0,17.8,1.5,24.2,4.6c6.4,3.1,12,7.3,16.9,12.7L409.9,563c-3.3-3.5-6.7-6.2-10.3-8.2
				c-3.5-2-7.9-3.1-13.1-3.1c-3.7,0-7.1,0.7-10.1,2.2c-3,1.5-5.6,3.5-7.9,6c-2.2,2.6-4,5.5-5.2,8.9c-1.2,3.4-1.8,7-1.8,10.8v0.4
				c0,4,0.6,7.7,1.8,11.1c1.2,3.5,3,6.5,5.3,9c2.3,2.6,5,4.6,8.2,6c3.2,1.5,6.8,2.2,10.7,2.2c4.9,0,9.1-1,12.7-3
				c3.6-2,7.3-4.6,10.8-8l17.1,17.3c-5,5.5-10.7,10-17.1,13.5C404.9,631.8,396.6,633.5,386.4,633.5z"/>
			<path id="XMLID_197_" class="st1" d="M482,632.9c-4.5,0-8.5-0.5-12.2-1.4c-3.6-1-6.8-2.7-9.4-5.1c-2.6-2.4-4.7-5.6-6.1-9.5
				c-1.5-3.9-2.2-8.8-2.2-14.9v-48.7h-12.3v-24.9h12.3v-26.3h29.1v26.3h24.2v24.9h-24.2v44.1c0,6.7,3.1,10,9.4,10
				c5.1,0,9.9-1.3,14.4-3.8V627c-3.1,1.8-6.5,3.2-10.2,4.3C491.2,632.4,486.9,632.9,482,632.9z"/>
			<path id="XMLID_195_" class="st1" d="M526.9,528.5H556v20.7c2.9-7,7-12.7,12.1-16.9c5.1-4.2,12-6.1,20.7-5.8V557h-1.5
				c-9.7,0-17.3,2.9-22.9,8.8c-5.6,5.9-8.3,15-8.3,27.4v38h-29.1V528.5z"/>
			<path id="XMLID_192_" class="st1" d="M607.6,491.3h30.7v25.9h-30.7V491.3z M608.3,528.5h29.1v102.7h-29.1V528.5z"/>
			<path id="XMLID_190_" class="st1" d="M713.4,633.5c-7.7,0-14.8-1.4-21.4-4.2c-6.6-2.8-12.2-6.6-17-11.4
				c-4.7-4.8-8.4-10.4-11.1-16.9c-2.7-6.5-4-13.3-4-20.6V580c0-7.3,1.3-14.2,4-20.7c2.7-6.5,6.4-12.2,11.1-17.1
				c4.7-4.9,10.4-8.7,17-11.5c6.6-2.8,13.8-4.2,21.8-4.2c9.7,0,17.8,1.5,24.2,4.6c6.4,3.1,12,7.3,16.9,12.7L737,563
				c-3.3-3.5-6.7-6.2-10.3-8.2c-3.5-2-7.9-3.1-13.1-3.1c-3.7,0-7.1,0.7-10.1,2.2c-3,1.5-5.6,3.5-7.9,6c-2.2,2.6-4,5.5-5.2,8.9
				c-1.2,3.4-1.8,7-1.8,10.8v0.4c0,4,0.6,7.7,1.8,11.1c1.2,3.5,3,6.5,5.3,9c2.3,2.6,5,4.6,8.2,6c3.2,1.5,6.8,2.2,10.7,2.2
				c4.9,0,9.1-1,12.7-3c3.6-2,7.3-4.6,10.8-8l17.1,17.3c-5,5.5-10.7,10-17.1,13.5C731.9,631.8,723.6,633.5,713.4,633.5z"/>
			<path id="XMLID_187_" class="st1" d="M803.5,633.1c-4.9,0-9.4-0.7-13.7-2c-4.3-1.3-8-3.4-11.2-6c-3.2-2.7-5.7-6-7.6-9.9
				c-1.9-3.9-2.8-8.4-2.8-13.5v-0.4c0-5.6,1-10.5,3.1-14.6c2-4.1,4.9-7.5,8.5-10.2c3.6-2.7,8-4.7,13-6c5-1.3,10.6-2,16.8-2
				c5.2,0,9.8,0.4,13.7,1.2c3.9,0.8,7.7,1.8,11.4,3.1V571c0-6.1-1.9-10.8-5.6-14c-3.7-3.2-9.2-4.8-16.5-4.8
				c-5.6,0-10.6,0.5-14.9,1.4c-4.3,1-8.8,2.3-13.5,4.1l-7.3-22.2c5.6-2.4,11.5-4.4,17.6-5.9c6.1-1.5,13.5-2.3,22.2-2.3
				c8.1,0,14.9,1,20.6,3c5.7,2,10.4,4.8,14.1,8.5c3.8,3.8,6.6,8.5,8.4,14.1c1.8,5.6,2.7,11.8,2.7,18.7v59.6h-28.2v-11.1
				c-3.6,4-7.9,7.1-12.8,9.5C816.7,631.9,810.6,633.1,803.5,633.1z M812.3,613c6.9,0,12.4-1.7,16.6-5c4.2-3.3,6.2-7.7,6.2-13v-5.2
				c-2.6-1.2-5.4-2.1-8.5-2.8c-3.1-0.7-6.5-1.1-10.1-1.1c-6.3,0-11.2,1.2-14.8,3.6c-3.6,2.4-5.4,5.9-5.4,10.5v0.4c0,4,1.5,7,4.4,9.2
				C803.7,611.9,807.6,613,812.3,613z"/>
			<path id="XMLID_185_" class="st1" d="M889.2,491.3h29.1v139.9h-29.1V491.3z"/>
		</g>
	</g>
	<polygon id="XMLID_173_" class="st0" points="979,811 472.9,678.2 516.4,735 208,664 248.2,722.9 30.3,674.5 48.3,741.6 362.9,800 
		293.5,720.2 620,800.6 567.4,739 	"/>
</g>
    
<g id="XMLID_1_">
</g>
<g id="XMLID_9_">
</g>
<g id="XMLID_12_">
</g>
<g id="XMLID_36_">
</g>
<g id="XMLID_37_">
</g>
<g id="XMLID_38_">
</g>
<g id="XMLID_39_">
</g>
<g id="XMLID_40_">
</g>
<g id="XMLID_41_">
</g>
<g id="XMLID_42_">
</g>
<g id="XMLID_43_">
</g>
<g id="XMLID_44_">
</g>
<g id="XMLID_45_">
</g>
<g id="XMLID_46_">
</g>
<g id="XMLID_47_">
</g>
</svg>
