<?xml version="1.0" encoding="utf-8"?>
<!-- Generator: Adobe Illustrator 19.0.0, SVG Export Plug-In . SVG Version: 6.00 Build 0)  -->
<svg version="1.1" id="Layer_1" xmlns="http://www.w3.org/2000/svg" xmlns:xlink="http://www.w3.org/1999/xlink" x="0px" y="0px"
	 viewBox="0 0 988 237" style="enable-background:new 0 0 988 237;" xml:space="preserve">
<style type="text/css">
	.st0{fill:#778899;}
	.st1{fill:#2191ED;}
</style>
<g id="XMLID_458_">
	<path id="XMLID_460_" class="st0" d="M253.3,149.8h21.8c0.2,13.9,8.5,20.6,21.5,20.6c14.2,0,21.1-7.7,21.1-18.5
		c0-26.8-61.9-28.3-61.9-68.4c0-19.5,15.6-34.1,40.6-34.1c25.3,0,40.6,14.8,41.2,37.8h-21.8c-0.4-12.9-7.8-19.1-19.2-19.1
		c-12,0-19,6.2-19,15.8c0,26.4,62.1,26.4,62.1,68.2c0,20-15.4,37.2-43.1,37.2C270.4,189.3,253.5,174.4,253.3,149.8z"/>
	<path id="XMLID_464_" class="st0" d="M421.5,119.3v67.5h-16.7l-1.5-9.6c-4.6,7.1-12.7,12.1-24.7,12.1c-20.5,0-34.2-12.3-34.2-31.4
		c0-20.6,15.6-31.2,40.3-31.2H401v-7.3c0-11.9-4.9-18.7-16.1-18.7c-9.1,0-15.8,4.4-16.9,13.5h-20.5c1.1-19.5,15.4-31.4,37.8-31.4
		C409.2,82.7,421.5,96,421.5,119.3z M401,142.3h-16.3c-12.5,0-19.6,5.4-19.6,15.6c0,9.3,6.5,14.8,17.7,14.8
		c11.2,0,18.2-6.6,18.2-17.2V142.3z"/>
	<path id="XMLID_472_" class="st0" d="M436.2,47.2h20.5v139.5h-20.5V47.2z"/>
	<path id="XMLID_484_" class="st0" d="M520.7,170.4v17.5h-7.8c-22.2,0-35.3-12.9-35.3-33.9v-51.8H462v-17h15.6V61.1h20.3v24.1h20.7
		v17h-20.7v52c0,11,5.1,16.2,16.1,16.2H520.7z"/>
	<path id="XMLID_488_" class="st1" d="M544.8,51.9h32.3c26.4,0,41.6,13.7,41.6,38.5v56.9c0,25.1-15.6,39.5-41.6,39.5h-32.3V51.9z
		 M577.1,178.5c20.5,0,32.1-11,32.1-31.6V90.8c0-20.4-11.6-30.6-32.1-30.6h-22.8v118.3H577.1z"/>
	<path id="XMLID_492_" class="st1" d="M704.5,156.5c-1.7,20-13.9,32.2-35.9,32.2c-20.9,0-34-12.9-34-34.1V118
		c0-21.4,13.5-34.1,34.6-34.1c21.1,0,35.1,12.7,35.1,34.1v22.5h-60.6v14.1c0,16.8,9.5,26,25.1,26c16.7,0,24.7-8.7,26.6-24.1H704.5z
		 M643.7,118v14.8H695V118c0-16.8-9.7-26-25.8-26C653.4,92,643.7,101.2,643.7,118z"/>
	<path id="XMLID_498_" class="st1" d="M714,158.3h9.1c0.4,14.8,9.9,22.5,26,22.5c13.7,0,23.4-6.9,23.4-18.5
		c0-27-57.2-18.9-57.2-52.6c0-15.4,13.1-25.8,31.7-25.8c19.6,0,32.3,11.2,32.7,28.5h-9.1c-0.4-13.1-9.1-20.6-23.7-20.6
		c-13.5,0-22.4,6.9-22.4,18.1c0,26,57.2,17.7,57.2,52.6c0,15.8-13.9,26.4-32.7,26.4C728.2,188.9,714.4,177.3,714,158.3z"/>
	<path id="XMLID_502_" class="st1" d="M791.8,59.4c0-4.4,3.2-7.5,8-7.5c5.1,0,8.2,3.1,8.2,7.5c0,4.6-3.2,7.5-8.2,7.5
		C794.9,66.9,791.8,64,791.8,59.4z M795.4,86h9.1v100.8h-9.1V86z"/>
	<path id="XMLID_508_" class="st1" d="M890.8,86v107.3c0,18.7-12.9,30.5-33,30.5c-20.5,0-33.4-11.2-34.4-28.3h8.9
		c1.3,12.9,10.1,20.4,25.6,20.4c14.8,0,23.7-8.1,23.7-22.5v-20.8c-5.5,7.5-14.8,11.9-25.3,11.9c-20.1,0-34.4-12.9-34.4-34.3v-30.6
		c0-22.7,14.2-35.7,34-35.7c11.2,0,20.5,4.8,26.2,13.7l0.8-11.6H890.8z M881.5,151.1v-33.9c0-16.2-10.8-25.4-24.1-25.4
		c-15.8,0-26.6,9.3-26.6,27.8v30.6c0,17,10.8,26.4,26.6,26.4C871.8,176.6,881.5,167.1,881.5,151.1z"/>
	<path id="XMLID_514_" class="st1" d="M978.5,121.6v65.1h-9.1v-64c0-21-7.2-31-21.8-31c-16.3,0-27.7,12.9-27.7,33.5v61.5h-9.1V86
		h7.8l1.3,13.1v1.7c5.9-10.4,16.1-17,29.8-17C967.3,83.9,978.5,95.4,978.5,121.6z"/>
</g>
<g id="XMLID_388_">
	<g id="XMLID_454_">
		<path id="XMLID_575_" class="st1" d="M44.6,165.8c0-1.1,21.9-34.9,21.9-34.9l-11.2-14.8l41.9-66.2H53.4l-42.2,66.2L44.6,165.8z"/>
	</g>
	<g id="XMLID_452_">
		<polygon id="XMLID_563_" class="st0" points="138.6,49.9 182,49.9 97.2,184.9 55,184.9 		"/>
	</g>
	<g id="XMLID_450_">
		<polygon id="XMLID_553_" class="st1" points="140.2,186.9 182,186.9 223.8,117 192.5,66 171.2,99.2 182,116.9 		"/>
	</g>
</g>
</svg>
