<?xml version="1.0" encoding="utf-8"?>
<!-- Generator: Adobe Illustrator 19.0.0, SVG Export Plug-In . SVG Version: 6.00 Build 0)  -->
<svg version="1.1" id="Layer_1" xmlns="http://www.w3.org/2000/svg" xmlns:xlink="http://www.w3.org/1999/xlink" x="0px" y="0px"
	 viewBox="-17 266 988 237" style="enable-background:new -17 266 988 237;" xml:space="preserve">
<style type="text/css">
	.st0{fill:#FFFFFF;}
	.st1{fill:#2191ED;}
</style>
<g>
	<g id="XMLID_458_">
		
			<image style="overflow:visible;opacity:0.3;enable-background:new    ;" width="756" height="207" xlink:href="11B75131.png"  transform="matrix(1 0 0 1 220 296)">
		</image>
		<g>
			<g>
				<path id="XMLID_496_" class="st0" d="M234.3,412.8h21.8c0.2,13.9,8.5,20.6,21.5,20.6c14.2,0,21.1-7.7,21.1-18.5
					c0-26.8-61.9-28.3-61.9-68.4c0-19.5,15.6-34.1,40.6-34.1c25.3,0,40.6,14.8,41.2,37.8h-21.8c-0.4-12.9-7.8-19.1-19.2-19.1
					c-12,0-19,6.2-19,15.8c0,26.4,62.1,26.4,62.1,68.2c0,20-15.4,37.2-43.1,37.2C251.4,452.3,234.5,437.4,234.3,412.8z"/>
				<path id="XMLID_494_" class="st0" d="M402.5,382.3v67.5h-16.7l-1.5-9.6c-4.6,7.1-12.7,12.1-24.7,12.1
					c-20.5,0-34.2-12.3-34.2-31.4c0-20.6,15.6-31.2,40.3-31.2H382v-7.3c0-11.9-4.9-18.7-16.1-18.7c-9.1,0-15.8,4.4-16.9,13.5h-20.5
					c1.1-19.5,15.4-31.4,37.8-31.4C390.2,345.7,402.5,359,402.5,382.3z M382,405.3h-16.3c-12.5,0-19.6,5.4-19.6,15.6
					c0,9.3,6.5,14.8,17.7,14.8s18.2-6.6,18.2-17.2L382,405.3L382,405.3z"/>
				<path id="XMLID_491_" class="st0" d="M417.2,310.2h20.5v139.5h-20.5V310.2z"/>
				<path id="XMLID_490_" class="st0" d="M501.7,433.4v17.5h-7.8c-22.2,0-35.3-12.9-35.3-33.9v-51.8H443v-17h15.6v-24.1h20.3v24.1
					h20.7v17h-20.7v52c0,11,5.1,16.2,16.1,16.2L501.7,433.4L501.7,433.4z"/>
				<path id="XMLID_489_" class="st1" d="M525.8,314.9h32.3c26.4,0,41.6,13.7,41.6,38.5v56.9c0,25.1-15.6,39.5-41.6,39.5h-32.3
					V314.9z M558.1,441.5c20.5,0,32.1-11,32.1-31.6v-56.1c0-20.4-11.6-30.6-32.1-30.6h-22.8v118.3H558.1z"/>
				<path id="XMLID_486_" class="st1" d="M685.5,419.5c-1.7,20-13.9,32.2-35.9,32.2c-20.9,0-34-12.9-34-34.1V381
					c0-21.4,13.5-34.1,34.6-34.1s35.1,12.7,35.1,34.1v22.5h-60.6v14.1c0,16.8,9.5,26,25.1,26c16.7,0,24.7-8.7,26.6-24.1H685.5z
					 M624.7,381v14.8H676V381c0-16.8-9.7-26-25.8-26C634.4,355,624.7,364.2,624.7,381z"/>
				<path id="XMLID_482_" class="st1" d="M695,421.3h9.1c0.4,14.8,9.9,22.5,26,22.5c13.7,0,23.4-6.9,23.4-18.5
					c0-27-57.2-18.9-57.2-52.6c0-15.4,13.1-25.8,31.7-25.8c19.6,0,32.3,11.2,32.7,28.5h-9.1c-0.4-13.1-9.1-20.6-23.7-20.6
					c-13.5,0-22.4,6.9-22.4,18.1c0,26,57.2,17.7,57.2,52.6c0,15.8-13.9,26.4-32.7,26.4C709.2,451.9,695.4,440.3,695,421.3z"/>
				<path id="XMLID_480_" class="st1" d="M772.8,322.4c0-4.4,3.2-7.5,8-7.5c5.1,0,8.2,3.1,8.2,7.5c0,4.6-3.2,7.5-8.2,7.5
					C775.9,329.9,772.8,327,772.8,322.4z M776.4,349h9.1v100.8h-9.1V349z"/>
				<path id="XMLID_478_" class="st1" d="M871.8,349v107.3c0,18.7-12.9,30.5-33,30.5c-20.5,0-33.4-11.2-34.4-28.3h8.9
					c1.3,12.9,10.1,20.4,25.6,20.4c14.8,0,23.7-8.1,23.7-22.5v-20.8c-5.5,7.5-14.8,11.9-25.3,11.9c-20.1,0-34.4-12.9-34.4-34.3
					v-30.6c0-22.7,14.2-35.7,34-35.7c11.2,0,20.5,4.8,26.2,13.7l0.8-11.6H871.8L871.8,349z M862.5,414.1v-33.9
					c0-16.2-10.8-25.4-24.1-25.4c-15.8,0-26.6,9.3-26.6,27.8v30.6c0,17,10.8,26.4,26.6,26.4C852.8,439.6,862.5,430.1,862.5,414.1z"
					/>
				<path id="XMLID_476_" class="st1" d="M959.5,384.6v65.1h-9.1v-64c0-21-7.2-31-21.8-31c-16.3,0-27.7,12.9-27.7,33.5v61.5h-9.1
					V349h7.8l1.3,13.1v1.7c5.9-10.4,16.1-17,29.8-17C948.3,346.9,959.5,358.4,959.5,384.6z"/>
			</g>
		</g>
	</g>
	<g id="XMLID_388_">
		
			<image style="overflow:visible;opacity:0.3;enable-background:new    ;" width="243" height="168" xlink:href="11B75133.png"  transform="matrix(1 0 0 1 -22 298)">
		</image>
		<g>
			<g>
				<g id="XMLID_281_">
					<path id="XMLID_282_" class="st1" d="M25.6,428.8c0-1.1,21.9-34.9,21.9-34.9l-11.2-14.8l41.9-66.2H34.4l-42.2,66.2L25.6,428.8z
						"/>
				</g>
				<g id="XMLID_278_">
					<polygon id="XMLID_279_" class="st0" points="119.6,312.9 163,312.9 78.2,447.9 36,447.9 					"/>
				</g>
				<g id="XMLID_274_">
					<polygon id="XMLID_276_" class="st1" points="121.2,449.9 163,449.9 204.8,380 173.5,329 152.2,362.2 163,379.9 					"/>
				</g>
			</g>
		</g>
	</g>
</g>
</svg>
