<?xml version="1.0" encoding="utf-8"?>
<!-- Generator: Adobe Illustrator 19.0.0, SVG Export Plug-In . SVG Version: 6.00 Build 0)  -->
<svg version="1.1" id="Layer_1" xmlns="http://www.w3.org/2000/svg" xmlns:xlink="http://www.w3.org/1999/xlink" x="0px" y="0px"
	 viewBox="0 0 538 106" style="enable-background:new 0 0 538 106;" xml:space="preserve">
<style type="text/css">
	.st0{fill:#333333;}
	.st1{fill:#FFFFFF;}
	.st2{fill:none;stroke:#FFFFFF;stroke-width:7;stroke-miterlimit:10;}
	.st3{fill:#00FFBC;}
</style>
<rect id="XMLID_21_" x="-12" y="-161.2" class="st0" width="575.3" height="131.9"/>
<g id="XMLID_86_">
	<g id="XMLID_52_">
		<path id="XMLID_57_" class="st1" d="M261-413.7h-5.8c-2.4,0-5.9-1.9-10.3-5.8h-1c-5.5,5.7-9.8,8.5-13.1,8.5h-1.9l-7.5-6.6
			c0-8.7,4.1-15.3,12.2-19.7h3.8c11.8,0.8,17.8,3.3,17.8,7.5v3.8h1C257.3-425.9,258.9-421.8,261-413.7z"/>
		<path id="XMLID_55_" class="st1" d="M258.2-417.5h1.2c7.1-7.3,15.4-22.1,25.1-44.3c0-1.9,0.9-3.4,2.6-4.5c5.1,0,7.7,2.4,7.7,7.1
			c-3.4,2.6-6.4,11.3-9.1,26.3c0,1.4-0.2,2.4-0.5,3.1c0,0.5,0.2,0.7,0.5,0.7l-0.5,4.4v1.4c0,2.2,1,5.4,3.1,9.6
			c1-0.2,1.9-0.3,2.6-0.3c2,0,3,0.9,3,2.6c-0.1,2.6-0.5,4.4-1,5.4h-3.8c-6.2,0-10.2-6.6-12.2-19.9c0.5-0.8,0.7-1.5,0.7-1.9h-1.4
			c0,0.9-2.2,4.4-6.4,10.3c-3.3,6-6.7,9.1-10.3,9.1L258.2-417.5z"/>
		<path id="XMLID_53_" class="st1" d="M329.5-497.9c2.6,0,4.2,0.9,4.9,2.8c-0.5,3.3-7.4,19.5-20.9,48.8c-2.8,4.2-5.6,10.5-8.4,18.8
			l1.4,0.7l4.9-0.7c2.9,0,5,1.2,6.3,3.5v1.4c0,1.2-5.6,3-16.7,5.6c-3.4,17.2-6.4,25.8-9.1,25.8h-1.4c0-1.2-0.9-1.9-2.8-2.1v-2.1
			c0-2.4,2.1-10.8,6.3-25.1c-0.9-1.5-1.4-2.7-1.4-3.5c4.6-2,7-5.9,7-11.8c12.2-25.4,21.3-46.1,27.2-62H329.5z"/>
	</g>
	<g id="XMLID_36_">
		<path id="XMLID_48_" class="st1" d="M326.3-390.3h0.7c3.9,0,6.7,3,8.4,9.1c-1.5,10.1-8.9,23.8-22.3,41.1c0,4.2,3.5,7,10.5,8.4v1.4
			c-0.9,2.8-2.8,4.2-5.6,4.2c-2.4,0-6.2-2.6-11.2-7.7h-0.7c-12.1,10.7-20.9,16-26.5,16c-2.9,0-5.9-2.6-9.1-7.7v-1.4
			c0-6.6,9.5-14.3,28.6-23c3.4,0,5.5-4.2,6.3-12.5C314.1-381,321.1-390.3,326.3-390.3z M279.6-326.2v0.7h0.7
			c5.1-0.8,12.5-6.2,22.3-16v-1.4h-1.4C287.3-336.4,280.1-330.8,279.6-326.2z M311.7-353.4v1.4h0.7c7.3-8.7,12-18,13.9-27.9h-1.4
			C319.8-375.5,315.4-366.7,311.7-353.4z"/>
		<path id="XMLID_46_" class="st1" d="M343.6-349.5h2.8c4.8,0,8,1.9,9.8,5.6c0,5-8.1,8.9-24.4,11.8c-1.9-0.5-3.5-0.7-4.9-0.7
			c-1.3,0-2.4,1.2-3.5,3.5c2.1,1.9,3.3,2.8,3.5,2.8h4.9c3.1,0,14.5-2.8,34.2-8.4c0.9,0.5,1.6,0.7,2.1,0.7v2.8
			c-6.2,5.1-17.5,9.3-34.2,12.5H331c-8,0-13.6-3.7-16.7-11.2C314.3-336.7,324.1-343.2,343.6-349.5z"/>
		<path id="XMLID_44_" class="st1" d="M386.6-352.8c2.8,1.9,4.2,4,4.2,6.3c-0.9,2.8-2.8,4.2-5.6,4.2c-4.4-1.4-7.4-2.1-9.1-2.1
			c-4.2,1.4-6.3,2.6-6.3,3.5c7,7.6,10.5,11.5,10.5,11.8v0.7c0,3.6-3.3,6.4-9.8,8.4c-5.1-0.9-7.7-1.9-7.7-2.8v-0.7l7-4.9v-0.7
			c-5.6-6.2-8.4-11.3-8.4-15.3C361.5-350,369.9-352.8,386.6-352.8z"/>
		<path id="XMLID_41_" class="st1" d="M393.2-343.1c2.8,1.9,4.2,3.7,4.2,5.6c-3.3,8.2-5.6,12.9-7,13.9h-2.1
			c-1.4-0.5-2.1-1.9-2.1-4.2v-1.4c0.8-9.3,2.7-13.9,5.6-13.9H393.2z M395.3-359.8c2.8,1,4.2,2.9,4.2,5.6c-0.7,2.3-2.3,3.5-4.9,3.5
			h-0.7c-1,0-2.2-1.9-3.5-5.6C391.1-358.6,392.8-359.8,395.3-359.8z"/>
		<path id="XMLID_39_" class="st1" d="M419.9-356.7c2.8,0.9,4.2,2.8,4.2,5.6l-3.5,4.9c7.2,8,12.3,17.5,15.3,28.6
			c3.3,4.8,4.9,9.6,4.9,14.6v2.8c-5.6,9.8-16.7,14.6-33.5,14.6c-10.7,0-17.9-3.5-21.6-10.5l-0.7-4.9c1.4-0.5,2.1-0.9,2.1-1.4l7.7,7
			c4,1.4,6.7,2.1,8.4,2.1h4.9c16.7-1.4,25.1-5.6,25.1-12.5c-4.8-16.6-10.1-27.3-16-32.1h-0.7c-1.5,0-3.1,0.7-4.9,2.1h-1.4
			c-2.3-1.4-4.2-3.7-5.6-7C404.6-348.9,409.7-353.5,419.9-356.7z"/>
		<path id="XMLID_37_" class="st1" d="M445.3-350.9c5.9,0,10.1,3.5,12.5,10.5c0,0.9,0.5,3.3,1.4,7c-0.5,1.9-1.6,2.8-3.5,2.8
			c-1.3,0-3.6-3.5-7-10.5h-1.4c-3.5,0-7.4,4-11.8,11.8c-1.4,0.5-2.1,0.9-2.1,1.4c-4.6-1.2-7-3.3-7-6.3
			C436.6-344.9,442.9-350.4,445.3-350.9z"/>
	</g>
	<rect id="XMLID_8_" x="99.9" y="-511.8" class="st2" width="398" height="237.7"/>
	<path id="XMLID_59_" class="st1" d="M215.7-547.1c11.7,0,19.7,6.2,23.9,18.5v12.9c0,14.5-12.9,31.4-38.7,50.5l-4.5,1
		c-4.6,0-7.7-1.2-9.2-3.7c0.1-1.2,8.4-8.2,24.9-21.3c12.9-12.9,19.3-25.2,19.3-36.9c0-9.1-4.9-13.6-14.8-13.6
		c-9.3,0-24.6,11-46,33.1c-16.6,24.4-24.9,44.3-24.9,59.8v11c0,18.6,8.6,35.8,25.8,51.8c4.8,6,20.7,19.9,47.9,41.5
		c8,5.2,13.5,12.9,16.6,23c0,13.6-11.3,28.9-34,46c-28.6,17.2-52.3,25.8-71.1,25.8c-4.2,2.4-10,3.7-17.4,3.7h-3.7
		c-0.6,0-0.9,0.3-0.9,0.9c-1.2-0.6-2.1-0.9-2.8-0.9c-7.2,1.3-11.8,1.9-13.8,1.9c-5.5,0-20.2,0.3-44.3,0.9c-1.9,0-4.4-0.6-7.5-1.9
		l-1.7,1c-1.2-0.7-2.1-1-2.8-1v-0.9l0.9-1.7l6.4,0.9h8.4c1.5-1.3,2.7-1.9,3.7-1.9c30.9,0,63.1-4.3,96.7-12.9
		c23.6-7.6,43.2-19.2,58.9-34.8c9.3-10.3,13.9-19.6,13.9-27.7c-5-9.9-20.4-24.3-46.2-43.2c-25.7-25.6-39.5-45.5-41.5-59.9l-2.6-12.9
		l0.9-1.9v-2.6c0-0.7-0.3-1-0.9-1c1.7-18.4,8.8-38,21.1-58.9C180.9-532.4,200.8-547.1,215.7-547.1z"/>
</g>
<g id="XMLID_116_">
	<path id="XMLID_4_" class="st1" d="M530.2,100H7.8V6h522.5V100z M15.1,93.2h507.9V12.8H15.1V93.2z"/>
</g>
<g id="XMLID_117_">
	<path id="XMLID_160_" class="st3" d="M93.7,205.8c2.1,0.9,4.2,2.3,6,4.2l-5.6,5.6c-1.9-2.2-4.5-3.4-7.8-3.4s-5.5,0.8-6.4,2.4
		c-0.9,1.6-0.9,2.9,0,4.1c0.9,1.1,3.1,2,6.4,2.5c3.5,0.4,6.8,1.5,9.7,3.5c2.9,2,4.3,5.1,4.3,9.4c0,3.4-1.5,6.3-4.6,8.7
		c-3.1,2.4-6.7,3.6-10.8,3.6c-3.9,0-7.2-0.6-9.8-1.7c-2.6-1.1-4.9-2.6-6.7-4.5l5.6-5.6c1.9,2.2,5,3.5,9.5,3.9c3.7,0,6.1-0.8,7-2.4
		c0.9-1.6,0.9-3.2,0-4.8c-0.9-1.6-3.3-2.6-7-2.9c-3.4-0.4-6.4-1.4-9.2-3.1c-2.8-1.7-4.2-4.6-4.2-8.7c0-3.7,1.6-6.7,4.8-8.9
		c3.2-2.2,6.5-3.4,9.8-3.4C88.6,204.4,91.6,204.9,93.7,205.8z"/>
	<path id="XMLID_157_" class="st3" d="M105.6,246.4l16.8-42h8.4l16.8,42l-8.9,0l-2.5-6.4h-19l-2.5,6.4H105.6z M126.8,215.6l-6.4,16
		h12.6L126.8,215.6z"/>
	<path id="XMLID_155_" class="st3" d="M162.4,204.4v34.2h22.4v7.8H154v-42H162.4z"/>
	<path id="XMLID_153_" class="st3" d="M226,204.4v7.8h-14v34.2h-8.4v-34.2h-14v-7.8H226z"/>
	<path id="XMLID_137_" class="st3" d="M251.8,246.4v-42H268c13.1,0,19.6,7,19.6,21c0,14-6.5,21-19.6,21H251.8z M268,238
		c7.5,0,11.2-4.2,11.2-12.6c0-8.4-3.8-12.6-11.2-12.6h-7.8V238H268z"/>
	<path id="XMLID_129_" class="st3" d="M296.5,246.4v-42l30.9,0v7.8h-22.5v9h16.8v7.8h-16.8v9.6h22.4v7.8H296.5z"/>
	<path id="XMLID_126_" class="st3" d="M358.6,205.8c2.1,0.9,4.2,2.3,6,4.2l-5.6,5.6c-1.9-2.2-4.5-3.4-7.8-3.4s-5.5,0.8-6.4,2.4
		c-0.9,1.6-0.9,2.9,0,4.1c0.9,1.1,3.1,2,6.4,2.5c3.5,0.4,6.8,1.5,9.7,3.5c2.9,2,4.3,5.1,4.3,9.4c0,3.4-1.5,6.3-4.6,8.7
		c-3.1,2.4-6.7,3.6-10.8,3.6c-3.9,0-7.2-0.6-9.8-1.7c-2.6-1.1-4.9-2.6-6.7-4.5l5.6-5.6c1.9,2.2,5,3.5,9.5,3.9c3.7,0,6.1-0.8,7-2.4
		c0.9-1.6,0.9-3.2,0-4.8c-0.9-1.6-3.3-2.6-7-2.9c-3.4-0.4-6.4-1.4-9.2-3.1c-2.8-1.7-4.2-4.6-4.2-8.7c0-3.7,1.6-6.7,4.8-8.9
		c3.2-2.2,6.5-3.4,9.8-3.4C353.4,204.4,356.4,204.9,358.6,205.8z"/>
	<path id="XMLID_124_" class="st3" d="M372.7,204.4h8.4v42h-8.4V204.4z"/>
	<path id="XMLID_120_" class="st3" d="M393.2,240.4c-4-4-6-9-6-15.1c0-5.9,2-10.9,6-14.9c4-4,9-6,14.9-6c6,0,11.1,1.9,15.4,5.6
		l-5.6,6.1c-2.9-2.2-6.1-3.4-9.8-3.4c-3.8,0-6.8,1.2-9.1,3.5c-2.3,2.3-3.5,5.3-3.5,9c0,3.9,1.2,7,3.5,9.3c2.3,2.3,5.4,3.4,9.1,3.4
		c3,0,5.3-0.6,7-1.8V229l-5.6,0v-7.8h14v19.6c-4.3,3.7-9.4,5.6-15.4,5.6C402.3,246.4,397.3,244.4,393.2,240.4z"/>
	<path id="XMLID_118_" class="st3" d="M432.1,246.4v-42h2.8l26.3,26.3v-26.3h8.4v42h-3.1l-26-26v26H432.1z"/>
</g>
<g id="XMLID_111_">
	<path id="XMLID_112_" class="st3" d="M530.2,272.4H7.8v-94h522.5V272.4z M15.1,265.6h507.9v-80.4H15.1V265.6z"/>
</g>
<g id="XMLID_166_">
	<path id="XMLID_187_" class="st1" d="M93.7,307.1c2.1,0.9,4.2,2.3,6,4.2l-5.6,5.6c-1.9-2.2-4.5-3.4-7.8-3.4s-5.5,0.8-6.4,2.4
		c-0.9,1.6-0.9,2.9,0,4.1c0.9,1.1,3.1,2,6.4,2.5c3.5,0.4,6.8,1.5,9.7,3.5c2.9,2,4.3,5.1,4.3,9.4c0,3.4-1.5,6.3-4.6,8.7
		c-3.1,2.4-6.7,3.6-10.8,3.6c-3.9,0-7.2-0.6-9.8-1.7c-2.6-1.1-4.9-2.6-6.7-4.5L74,336c1.9,2.2,5,3.5,9.5,3.9c3.7,0,6.1-0.8,7-2.4
		c0.9-1.6,0.9-3.2,0-4.8c-0.9-1.6-3.3-2.6-7-2.9c-3.4-0.4-6.4-1.4-9.2-3.1c-2.8-1.7-4.2-4.6-4.2-8.7c0-3.7,1.6-6.7,4.8-8.9
		c3.2-2.2,6.5-3.4,9.8-3.4C88.6,305.7,91.6,306.2,93.7,307.1z"/>
	<path id="XMLID_184_" class="st1" d="M105.6,347.7l16.8-42h8.4l16.8,42l-8.9,0l-2.5-6.4h-19l-2.5,6.4H105.6z M126.8,316.9l-6.4,16
		h12.6L126.8,316.9z"/>
	<path id="XMLID_182_" class="st1" d="M162.4,305.7v34.2h22.4v7.8H154v-42H162.4z"/>
	<path id="XMLID_180_" class="st1" d="M226,305.7v7.8h-14v34.2h-8.4v-34.2h-14v-7.8H226z"/>
	<path id="XMLID_177_" class="st1" d="M251.8,347.7v-42H268c13.1,0,19.6,7,19.6,21c0,14-6.5,21-19.6,21H251.8z M268,339.4
		c7.5,0,11.2-4.2,11.2-12.6c0-8.4-3.8-12.6-11.2-12.6h-7.8v25.2H268z"/>
	<path id="XMLID_175_" class="st1" d="M296.5,347.7v-42l30.9,0v7.8h-22.5v9h16.8v7.8h-16.8v9.6h22.4v7.8H296.5z"/>
	<path id="XMLID_173_" class="st1" d="M358.6,307.1c2.1,0.9,4.2,2.3,6,4.2l-5.6,5.6c-1.9-2.2-4.5-3.4-7.8-3.4s-5.5,0.8-6.4,2.4
		c-0.9,1.6-0.9,2.9,0,4.1c0.9,1.1,3.1,2,6.4,2.5c3.5,0.4,6.8,1.5,9.7,3.5c2.9,2,4.3,5.1,4.3,9.4c0,3.4-1.5,6.3-4.6,8.7
		c-3.1,2.4-6.7,3.6-10.8,3.6c-3.9,0-7.2-0.6-9.8-1.7c-2.6-1.1-4.9-2.6-6.7-4.5l5.6-5.6c1.9,2.2,5,3.5,9.5,3.9c3.7,0,6.1-0.8,7-2.4
		c0.9-1.6,0.9-3.2,0-4.8c-0.9-1.6-3.3-2.6-7-2.9c-3.4-0.4-6.4-1.4-9.2-3.1c-2.8-1.7-4.2-4.6-4.2-8.7c0-3.7,1.6-6.7,4.8-8.9
		c3.2-2.2,6.5-3.4,9.8-3.4C353.4,305.7,356.4,306.2,358.6,307.1z"/>
	<path id="XMLID_171_" class="st1" d="M372.7,305.7h8.4v42h-8.4V305.7z"/>
	<path id="XMLID_169_" class="st1" d="M393.2,341.7c-4-4-6-9-6-15.1c0-5.9,2-10.9,6-14.9c4-4,9-6,14.9-6c6,0,11.1,1.9,15.4,5.6
		l-5.6,6.1c-2.9-2.2-6.1-3.4-9.8-3.4c-3.8,0-6.8,1.2-9.1,3.5c-2.3,2.3-3.5,5.3-3.5,9c0,3.9,1.2,7,3.5,9.3c2.3,2.3,5.4,3.4,9.1,3.4
		c3,0,5.3-0.6,7-1.8v-7.2l-5.6,0v-7.8h14v19.6c-4.3,3.7-9.4,5.6-15.4,5.6C402.3,347.7,397.3,345.7,393.2,341.7z"/>
	<path id="XMLID_167_" class="st1" d="M432.1,347.7v-42h2.8l26.3,26.3v-26.3h8.4v42h-3.1l-26-26v26H432.1z"/>
</g>
<g id="XMLID_162_">
	<path id="XMLID_163_" class="st1" d="M530.2,373.7H7.8v-94h522.5V373.7z M15.1,366.9h507.9v-80.4H15.1V366.9z"/>
</g>
<g id="XMLID_110_">
	<path id="XMLID_123_" class="st1" d="M79.4,39c-2,0-3.5,0.4-4.6,1.2c-1.1,0.8-1.7,2-1.7,3.6c0,1.5,0.8,2.7,2.4,3.8
		c1.6,1.1,3.7,2.1,6.4,3.1c2.2,0.8,4,1.7,5.5,2.7c1.5,1,2.8,2.4,3.8,4.2c1,1.8,1.5,4,1.5,6.8c0,2.4-0.6,4.6-1.8,6.6
		c-1.2,2-3,3.6-5.4,4.8c-2.4,1.2-5.2,1.8-8.5,1.8c-2.7,0-5.5-0.4-8.2-1.2c-2.7-0.8-5.2-2-7.5-3.7l4-7c1.6,1.2,3.4,2.1,5.4,2.9
		c2,0.7,3.9,1.1,5.5,1.1c1.9,0,3.6-0.4,5-1.2c1.4-0.8,2.1-2.1,2.1-4c0-2.4-2.2-4.4-6.7-6.2c-2.6-1-4.8-2-6.5-3
		c-1.7-1-3.2-2.3-4.5-4.1c-1.3-1.8-1.9-4-1.9-6.7c0-3.9,1.3-7.1,3.9-9.5c2.6-2.4,6.1-3.7,10.4-3.9c3.4,0,6.2,0.4,8.5,1.2
		c2.3,0.8,4.5,1.9,6.7,3.3l-3.4,6.9C85.8,40.1,82.3,39,79.4,39z"/>
	<path id="XMLID_134_" class="st1" d="M154,31.3v37.1h21.5v8.7H145V31.3H154z"/>
	<path id="XMLID_136_" class="st1" d="M208,31.3V40h-11.1v37.1h-9V40h-10.7v-8.7H208z"/>
	<path id="XMLID_141_" class="st1" d="M237,31.3h13.7c5.9,0,10.7,1.1,14.4,3.4c3.8,2.3,6.5,5.2,8.3,8.8c1.7,3.6,2.6,7.4,2.6,11.6
		c0,4.4-1,8.3-3.1,11.6c-2.1,3.4-4.9,5.9-8.4,7.8c-3.5,1.8-7.4,2.7-11.6,2.7H237V31.3z M251.3,68.4c4.7,0,8.4-1.2,11.1-3.6
		c2.7-2.4,4.1-5.9,4.1-10.4c0-3.7-0.8-6.6-2.3-8.7c-1.5-2.2-3.3-3.7-5.3-4.5c-2-0.8-3.9-1.2-5.7-1.2H246v28.5H251.3z"/>
	<path id="XMLID_144_" class="st1" d="M316.2,31.3V40H294v9.8h19.7v8.7H294v9.9h23.1v8.7H285V31.3H316.2z"/>
	<path id="XMLID_146_" class="st1" d="M340.5,39c-2,0-3.5,0.4-4.6,1.2c-1.1,0.8-1.7,2-1.7,3.6c0,1.5,0.8,2.7,2.4,3.8
		c1.6,1.1,3.7,2.1,6.4,3.1c2.2,0.8,4,1.7,5.5,2.7c1.5,1,2.8,2.4,3.8,4.2c1,1.8,1.5,4,1.5,6.8c0,2.4-0.6,4.6-1.8,6.6
		c-1.2,2-3,3.6-5.4,4.8c-2.4,1.2-5.2,1.8-8.5,1.8c-2.7,0-5.5-0.4-8.2-1.2c-2.7-0.8-5.2-2-7.5-3.7l4-7c1.6,1.2,3.4,2.1,5.4,2.9
		c2,0.7,3.9,1.1,5.5,1.1c1.9,0,3.6-0.4,5-1.2c1.4-0.8,2.1-2.1,2.1-4c0-2.4-2.2-4.4-6.7-6.2c-2.6-1-4.8-2-6.5-3
		c-1.7-1-3.2-2.3-4.5-4.1c-1.3-1.8-1.9-4-1.9-6.7c0-3.9,1.3-7.1,3.9-9.5c2.6-2.4,6.1-3.7,10.4-3.9c3.4,0,6.2,0.4,8.5,1.2
		c2.3,0.8,4.5,1.9,6.7,3.3l-3.4,6.9C346.9,40.1,343.5,39,340.5,39z"/>
	<path id="XMLID_148_" class="st1" d="M371.8,31.3v45.8h-9V31.3H371.8z"/>
	<path id="XMLID_150_" class="st1" d="M417,74.8c-1.8,0.8-3.8,1.5-6,2c-2.2,0.5-4.2,0.8-5.9,0.8c-4.9,0-9.1-0.9-12.8-2.8
		c-3.7-1.9-6.5-4.5-8.5-7.8c-2-3.3-3-7.2-3-11.4c0-5.4,1.1-9.9,3.2-13.6c2.1-3.7,5-6.5,8.5-8.3c3.6-1.8,7.5-2.8,11.8-2.8
		c2.8,0,5.4,0.3,7.8,0.9c2.4,0.6,4.6,1.4,6.5,2.4l-2.9,8.4c-1.2-0.7-2.9-1.3-5-1.8c-2.1-0.6-3.9-0.8-5.3-0.8c-5,0-8.8,1.2-11.4,3.7
		c-2.6,2.5-4,6.2-4,11.1c0,2.8,0.6,5.3,1.9,7.4c1.3,2.1,3.1,3.7,5.4,4.8c2.3,1.1,4.9,1.7,7.9,1.7c2.8,0,4.9-0.4,6.3-1.2v-5.5h-7.9
		v-8.7h17.1v19.4C420.1,73.2,418.8,74,417,74.8z"/>
	<path id="XMLID_152_" class="st1" d="M472.4,31.3V79h-0.2l-32.1-29l0.2,27.1h-9.2V29.4h0.4l32,29.4l-0.2-27.6H472.4z"/>
</g>
<text id="XMLID_121_" transform="matrix(1 0 0 1 137.816 -87.107)" style="font-family:'JosefinSans-Bold'; font-size:67.1809px;">Salt Design</text>
<path id="XMLID_130_" class="st1" d="M124.3,68.1h-15.2l-3.7,9h-8.9l20.7-47.6h0.5l20.7,47.6h-10.5L124.3,68.1z M121.3,60.5
	l-4.4-11.1l-4.6,11.1H121.3z"/>
</svg>
