<?xml version="1.0" encoding="utf-8"?>
<!-- Generator: Adobe Illustrator 19.0.0, SVG Export Plug-In . SVG Version: 6.00 Build 0)  -->
<svg version="1.1" id="Layer_1" xmlns="http://www.w3.org/2000/svg" xmlns:xlink="http://www.w3.org/1999/xlink" x="0px" y="0px"
	 viewBox="0 0 919.6 237" style="enable-background:new 0 0 919.6 237;" xml:space="preserve">
<style type="text/css">
	.st0{fill:#778899;stroke:#778899;stroke-width:2;stroke-miterlimit:10;}
	.st1{fill:#778899;}
	.st2{fill:#2191ED;}
	.st3{fill:#3D9FEF;}
	.st4{fill:#8897A6;}
</style>
<g>
	<g>
		<g id="XMLID_227_">
			<path id="XMLID_293_" class="st0" d="M253.3,168.1h10.2c7.8,0,12.5,3.5,12.5,10.3v16c0,7-4.6,11-12.5,11h-10.2V168.1z
				 M263.5,204.4c7.1,0,11.1-3.5,11.1-10v-16c0-6.3-4-9.3-11.1-9.3h-8.8v35.3H263.5z"/>
			<path id="XMLID_296_" class="st0" d="M288.1,169.1v16.8h18.1v1h-18.1v17.5h19.6v1h-21v-37.3h21v1H288.1z"/>
			<path id="XMLID_298_" class="st0" d="M313.7,197.1h1.4c0.8,4.9,4.2,7.9,10.2,7.9c6.2,0,10-3.3,10-7.6c0-10.2-21.2-10.9-21.2-21.5
				c0-5,4.7-8.4,11.1-8.4c6.3,0,10.6,3.4,11.1,8.8h-1.4c-0.7-5-4.2-7.8-9.7-7.8c-5.6,0-9.8,3-9.8,7.4c0,9.9,21.2,10.6,21.2,21.5
				c0,4.9-4.4,8.6-11.4,8.6S314.3,202.2,313.7,197.1z"/>
			<path id="XMLID_300_" class="st0" d="M345.7,168.1h1.4v37.3h-1.4V168.1z"/>
			<path id="XMLID_302_" class="st0" d="M357.9,195.5v-17.2c0-7.3,5.3-10.8,12-10.8c6.7,0,12,3.1,12.1,9.9h-1.4
				c-0.3-6.2-4.8-8.8-10.7-8.8c-5.8,0-10.6,3-10.6,9.8v17.2c0,6.2,4.8,9.4,10.7,9.4c6.1,0,11-3.2,11-9.4v-8.3h-11.2v-1h12.6v9.3
				c0,6.8-5.6,10.4-12.4,10.4C363.3,205.9,357.9,202.3,357.9,195.5z"/>
			<path id="XMLID_304_" class="st0" d="M392.2,168.1h1.4l19,31c0.8,1.3,1.6,2.6,2.4,3.9v-3.3v-31.7h1.4v37.3H415l-19.2-31.2
				c-0.8-1.2-1.5-2.5-2.3-3.7v4.2v30.8h-1.4V168.1z"/>
			<path id="XMLID_306_" class="st0" d="M445.8,163h1.4v46.5h-1.4V163z"/>
			<path id="XMLID_308_" class="st0" d="M471.5,168.1h1.5l7.8,28.7c0.6,2.4,1.3,4.7,1.9,7.1c0.6-2.4,1.3-4.7,1.9-7.1l7.8-28.2h1.5
				l7.5,27.4c0.7,2.6,1.5,5.3,2.1,7.9c0.7-2.6,1.5-5.2,2.1-7.8l7.5-28h1.5l-10.4,37.3h-1.7l-7.7-27.2c-0.6-2.5-1.3-5.1-1.9-7.6
				c-0.6,2.5-1.3,5.1-1.9,7.6l-7.7,27.2h-1.7L471.5,168.1z"/>
			<path id="XMLID_310_" class="st0" d="M523.3,169.1v16.8h18.1v1h-18.1v17.5h19.6v1h-21v-37.3h21v1H523.3z"/>
			<path id="XMLID_312_" class="st0" d="M575.6,195.3c0,6.4-5.1,10.1-13.5,10.1H552v-37.3h9.7c7.4,0,11.9,3.4,11.9,9.3
				c0,3.9-2,7.5-7.7,8.6C573.1,187,575.6,190.8,575.6,195.3z M553.4,169.1v16.4h8.9c7,0,10-3.8,10-8.1c0-5.4-3.9-8.3-10.5-8.3H553.4
				z M574.2,195.3c0-4.6-3.7-8.8-12-8.8h-8.9v17.9h8.7C569.7,204.4,574.2,201.2,574.2,195.3z"/>
			<path id="XMLID_316_" class="st0" d="M602,163h1.4v46.5H602V163z"/>
			<path id="XMLID_318_" class="st0" d="M642.6,190.3h-8.4v15.1h-1.4v-37.3h9.8c8.4,0,13.2,4.1,13.3,10.9
				C655.9,186.1,651,190.3,642.6,190.3z M642.6,169.1h-8.4v20.2h8.4c7.7,0,11.8-3.8,11.9-10.3C654.5,172.7,650.2,169.1,642.6,169.1z
				"/>
			<path id="XMLID_321_" class="st0" d="M672.9,189.2h-8.2v16.2h-1.4v-37.3h9.9c8.2,0,12.3,3.6,12.3,10.5c0,6.5-4.2,10.4-11.2,10.7
				l11.7,16.2h-1.5L672.9,189.2z M664.8,188.2h9.3c6,0,10.1-3.2,10.1-9.7c0-6.4-3.7-9.5-10.9-9.5h-8.5V188.2z"/>
			<path id="XMLID_324_" class="st0" d="M694.8,168.1h1.4v37.3h-1.4V168.1z"/>
			<path id="XMLID_326_" class="st0" d="M708.3,168.1h1.4l19,31c0.8,1.3,1.6,2.6,2.4,3.9v-3.3v-31.7h1.4v37.3h-1.4l-19.2-31.2
				c-0.8-1.2-1.5-2.5-2.3-3.7v4.2v30.8h-1.4V168.1z"/>
			<path id="XMLID_328_" class="st0" d="M763.9,169.1h-11.3v36.3h-1.4v-36.3h-10.9v-1h23.6V169.1z"/>
		</g>
		<g id="XMLID_226_">
			<path id="XMLID_268_" class="st1" d="M249,122.4H267c0.2,11.1,7,16.5,17.9,16.5c11.8,0,17.5-6.2,17.5-14.8
				c0-21.4-51.4-22.6-51.4-54.6c0-15.5,13-27.2,33.7-27.2c21,0,33.7,11.8,34.2,30.2h-18.1c-0.4-10.3-6.5-15.2-16-15.2
				c-10,0-15.8,4.9-15.8,12.6c0,21.1,51.6,21.1,51.6,54.5c0,16-12.8,29.7-35.8,29.7C263.2,154,249.1,142.1,249,122.4z"/>
			<path id="XMLID_270_" class="st1" d="M396.3,98.1V152h-13.9l-1.2-7.7c-3.9,5.7-10.5,9.7-20.5,9.7c-17,0-28.4-9.8-28.4-25.1
				c0-16.5,13-24.9,33.5-24.9h13.5v-5.8c0-9.5-4-14.9-13.3-14.9c-7.5,0-13.2,3.5-14,10.8h-17c0.9-15.5,12.8-25.1,31.4-25.1
				C386.1,68.9,396.3,79.5,396.3,98.1z M379.3,116.4h-13.5c-10.3,0-16.3,4.3-16.3,12.5c0,7.4,5.4,11.8,14.7,11.8
				c9.3,0,15.1-5.2,15.1-13.7V116.4z"/>
			<path id="XMLID_273_" class="st1" d="M416.3,40.6h17V152h-17V40.6z"/>
			<path id="XMLID_275_" class="st1" d="M494.2,138.9v14h-6.5c-18.4,0-29.3-10.3-29.3-27.1V84.4h-13V70.9h13V51.7h16.8v19.2h17.2
				v13.5h-17.2V126c0,8.8,4.2,12.9,13.3,12.9H494.2z"/>
			<path id="XMLID_277_" class="st2" d="M512.7,44.3h26.8c21.9,0,34.6,10.9,34.6,30.8v45.4c0,20-13,31.5-34.6,31.5h-26.8V44.3z
				 M539.6,145.3c17,0,26.7-8.8,26.7-25.2V75.3c0-16.3-9.6-24.5-26.7-24.5h-18.9v94.5H539.6z"/>
			<path id="XMLID_280_" class="st2" d="M653.1,127.8c-1.4,16-11.6,25.7-29.8,25.7c-17.4,0-28.2-10.3-28.2-27.2V97
				c0-17.1,11.2-27.2,28.8-27.2S652.9,80,652.9,97v18h-50.3v11.2c0,13.4,7.9,20.8,20.9,20.8c13.9,0,20.5-6.9,22.1-19.2H653.1z
				 M602.5,97v11.8h42.6V97c0-13.4-8.1-20.8-21.4-20.8C610.6,76.3,602.5,83.7,602.5,97z"/>
			<path id="XMLID_283_" class="st2" d="M668.7,129.2h7.5c0.4,11.8,8.2,18,21.6,18c11.4,0,19.5-5.5,19.5-14.8
				c0-21.5-47.5-15.1-47.5-42c0-12.3,10.9-20.6,26.3-20.6c16.3,0,26.8,8.9,27.2,22.8h-7.5c-0.4-10.5-7.5-16.5-19.6-16.5
				c-11.2,0-18.6,5.5-18.6,14.5c0,20.8,47.5,14.2,47.5,42c0,12.6-11.6,21.1-27.2,21.1C680.4,153.7,669,144.4,668.7,129.2z"/>
			<path id="XMLID_285_" class="st2" d="M740.9,50.3c0-3.5,2.6-6,6.7-6c4.2,0,6.8,2.5,6.8,6c0,3.7-2.6,6-6.8,6
				C743.6,56.3,740.9,54,740.9,50.3z M743.9,71.5h7.5V152h-7.5V71.5z"/>
			<path id="XMLID_288_" class="st2" d="M830.9,71.5v85.7c0,14.9-10.7,24.3-27.4,24.3c-17,0-27.7-8.9-28.6-22.6h7.4
				c1.1,10.3,8.4,16.3,21.2,16.3c12.3,0,19.6-6.5,19.6-18v-16.6c-4.6,6-12.3,9.5-21,9.5c-16.7,0-28.6-10.3-28.6-27.4V98.3
				c0-18.2,11.8-28.5,28.2-28.5c9.3,0,17,3.8,21.7,10.9l0.7-9.2H830.9z M823.2,123.5V96.4c0-12.9-8.9-20.3-20-20.3
				c-13.2,0-22.1,7.4-22.1,22.2v24.5c0,13.5,8.9,21.1,22.1,21.1C815.1,143.8,823.2,136.3,823.2,123.5z"/>
			<path id="XMLID_291_" class="st2" d="M911.4,100v52h-7.5v-51.1c0-16.8-6-24.8-18.1-24.8c-13.5,0-23,10.3-23,26.8V152h-7.5V71.5
				h6.5l1.1,10.5v1.4c4.9-8.3,13.3-13.5,24.7-13.5C902.1,69.8,911.4,79,911.4,100z"/>
		</g>
	</g>
	<g>
		<g id="XMLID_57_">
			<g id="XMLID_170_">
				<g id="XMLID_225_">
					<path class="st3" d="M149.8,170.3c0-0.2-0.2-0.3-0.4-0.1l0.1,0.5L149.8,170.3z"/>
				</g>
				<g id="XMLID_224_">
					<path class="st3" d="M147.6,170.8c-0.2,0.4-0.3,0.9,0.1,1.2c0.1-0.6,0.2-0.5,0.3-1.1c0.2-0.2,0.5-0.2,0.6,0
						c0-0.2,0.5-0.2,0.4-0.5c-0.5-0.1-1,0.2-1.3,0.8C147.6,171,147.6,170.9,147.6,170.8z"/>
				</g>
				<g id="XMLID_223_">
					<path class="st3" d="M121.5,187.4l0.2-0.1C121.7,187.3,121.6,187.4,121.5,187.4z"/>
				</g>
				<g id="XMLID_222_">
					<path class="st3" d="M106.3,185.3c0.1,0.1,0.2,0.1,0.2,0C106.4,185.3,106.3,185.3,106.3,185.3z"/>
				</g>
				<g id="XMLID_221_">
					<path class="st3" d="M103.8,183.2c0.1,0,0.1,0.1,0.1,0.1C103.9,183.2,103.8,183.2,103.8,183.2z"/>
				</g>
				<g id="XMLID_220_">
					<path class="st3" d="M121.5,187.4l-0.5,0.2C121.1,187.7,121.3,187.5,121.5,187.4z"/>
				</g>
				<g id="XMLID_219_">
					<path class="st3" d="M144.7,174c0.1-0.1,0.1-0.2,0.2-0.3L144.7,174L144.7,174z"/>
				</g>
				<g id="XMLID_218_">
					<path class="st3" d="M128.3,182.4l0.1-0.1c0-0.1,0-0.1,0-0.2L128.3,182.4z"/>
				</g>
				<g id="XMLID_217_">
					<path class="st3" d="M133.7,178.7c-0.1,0.1,0,0.4,0.1,0.6c0-0.2,0-0.3,0.1-0.4C133.8,178.9,133.8,178.8,133.7,178.7z"/>
				</g>
				<g id="XMLID_216_">
					<path class="st3" d="M142.6,173.6l0.1-0.1C142.7,173.5,142.6,173.5,142.6,173.6z"/>
				</g>
				<g id="XMLID_215_">
					<path class="st3" d="M124.4,184.9c0,0-0.1-0.1-0.1-0.1C124.3,184.9,124.4,184.9,124.4,184.9z"/>
				</g>
				<g id="XMLID_214_">
					<path class="st3" d="M143.8,164.2C143.8,164.2,143.8,164.2,143.8,164.2C143.9,164.2,143.9,164.2,143.8,164.2z"/>
				</g>
				<g id="XMLID_213_">
					<path class="st3" d="M149.3,169.6l-0.1,0c0,0.1,0,0.1-0.1,0.2C149.2,169.8,149.3,169.6,149.3,169.6z"/>
				</g>
				<g id="XMLID_212_">
					<path class="st3" d="M99,179.5C99,179.5,99,179.5,99,179.5C99.2,179.6,99.1,179.6,99,179.5z"/>
				</g>
				<g id="XMLID_211_">
					<path class="st3" d="M71.9,141.3c-0.3,0.6-0.4-1-0.8-0.1C71.2,141.1,71.7,142.1,71.9,141.3z"/>
				</g>
				<g id="XMLID_210_">
					<path class="st3" d="M144.5,174.1c-0.1,0.1-0.1,0.1-0.2,0.2C144.4,174.2,144.5,174.1,144.5,174.1z"/>
				</g>
				<g id="XMLID_209_">
					<path class="st3" d="M71.1,141.2L71.1,141.2L71.1,141.2C71.1,141.3,71.1,141.3,71.1,141.2z"/>
				</g>
				<g id="XMLID_208_">
					<path class="st3" d="M87.2,172.3c0,0.1,0,0.1,0,0.2C87.3,172.5,87.3,172.4,87.2,172.3z"/>
				</g>
				<g id="XMLID_207_">
					<path class="st3" d="M95.6,178.3l-0.2-0.2C95.5,178.2,95.5,178.3,95.6,178.3z"/>
				</g>
				<g id="XMLID_206_">
					<path class="st3" d="M82.4,169.9c-0.1-0.1-0.1-0.2-0.3-0.2c0,0,0,0,0,0.1C82.2,169.7,82.3,169.8,82.4,169.9z"/>
				</g>
				<g id="XMLID_205_">
					<path class="st3" d="M77.7,166.9c0,0,0,0.1,0,0.1c0.1,0,0.1,0.1,0.2,0.1L77.7,166.9z"/>
				</g>
				<g id="XMLID_204_">
					<path class="st3" d="M129.5,155.3c0,0.2,0,0.3,0,0.4C129.6,155.4,130.4,155.8,129.5,155.3z"/>
				</g>
				<g id="XMLID_203_">
					<path class="st3" d="M144.5,173.9c0,0.1,0,0.2,0,0.2l0.1-0.1C144.6,173.9,144.6,173.9,144.5,173.9z"/>
				</g>
				<g id="XMLID_202_">
					<path class="st3" d="M80.6,172.3l-0.7-0.5C80.1,172,80.4,172.2,80.6,172.3z"/>
				</g>
				<g id="XMLID_201_">
					<path class="st3" d="M96.4,148.3l0.2,0.1C96.5,148.3,96.4,148.3,96.4,148.3z"/>
				</g>
				<g id="XMLID_200_">
					<path class="st3" d="M77.7,170.4c-0.1-0.2-0.2-0.4-0.3-0.5c0,0-0.1,0-0.1,0L77.7,170.4z"/>
				</g>
				<g id="XMLID_199_">
					<path class="st3" d="M130,155.7L130,155.7L130,155.7z"/>
				</g>
				<g id="XMLID_194_">
					<path class="st3" d="M134.9,158.1c-0.7-0.5-0.6,0.2-0.9,0.3c-0.9-0.4-0.2-0.6-0.3-1c-0.6-0.2-1.3-0.1-1.6-0.4
						c0-0.1,0-0.2,0.1-0.2c-0.8,0-1.7-1-2.6-1c0-0.1,0-0.1,0-0.2c0,0.3-0.2,0.5-0.3,0.6c-0.3-0.2-0.8-0.1-0.7-0.5
						c0.2,0.1,0.3,0,0.4,0l-0.4-0.1c0-0.6,0.5,0.2,0.7-0.1c-0.7-0.3-1.7-0.4-2.2-0.9c0.2-0.4,1.3,0.6,0.8-0.1l0.7,0.6
						c-0.2-1,0.4,0.3,0.3-0.7c-0.5-0.4-0.8-0.5-1.1-0.6c-0.5-0.3-1-0.5-1.9-1.2c-0.4,0,0.1,0.5-0.3,0.6c0,0-0.1,0-0.1-0.1
						c-1.6,1.7-2.4,0.3-3,1.5c-0.1,0.4,0.2,1-0.7,1.3l-0.1-0.6c-1,0.7-0.1,1-1.3,1.4c0.1-0.3,0.6-0.7,0.5-0.6
						c-0.9,0.1-0.3,0.6-0.8,0.9l-0.4-0.3c-0.9,0.8-1.8,1.9-2.9,2.8c0-0.2,0.1-0.4-0.3-0.3c-0.2,0.2-0.3,0.3-0.5,0.4l-0.5,0.4
						c-0.1,0.1-0.3,0.2-0.4,0.2c-0.1-0.1-0.2-0.2-0.3-0.4c0,0,0,0,0,0l-0.1-0.1l-0.2-0.2c-0.2-0.1-0.3-0.3-0.5-0.4l-0.8,0
						c-0.1-0.1-0.1-0.3,0-0.3c-0.5-0.5-0.2,0.2-0.5,0.2c-0.3-0.2-0.3-0.5,0-0.4c-1.2-0.3-3.2-1.1-3.9-2.1l0.3,0
						c-0.7-0.6-1.3,0.1-1.9-0.7l0.2,0c-1.6-1.2-3.7-2.1-4.7-3.5c-0.6,0.3-1.6-1.3-2.1-0.7c-0.8-1-0.4-0.9-1.7-2
						c-0.4-0.3-0.8,0.1-1.3-0.1l0.2-0.4l-0.9,0l-0.1-0.6l-0.5-0.2c0.2,0.1,0.3,0.4,0.2,0.5c-0.8-0.3-1.5-1.3-1.4-1.5l-1.8-0.7
						c0.1-0.1,0.4,0,0.7,0c-1.1-0.2,0.1-0.5-0.9-0.6c0.1,0.1-0.2,0.2-0.3,0.2c-0.3-0.5-1.1-1-1.8-1.3l0.3-0.2
						c-1.1-0.8-2.6-1.5-3.9-2.3c0.4,0.4,0,0.8-0.4,0.6l0.1-0.5c-0.4,0.1,0.3,0.4-0.4,0.4c-0.5-0.4-0.1-0.6,0.3-0.6l-0.7-0.3
						c0-0.1,0.2-0.1,0.3-0.2c-0.4,0.1-0.8-1-1.4-0.9l0-0.1c-1.3-0.8-2-1.1-3.1-1.8c-0.2,0.3-0.6,0-1.1,0c-0.7-0.6-1.4-1.4-2.4-2
						c-0.8-0.3-0.4,0.1-0.8,0.2c0.1-0.3-0.8-0.9-0.2-0.8c-1.2-0.7-1.5-0.9-3.1-1.5c0.1,0.2,0.2,0.4,0.1,0.4
						c-0.3-0.1-0.5-0.5-0.4-0.6l0.1,0l-0.2-0.1l-0.3-0.2c-0.2-0.1-0.5-0.3-0.7-0.4c-0.5-0.3-0.9-0.7-1.4-1c-1-0.8-2.2-1.8-3.3-2.6
						c-0.1,1-0.1,2.2,0.1,3.3l0-0.2l0.4,2.9c-0.1,1.2-0.3-0.8-0.5,0c0.1,0.4,0.1,0.8,0.2,1.1c0,0.2,0.1,0.4,0.1,0.6c0,0.4,0,0.7,0,1
						c0,0.6-0.1,1.2,0.1,1.9c-1,1.1,0.1,3.9-0.6,5.4l0.2-0.1c0.2,0.4-0.1,0.5-0.2,0.7c0.2,0,0.2-0.4,0.3-0.2c0.3,3.2-0.4,6.7-0.6,10
						c-0.1,1.2,1.2,0.7,0.7,2.2l-0.4-0.4c0.2,0.8,0.2,1.6,0.2,2.4c0,1.1,0,2.2,0,3.3l1,0.6l0.9,0.6c0.4,0.2,0.8,0.4,1.2,0.6
						c-0.2,0-0.3,0.1-0.4,0c0.3,0.5,1.6,1,1.7,0.8c0.3,0.2-0.1,0.2,0.1,0.5c0.3,0.4,1.3,0.3,1.3,0.7c0,0.1-0.2,0-0.3,0
						c0.4,0,1.3,0.9,1.2,0.4c0.7,0.6,1.5,0.8,2,1.4c0.6-0.1,1.2,1,1.6,0.6c-0.4,0.5,1.1,1.3,1.7,1.3c-0.3,0.1,0.3,0.4,0,0.5
						c0.6,0.3,1.1,0.6,1.2,0.2c0.6,1.3,2.3,0.8,2.4,1.9c1.8,0.8,3.4,1.5,5,2.3c-0.4,0.5-1.6-1-1.9-0.4c1.5,0.7,2.6,0.7,3.9,1.7
						c0.3,0.3-0.3,0.1-0.5,0.1c1.5,0.7,2.6,1.7,4.1,2.3c0,0-0.2,0-0.4,0c0.3,0.1,0.5,0.4,0.6,0.2l-0.3-0.1c-0.2-0.6,1.4-0.1,1.6-0.3
						c-0.8,0.4,1.1,0.9-0.1,1.4c0.2,0.1,0.5,0.1,0.5-0.1c0.2,0.2,0.2,0.3-0.1,0.4c1,0.4,0.8,0,1.6,0.5c-0.1,0.1-0.3,0.1-0.4,0.1
						c0.5,0,1.1,0.1,1.7,0.6c-0.1,0-0.1,0.2-0.3,0.1c1.2,0.7,2.3,0.6,3.4,1.7c-0.7,0.3,0.3,0.4,0.1,0.9l0.8,0.3l-0.1-0.4
						c0.6,0.4,1.3,0.4,1.7,0.9l-0.6-0.1l1.2,0.6l-0.5-0.6c0.7,0.2,0.3-0.4,1,0.3c-0.2-0.1,0.6,1,0.7,1h0c0.4,0,0.8-0.1,1.1,0.3
						c0,0.2-0.4,0.3-0.4,0.4c0.5-0.2,1.4,0.7,2.1,0.6c-0.2,0-0.3,0.2-0.3,0.3l0.4-0.1c0.2,0.3,0.2,0.3,0.1,0.5
						c0.8,0.6,0.1-0.7,0.9,0.1c-0.1,0-0.1,0-0.3,0c0.9,0.7,2,1,2.8,1.7c0,0.6-0.9-0.4-0.8,0.2c0.4,0.2,0.7,0.4,1.2,0.6
						c0.5,0.3,1.1,0.5,1.6,0.8c0.8-0.7,1.6-1.3,2.1-1.6l-0.3,0.1c-0.2-0.7,1.1-0.3,1.6-1c-0.1,0.1,0,0.5,0,0.4
						c0.9-0.5,1.6-1.3,2.8-2.4l-0.1,0.3c0.6-0.2,1.4-0.8,2-1.1c0.1-0.3,0.4-0.4,0-0.5c2.3-0.2,2.9-2.6,4.8-2.9
						c-0.2,0.1-0.3,0.4-0.2,0.3l1.2-1c-0.3-0.2-0.3,0-0.7-0.1c0.1-0.3,0.3-0.6,0.6-0.8c-0.5,0.6,0.3,0.4,0.6,0.4
						c-0.1-0.1-0.1-0.2-0.1-0.3c1,0-0.2-0.6,0.9-0.9l0,0.2c0.3-0.3,0.5-0.7,0.9-0.9c0.4,0.2-0.3,0.4-0.1,0.6
						c0.5-0.4,0.6-1.2,1.3-1.3c-0.2,0.2-0.5,0.4-0.6,0.7c0.7,0,0.7-0.1,1.1-0.3l0,0l1-0.4l-0.3,0.1c0.1-1.2,1.2-1,1.7-2.1
						c-0.5,1,0.1,0.4,0.2,0.8c0.3-0.1,0.7-0.2,0.7,0c0.2-0.5,0.8-0.2,1.1-1c0.1,0.1,0.4-0.3,0.5,0.1c0.5-0.4-0.3-0.1-0.3-0.3
						c0.6-0.9,2.2-0.8,3-2.1c0.9-0.9,0.8-1.4,1.6-2.2c0.4,0,0,0.6,0,0.6c0.6-0.2,1-0.5,1.4-0.9c0,0.2,0.1,0.2,0.4,0.2
						c0.4-0.3,0-0.6,0.6-0.8c0,0.2,0,0.5-0.1,0.7c0.4-0.4,0.7-0.9,1.1-1.3c0.3,0.1-0.1,0.5-0.2,0.7c0.5-0.4,1.3-1.1,1.2-1.5
						l-0.4,0.1c0.2-0.1,0.3,0.2,0.2,0.3c-0.3,0.5-0.7,0.3-0.8,0.2l0.3-0.3c-0.8-0.4-1.3,1-2,1.4l0-0.7l-0.4,0.9
						c-0.2,0-0.5-0.2-0.2-0.5c-0.6,0.1-0.3,0.5-0.9,0.5c-0.1,0-0.1,0,0-0.1l-0.4,0.5c0-0.2-0.3-0.3,0-0.4c-1,0.3-1.1,1.3-1.7,1.1
						l0.1-0.1c-1.1,0.9,0.1,0.4-0.5,1.4l-1.2-0.5l0.1,0.4c-0.1,0.1-0.4,0.2-0.4,0c-0.3,0.5,0.2,0.1,0.1,0.5c-0.8,0.1-1.5,1.2-2,0.8
						c0,0.4,0.7-0.2,0.2,0.4c-0.6-0.5-0.7,0.6-1.4,0.7c0-0.4,0.6-0.6-0.1-0.5c0,0.7-1.1,0.6-1.5,1c0.3,0.4-0.9,0.8-1.5,1.5
						c0-0.2-1.6,0.7-2.4,1l0-0.1c0.1,0.5-0.6,0.9-1.1,1.3c-0.1-0.3-0.1-0.4,0.1-0.7l-0.5,0.3c0,0.2-0.1,0.4-0.4,0.6l-0.1-0.4
						c-0.6,0.5-1.1,1.3-2.1,1.6c0.1,0.3,1.2,0.4,0.4,1.1c-0.1-0.1-0.3-0.4-0.2-0.6c-0.1,0.1-0.2,0.3-0.4,0.4l0.2-0.5
						c-0.5,0.1-0.1,0.4-0.4,0.5c-0.1-0.2-0.3,0-0.4-0.2c0.1-0.1,0.3-0.1,0.4-0.3c-0.4,0.2-0.9,0.3-1.1,0.3c0.1,0.1,0.2,0.3,0,0.5
						c-0.6,0.5-0.4-0.1-0.9,0c-0.1,0.3-0.6,0.4-0.4,0.7c-0.2,0.1-0.3,0-0.5,0c-0.2,0.4-1.6,1.1-0.9,1.2l0.1,0.2l0,0.3h0h0
						c-0.9,2-2.4,1.1-3.5,2l-0.1-0.3c-0.6,0.6-1.4,1-1.7,1.5c-0.2,0.1-0.5,0-0.5-0.2c-0.2,0.2-0.3,0.4-0.6,0.5
						c-0.1-0.1-0.2-0.2-0.3-0.3c0.3,0,0-0.3,0.3,0c0,0,0,0,0.1,0c0,0,0,0-0.1,0c-0.2-0.2-0.3-0.3-0.4-0.4c-0.1,0-0.1-0.1-0.2-0.1
						c0,0-0.1,0-0.1,0c-0.1,0-0.2,0-0.3-0.1c0.4-0.1-0.3-0.7-0.6-0.8l0.3,0.5c-0.4-0.2-0.7-0.4-1-0.6l0.4-0.3
						c-1.1-1.3-3-0.8-3.5-2.2c-0.5,0,0.6,0.7,0.1,0.8c-0.6-0.5-0.9-1.4-1.1-1.5c-0.7-0.8-1.2,0-2-0.7c0,0.2-0.1,0.6-0.8,0.3
						c-0.6-0.5-0.4-1.1,0.1-0.9c0.2,0.1,0.2,0.2,0.2,0.2c0.2,0.1,0.5,0.2,0.4-0.1l-0.2,0.1c-0.2-0.3-1.1-0.9-0.8-1
						c-0.6-0.2-0.3,0.1,0,0.4c-0.7-0.7-1.3-0.8-2-1.5c0.1,0.2,0.1,0.4,0,0.3c-1.1-0.9-0.7-0.1-1.6-0.5c-0.3-0.5,0.5-0.4-0.5-0.7
						c-0.4-0.5,0.1-0.4,0.4-0.4c-0.9-0.2-1.3-1.1-1.7-1.4l0.5,0.1c-0.3-0.1-0.5-0.2-0.7-0.3l0.1,0.4c-0.2-0.2-0.4-0.3-0.3-0.4
						c-0.4,0-0.1,0.6-0.7,0.5c-0.2-0.3-1-0.5-0.9-0.9c0.9,0.7,0.1-0.4,1,0c-0.2-0.1-0.4-0.2-0.6-0.4c0-0.1,0.1-0.1,0.2,0
						c-0.7-0.9-0.7,0.1-1.7-0.5c0.3-0.1,0-0.5-0.2-0.6c0.4,0.3,0,0.5-0.5,0.4c-0.5-0.6-0.8-0.3-1.1-0.5l0.3,0.3
						c-0.3,0.1-0.6-0.1-1-0.3c0.1-0.2,0.5,0.1,0.4,0c-0.7,0-0.9-1.1-1.7-1.3c-0.2-0.3,0.2-0.4,0-0.7c-0.9-0.2-0.6-0.8-1.6-1.1
						c0.1,0.4,0.1,0.4-0.6,0.3l1.4,0.6l-1.1-0.1c0.4,0.3,0.9,0.4,1.1,0.6c-0.5,0-0.5-0.1-0.4,0.3c-0.3-0.8-1.2-0.4-1.7-1.1l0.4-0.7
						c-0.7-0.9-1.9-0.7-3-1.7l0.3,0.4c-0.3,0.2-0.8-0.4-1.2-0.6c0.2-0.2,0-0.4-0.1-0.7c-0.1,0.2-0.9-0.6-1.3-0.2l-0.4-0.6
						c-0.9-0.7-1.5-0.1-2.4-0.7c0.4-0.1,0.1-0.5,0.9-0.3c-0.3-0.2-0.6-0.4-0.7-0.3c-0.1-0.3-1.1-0.3-1.2-0.7c-0.2,0-0.4,0.2-0.7,0
						c0-0.1,0.1-0.1,0.1-0.1c-0.1,0.1-0.7-0.2-0.5,0.2c-0.5-1.3-2.7-1.7-3.2-2.8c-0.7-0.4-1.6-0.8-2.2-1.2c0.1,0,0.1-0.1,0.2,0
						c-0.7-0.8-0.9,0.3-1.8-0.5c-0.3-0.7,0.6,0.1,0.4-0.2c0.3-0.8-1.2-0.7-1.6-1.5l0.2,0.1c-0.2-0.3-0.5-0.4-0.9-0.5
						c-0.2,0-0.5,0-0.7-0.2c0,0,0-0.1,0-0.1c0,0,0.1,0,0.1-0.1c-0.1,0-0.2-0.1-0.3-0.2c-0.1-0.1-0.1-0.3-0.2-0.6
						c-0.1-0.5-0.2-1.1-0.2-1.5c0.3,0.3,0.2,0.4,0.5,0.2c0-0.4-0.6,0.1-0.7-0.7c0.2-0.3,0.4-0.9,0.7-1l0,0.8c0.5-0.4,0-1,0.1-1.4
						l0.2,0.1c-0.1-1.2-0.6-1.2-0.6-2.5l-0.2,0.1c-0.5-0.7,0.3-0.6-0.1-1.3l0.5-0.2c-0.1-0.5-0.5-1.6-0.6-2.5
						c0.4,0.5,0.6,1.5,0.8,2.1c0-0.5,0-1.6-0.3-1.8c0.1,0.2,0.2,0.4,0.1,0.6c-0.4-0.6-0.6-1.3-0.6-2.3c1,0.2,0.3-2.4,1.1-3.1
						c-0.4-1.6,0.2-3.3,0.1-5.2c-0.8,0.7,0-0.6-0.9-0.4c-0.1-0.4,0-0.6,0-0.7l0.5-1.4c0.2-0.3,0.2,0.4,0.4,0.4
						c0.1-1,0.4-0.4,0.6-1.1c-0.3,0.1-0.4-0.3-0.3-0.9l-0.4,0.8c-0.2-0.7,0-1,0.1-1.3c0.2-0.3,0.3-0.1,0.1-0.3c0,0,0.3,0.2,0.3,0.2
						c-0.1-0.1-0.1-0.1-0.1-0.3c-0.2-0.4-0.4-0.8-0.5-1.1c0,0,0,0,0-0.1c0.1,0.2,0.4,0.6,0.4,0.7c0.2,0.2,0.2,0,0.5,0
						c0.1,0,0.3,0,0.4,0.1c0.4,0.2,0.7,0.4,0.9,0.7l-0.2,0.1c0.3,0.1,0.7,0,0.9,0.4c-0.1,0.1-0.2-0.8-0.1-0.7c0.2,0,0.9-0.5,1.2-0.5
						h-0.4c1.3,4,2.4,1.8,3.7,2.4c-0.3,0.5,0.7,1.8,1.2,2.3l-0.1,0.3c1.6,1.1,3,1.4,4.6,2.2c0.6,1.1,3,2.3,4.3,3.5
						c-0.2-0.2,0.3-0.3,0.6-0.2c0.3,0.3,1.2,0.3,0.8,0.7l-0.1-0.1c0,0.6,0.8,1,1.3,1.3l0.5-0.5c0.9,1.8,4.1,2.1,4.4,3.4
						c0.5,0.1,0.9,0.4,1.3,0.4l-0.2,0.3c0.9,0.7,1.4,1.1,2.7,1.8l-0.4,0.1c0.7,0.5,1.5-0.4,2.1,0l-0.1,0.6c1.2,0.8,2.2,1.9,3.6,2.3
						c-0.1,0.1-0.2,0.2-0.4,0.1c0.6,0.4,2,1.7,2.2,0.9c-0.3,0.4,1.2,0.8,2,1l-0.3,0.3c0.8-0.1,0.9-0.2,1.7,0.2
						c0.2,0.2,0,0.4-0.2,0.1c0.5,0.5,0.7,0,1.3,0.6l-0.4,0c0.6,0.4,0.6,0.3,1.1,0.3c0.5,0.1,1.1,0.8,1,1.2c0.2-0.1,0.8-0.1,1.2,0.3
						c0,0.2-0.2,0.1-0.3,0.1c0.4,0.3,0.7,0.5,1,0.7c0.8-0.7,1.3-1.5,2-1.6c0.1,0.1,0.2,0.1,0.2,0.1c-0.5,0.4-1,0.7-1.3,1
						c-0.4,0.3-0.6,0.4-0.6,0.4c0,0.4,1.2-0.4,0.4,0.8c0.2-0.2,0.5-0.5,0.7-0.8c0.1-0.1,0.3-0.3,0.4-0.5c0.1-0.2,0.3-0.3,0.3-0.4
						c0.3-0.4,0.6-0.7,0.9-0.9c0.1,0,0.1,0,0.2,0l0,0.1c0.2-0.1,0.3-0.2,0.4-0.3c0.2-0.1,0.4-0.2,0.6-0.3c0.2,0.2,0.8-0.4,1.1-0.6
						c-0.3-0.3,0.2-0.5-0.4-0.5c0.1,0-0.6,0.1-0.8,0.3c0,0-0.6,0.1-0.6,0.1v0c0,0.2,0.1,0.4-0.2,0.6c0.1-0.3,0.6-0.7,1-0.8
						c0-0.3,0.2-0.7,0.2-0.8c0.7,0.1,1.8-0.3,2.1-0.1c0.8-0.9,2.2-1.8,2.4-2.8c0.2-0.3,0.4-0.1,0.5,0c0,0.1-0.2,0.2-0.2,0.4
						c0.1-0.1,0.3-0.3,0.4-0.5c0.1-0.1,0.3-0.3,0.4-0.5c0.1,0,0.2-0.1,0.2-0.2c0.4,0.6-0.3,0.4,0.3,0.6l-0.1,0.1
						c0,0.1,0.1,0.2,0.1,0.2l0.1,0.1c0,0,0.1,0.1,0.1,0.1c0.2,0.2,0.4,0.3,0.7,0.4c0.5,0.2,0.9,0.3,1.4,0.5c1,0.3,2,0.6,2.8,1.7
						c-0.1-0.1-0.2-0.2-0.2-0.3c2.2,2,5.3,2.9,7.4,5.1c0.6,0.6,0.9,0.3,1.4,0.4l-0.1,0.4l1,0.1c1.2,0.4,1.3,2,2.9,2.2l0-0.3
						c0.4,0.3,1.6,0.8,1.3,1c0.1,0,0.3-0.1,0.4,0.1l-0.1,0.2l1.4,0.4c0.8,0.7-0.6,0.6,0.7,1.5c0.3,0.1,0.7,0.2,1.1,0.2
						c0.7,0.1,1,0,0.8-0.1c-0.2-0.1-0.4-0.2-0.6-0.3c-0.1-0.1-0.1-0.2-0.1-0.3c0,0,0.6,0.2,0.6,0.1l0.1-0.2l0-0.1
						c0,0,0.3-0.2,0.3,0.1l0.3,0.1v0v-0.3v0l-0.3,0l-0.2-0.1l-0.1-0.1c0-0.1,0-0.2,0-0.2l-0.2,0.1l-0.2,0.1h0.7h0.3v0.6v0l-0.3,0
						l-0.2-0.1c0-0.2-0.1-0.6-0.1-0.9c0-0.1,0-0.2,0-0.2c0,0,0-0.1,0.1-0.1c0,0,0.1,0,0-0.1c-0.1-0.1-0.1-0.2-0.3-0.3
						c0,0-0.2,0-0.5,0c-0.2,0-0.5-0.1-0.5-0.1l-0.1-0.4l0.6,0.4c-0.2-0.5-0.6-0.4-0.9-0.4c0-0.2,0-0.3-0.1-0.5l-1.1,0.1
						c0-0.3,0.6-0.2,0.2-0.6c-0.5,0,0,0.7-0.6,0.5c-0.2-0.5,0-0.6-0.5-0.7c0-0.2,0.2-0.2,0.4-0.2c-0.5-0.1-1-0.6-1.4-0.4
						c-0.2-0.5-1.3-0.7-1-1.2c-0.2,0-0.9,0-1.3-0.2c1-0.2-1.3-0.9-0.7-1.4c-0.8,0.2-1.8-0.8-2.9-1.1c0.1,0,0.2,0,0.3,0
						c-0.4-0.3-0.5-0.6-0.7-0.9c-0.3,0.4-1.1,0-1.7,0.1c-0.3-0.8,0.7-0.3,0.8-0.8c-0.2,0.4-1.2-0.3-1.2,0.2
						c-0.3-0.5-0.3-0.4-0.3-0.9c-0.4,0.5-0.5-0.2-1.1-0.1c-0.5-0.7,0.2-0.6-0.6-0.9C134.2,157.9,134.9,158.1,134.9,158.1z
						 M117,159.8L117,159.8c0.1-0.1,0.2-0.2,0.3-0.3C117.3,159.6,117.2,159.6,117,159.8z M115.9,160.6c0.1-0.1,0.2-0.1,0.4-0.3
						c0.1,0.1,0.2,0.2,0,0.3c0-0.1-0.1,0-0.2,0C116.1,160.6,116,160.7,115.9,160.6z M120.1,160.8c-0.2,0.2-0.3,0.2-0.4,0.2
						c0.1-0.1,0.2-0.2,0.3-0.3c0,0,0,0,0-0.1C120.1,160.6,120.1,160.7,120.1,160.8z"/>
				</g>
				<g id="XMLID_193_">
					<path class="st3" d="M120.2,160.1C120.2,160.1,120.2,160,120.2,160.1c0-0.1-0.1-0.1-0.1-0.1l0,0.2L120.2,160.1z"/>
				</g>
				<g id="XMLID_192_">
					<path class="st3" d="M121.7,187.3L121.7,187.3C121.7,187.3,121.8,187.3,121.7,187.3C121.8,187.3,121.8,187.3,121.7,187.3z"/>
				</g>
				<g id="XMLID_191_">
					<polygon class="st3" points="98,149.1 98,149.2 98.1,149.2 					"/>
				</g>
				<g id="XMLID_190_">
					<path class="st3" d="M130,183.4c0,0,0.1,0,0.2,0C130.2,183.3,130.1,183.3,130,183.4z"/>
				</g>
				<g id="XMLID_189_">
					<path class="st3" d="M133.3,181.2l0.5-0.2C133.6,181.1,133.5,181.2,133.3,181.2z"/>
				</g>
				<g id="XMLID_188_">
					<path class="st3" d="M136,179.7c0-0.1,0-0.1,0-0.2l0,0L136,179.7z"/>
				</g>
				<g id="XMLID_187_">
					<path class="st3" d="M94.4,180.6c0,0-0.1,0-0.1,0C94,180.4,94.2,180.5,94.4,180.6z"/>
				</g>
				<g id="XMLID_186_">
					<path class="st3" d="M106.9,187.5c-0.2,0-0.3,0-0.5-0.1C106.7,187.5,106.8,187.7,106.9,187.5z"/>
				</g>
				<g id="XMLID_185_">
					<polygon class="st3" points="80.7,172.4 80.7,172.4 80.6,172.3 					"/>
				</g>
				<g id="XMLID_184_">
					<path class="st3" d="M105.9,187c0.2,0.2,0.4,0.3,0.6,0.4C106.3,187.2,106.1,187.1,105.9,187z"/>
				</g>
				<g id="XMLID_183_">
					<path class="st3" d="M146.9,172.6l0.1-0.1c0,0,0,0,0-0.1L146.9,172.6z"/>
				</g>
				<g id="XMLID_182_">
					<path class="st3" d="M147,172.4l0.1-0.1C147.1,172.4,147,172.4,147,172.4z"/>
				</g>
				<g id="XMLID_181_">
					<path class="st3" d="M147.4,172.1l-0.2,0.3C147.2,172.3,147.4,172.2,147.4,172.1z"/>
				</g>
				<g id="XMLID_180_">
					<path class="st3" d="M143.5,174.7l0,0.1C143.5,174.8,143.5,174.7,143.5,174.7z"/>
				</g>
				<g id="XMLID_179_">
					<path class="st3" d="M142.5,175.4c0.3-0.1,0.8-0.2,1.1-0.5l0-0.1C143.5,175.1,142.6,175,142.5,175.4z"/>
				</g>
				<g id="XMLID_178_">
					<path class="st3" d="M137.4,176.8l0.9-0.5c-0.2,0-0.5-0.1-0.2-0.3C136.8,176.3,138.5,176.1,137.4,176.8z"/>
				</g>
				<g id="XMLID_177_">
					<path class="st3" d="M134.6,178.3c0.4-0.4-0.1-0.2-0.1-0.3C134.3,178.4,134.2,178.5,134.6,178.3z"/>
				</g>
				<g id="XMLID_176_">
					<path class="st3" d="M115.9,190.9l-0.1-0.4C115.6,190.7,115.8,190.7,115.9,190.9z"/>
				</g>
				<g id="XMLID_175_">
					<polygon class="st3" points="112,191.1 112.2,191.5 112.5,191.3 					"/>
				</g>
				<g id="XMLID_174_">
					<polygon class="st3" points="111.1,187.6 111.3,187.7 110.7,187.4 					"/>
				</g>
				<g id="XMLID_173_">
					<path class="st3" d="M78.7,167.2l-0.1,0.4C78.9,167.7,79.2,167.3,78.7,167.2z"/>
				</g>
				<g id="XMLID_172_">
					<path class="st3" d="M71.3,156c0.2-0.2,0.4-0.6,0.1-0.9C71.4,155.5,71.3,155.9,71.3,156z"/>
				</g>
				<g id="XMLID_171_">
					<polygon class="st3" points="92.5,149.7 92.1,149.6 92.7,149.9 					"/>
				</g>
			</g>
			<g id="XMLID_114_">
				<g id="XMLID_169_">
					<path class="st4" d="M70.8,104.8c-0.2,0-0.3,0.3,0.1,0.5l0.5-0.2L70.8,104.8z"/>
				</g>
				<g id="XMLID_168_">
					<path class="st4" d="M72.7,106.9c0.5,0.1,1.2,0,1.1-0.5c-0.6,0.1-0.6-0.1-1.3,0.1c-0.4-0.2-0.5-0.5-0.4-0.6
						c-0.2,0-0.5-0.4-0.8-0.3c0.3,0.6,0.8,0.9,1.6,1C72.9,106.8,72.7,106.9,72.7,106.9z"/>
				</g>
				<g id="XMLID_167_">
					<path class="st4" d="M105.5,128l-0.2-0.2C105.4,127.9,105.5,127.9,105.5,128z"/>
				</g>
				<g id="XMLID_166_">
					<path class="st4" d="M126,140.9c-0.2-0.1-0.3-0.1-0.3-0.1C125.9,140.9,126,141,126,140.9z"/>
				</g>
				<g id="XMLID_165_">
					<path class="st4" d="M129.3,143.5c-0.1-0.1-0.1-0.1-0.2-0.2C129.1,143.4,129.2,143.5,129.3,143.5z"/>
				</g>
				<g id="XMLID_164_">
					<path class="st4" d="M105.5,128l0.5,0.5C106.1,128.4,105.8,128.2,105.5,128z"/>
				</g>
				<g id="XMLID_163_">
					<path class="st4" d="M77.8,108.8c-0.1-0.1-0.2-0.1-0.4-0.1L77.8,108.8L77.8,108.8z"/>
				</g>
				<g id="XMLID_162_">
					<path class="st4" d="M96.3,122.7l-0.2-0.1c-0.1,0-0.2,0-0.2,0.1L96.3,122.7z"/>
				</g>
				<g id="XMLID_161_">
					<path class="st4" d="M89.3,118.5c0.1,0.1,0.4-0.2,0.6-0.3c-0.2,0.1-0.3,0.1-0.5,0C89.3,118.3,89.3,118.3,89.3,118.5z"/>
				</g>
				<g id="XMLID_160_">
					<path class="st4" d="M78.6,111.1l-0.2-0.1C78.4,111,78.5,111.1,78.6,111.1z"/>
				</g>
				<g id="XMLID_159_">
					<path class="st4" d="M101.2,125.9c0,0.1,0,0.1,0,0.2C101.2,126,101.2,125.9,101.2,125.9z"/>
				</g>
				<g id="XMLID_158_">
					<path class="st4" d="M72.1,96.1C72.1,96.1,72.1,96.1,72.1,96.1C72.1,96.1,72.1,96.1,72.1,96.1z"/>
				</g>
				<g id="XMLID_157_">
					<path class="st4" d="M70.2,105.6l0-0.1c-0.1,0-0.1,0-0.2,0L70.2,105.6z"/>
				</g>
				<g id="XMLID_156_">
					<path class="st4" d="M135.5,147.9C135.4,147.9,135.4,147.9,135.5,147.9C135.2,147.8,135.3,147.8,135.5,147.9z"/>
				</g>
				<g id="XMLID_155_">
					<path class="st4" d="M155,127.1c0.5,0.7-1.3-0.3-0.5,0.6C154.4,127.5,155.7,127.8,155,127.1z"/>
				</g>
				<g id="XMLID_154_">
					<path class="st4" d="M78,109l0.3,0.2C78.1,109,78,109,78,109z"/>
				</g>
				<g id="XMLID_153_">
					<path class="st4" d="M154.5,127.7L154.5,127.7L154.5,127.7C154.5,127.8,154.5,127.8,154.5,127.7z"/>
				</g>
				<g id="XMLID_152_">
					<path class="st4" d="M150.4,156.8c0-0.1,0-0.2-0.1-0.2C150.3,156.6,150.3,156.7,150.4,156.8z"/>
				</g>
				<g id="XMLID_151_">
					<path class="st4" d="M139.6,149.5l0.2,0.2C139.8,149.7,139.7,149.6,139.6,149.5z"/>
				</g>
				<g id="XMLID_150_">
					<path class="st4" d="M156.4,159.9c0.1,0.1,0.2,0.2,0.4,0.3c0,0,0-0.1,0-0.1C156.7,160.1,156.6,160.1,156.4,159.9z"/>
				</g>
				<g id="XMLID_149_">
					<path class="st4" d="M163.7,163.7C163.7,163.7,163.6,163.8,163.7,163.7c-0.1,0.2-0.1,0.3-0.1,0.4L163.7,163.7z"/>
				</g>
				<g id="XMLID_148_">
					<path class="st4" d="M72.2,79.1c-0.1-0.2-0.2-0.4-0.3-0.6C72.1,79,72,79,72.2,79.1z"/>
				</g>
				<g id="XMLID_147_">
					<path class="st4" d="M77.7,109c0.1-0.1,0.2-0.1,0.3,0c-0.1,0-0.1-0.1-0.2-0.1C77.7,108.9,77.7,108.9,77.7,109z"/>
				</g>
				<g id="XMLID_146_">
					<path class="st4" d="M158.2,157.5l0.9,0.6C158.9,157.9,158.6,157.7,158.2,157.5z"/>
				</g>
				<g id="XMLID_145_">
					<path class="st4" d="M113.3,104.7l-0.2-0.1C113.1,104.7,113.2,104.7,113.3,104.7z"/>
				</g>
				<g id="XMLID_144_">
					<path class="st4" d="M160.5,158.9c0.1,0.2,0.1,0.3,0.2,0.4c0,0,0-0.1,0-0.1C160.6,159.2,160.5,158.9,160.5,158.9z"/>
				</g>
				<g id="XMLID_143_">
					<path class="st4" d="M71,78.5L71,78.5L71,78.5z"/>
				</g>
				<g id="XMLID_138_">
					<path class="st4" d="M72.5,82.4c0-1.1-0.5-0.5-0.8-0.7c-0.1-1.3,0.4-0.6,0.6-1c0-0.2-0.1-0.4-0.1-0.6c0-0.1-0.1-0.1-0.1-0.1
						c0,0-0.1,0-0.1-0.1c-0.1-0.1-0.2-0.3-0.2-0.4c0.1,0,0.1,0,0.2,0.1c-0.3-0.4-0.2-0.6-0.3-1.2c0.1,0,0.1-0.1,0.1-0.2
						c0.1,0.1,0.1,0.2,0.1,0.2c-0.2-0.4-0.4-0.9-0.5-1.1c0.3,0.2,0.5-0.1,0.7,0.4c-0.2-0.1-0.2,0-0.2,0.2c0,0,0.2,0,0.2,0
						c0.4,0.8-0.3,0-0.1,0.5c0.3,0,0.9-0.1,1.4,0.4c-0.3,0.4-0.9-0.4-0.6,0.3c0,0-0.4-0.5-0.4-0.5c0.3,1.1-0.2-0.2,0.1,0.9
						c0.1,0.1,0.1,0.1,0.2,0.1c0.3,0.1,0.8,0.3,1.3,0.8c0.4,0,0.1-0.4,0.5-0.4c2.1,0.8,0.8,1.9,2.5,2.2c0.5,0,1-0.5,1.7,0.4
						l-0.6,0.2c1.2,0.8,1.1-0.2,2.2,0.9c-0.3,0-1.1-0.5-0.9-0.3c0.6,0.9,0.8,0.1,1.4,0.5l-0.1,0.5c1.4,0.8,3,1.4,4.5,2.2
						c-0.2,0.1-0.5,0-0.2,0.4c2,1,3.9,2.5,5.6,3.9l0.9,0.1c0.2,0.1,0.2,0.3,0,0.3c0.6,0.6,0.2-0.2,0.6-0.1c0.4,0.2,0.4,0.5,0.1,0.5
						c1.4,0.5,3.9,1.6,5,2.7l-0.3-0.1c0.9,0.8,1.6,0,2.3,0.9L99,95.3c2.1,1.5,4.7,2.7,6.1,4.3c0.6-0.3,2,1.6,2.6,1
						c1,1.1,0.6,1,2.2,2.3c0.5,0.3,1,0,1.6,0.3l-0.2,0.4l1,0.1l0.2,0.7l0.6,0.2c-0.2-0.2-0.4-0.4-0.3-0.5c1,0.4,1.9,1.5,1.8,1.7
						l2.2,1c-0.1,0.1-0.5,0-0.8-0.1c1.3,0.3,0,0.5,1.2,0.8c-0.1-0.2,0.2-0.2,0.3-0.2c0.4,0.5,1.5,1.2,2.4,1.6l-0.3,0.1
						c1.5,1,3.2,1.9,4.9,2.9c-0.5-0.5-0.1-0.8,0.4-0.6l0,0.5c0.5,0-0.4-0.5,0.4-0.3c0.6,0.4,0.2,0.7-0.3,0.6l0.8,0.3
						c0,0.1-0.2,0.1-0.4,0.2c0.5,0,1.1,1.2,1.8,1.1l0,0.1c1.7,1.1,2.5,1.4,3.9,2.2c0.2-0.3,0.7,0.1,1.3,0.1c0.9,0.7,1.9,1.7,3.1,2.4
						c1,0.4,0.4-0.1,0.9-0.1c-0.1,0.3,1.1,1.1,0.3,0.9c1.5,0.9,1.9,1.1,3.9,2c-0.1-0.2-0.3-0.4-0.1-0.5c0.4,0.2,0.7,0.6,0.5,0.7
						l-0.1,0c2.3,0.8,4.2,3.8,6.2,4.2l-0.1,0l1.9,0.7c0.8,0.5-0.6-0.1-0.1,0.5c2.1,0.7,2.9,1.9,4.6,2.5c0.6,1.6,4.2,2.5,5.4,4.1
						l0-0.3c0.5,0.1,0.4,0.4,0.7,0.7c0.1-0.2-0.3-0.5,0-0.4c0.4,0.2,0.8,0.4,1.2,0.7l0.3,0.2l0.2,0.1c0,0.1,0,0.2,0,0.4l-0.1,1.2
						c-0.1,0.8-0.1,1.6-0.2,2.5c-0.1,1.6-0.3,3.3-0.4,4.9c-0.1,1.5,1.2,0.9,0.7,2.8l-0.4-0.5c0.5,3.1,0,6.3,0.4,9.3
						c-0.1-0.2-0.2-0.2-0.2-0.5c-0.3,0.6,0,2.4,0.2,2.4c0,0.5-0.2,0.1-0.4,0.4c-0.1,0.3,0,0.7,0.1,1.1c0.1,0.1,0.2,0.2,0,0.2
						c-0.1,0-0.1-0.1-0.1-0.1c0.2,0.1,0,0.2,0.3,0.5c-0.1,0.1,0,0.3,0,0.5c-0.1,0-0.2-0.1-0.3-0.3c0,0.3-0.1,0.1-0.2,0
						c-0.1-0.1-0.2-0.2-0.3,0.1c0.1-0.1,0-0.3,0-0.4c0-0.1,0-0.1-0.1-0.1c-0.1-0.1-0.2-0.2-0.3-0.2c-0.5-0.3-1.1-0.6-1.5-0.7
						c0.3,0-0.4-0.5-0.1-0.6c-0.7-0.4-1.4-0.7-1.4-0.4c-0.9-1.4-2.9-1.1-3.1-2.3c-2.2-1-4.3-2-6.2-3c0.4-0.5,2.1,1.2,2.3,0.6
						c-1.9-0.9-3.2-1.1-4.9-2.3c-0.4-0.4,0.4-0.1,0.6-0.1c-1.9-0.9-3.4-2.1-5.1-2.8c0,0,0.2,0,0.4,0.1c-0.3-0.2-0.7-0.5-0.8-0.3
						l0.3,0.1c0.3,0.6-1.7,0-1.8,0.1c0.9-0.4-1.4-1.1-0.1-1.5c-0.2-0.1-0.6-0.1-0.6,0.1c-0.3-0.2-0.3-0.4,0.1-0.4
						c-1.2-0.6-0.9-0.1-1.9-0.7c0.1-0.1,0.3,0,0.5-0.1c-0.6-0.1-1.3-0.2-2.1-0.8c0.1,0,0.1-0.2,0.3,0c-1.5-0.9-2.8-0.9-4.3-2.1
						c0.8-0.2-0.4-0.5-0.3-1l-0.9-0.4l0.2,0.4c-0.7-0.5-1.6-0.6-2.2-1.1l0.7,0.2l-1.5-0.8l0.7,0.7c-0.9-0.2-0.3,0.8-1.2,0
						c0.2,0.1-0.7,1.2-1-0.8h0c-0.5,0-0.9-0.4-1.4-0.8c-0.1-0.2,0.4-0.5,0.4-0.6c-0.6,0.1-1.8-1-2.5-0.9c0.2,0,0.4-0.2,0.3-0.3
						l-0.5,0.1c-0.3-0.3-0.3-0.4-0.1-0.5c-1-0.7,0,0.7-1.1-0.3c0.1,0,0.1,0,0.3,0c-1.2-0.9-2.5-1.3-3.6-2.2
						c-0.1-0.6,1.1,0.5,0.9-0.1c-1.7-0.9-3.7-1.6-5.3-2.7l0.3,0.2c-0.6,0.5-1-1-2-1.2c0.2,0.1,0.5-0.2,0.4-0.1
						c-1-0.8-2.3-1.2-4.1-2.1l0.3,0c-0.6-0.5-1.7-1.1-2.3-1.6c-0.3,0-0.7-0.2-0.6,0.1c-1.6-2.2-4.4-2.1-5.9-4
						c0.2,0.1,0.6,0.2,0.4,0.1l-1.7-0.9c0,0.3,0.1,0.3,0.3,0.7c-0.3,0-0.8-0.1-1.2-0.4c0.8,0.3,0.3-0.4,0-0.8c0,0.1-0.2,0.1-0.2,0.2
						c-0.6-1-0.5,0.4-1.4-0.6l0.1-0.1c-0.5-0.2-1-0.3-1.4-0.6c0-0.4,0.6,0.1,0.7-0.1c-0.7-0.4-1.7-0.2-2.1-0.9
						c0.3,0.1,0.7,0.3,1.1,0.4c-0.4-0.8-0.6-0.7-1-1.1l0,0l-1-0.9l0.2,0.3c-1.3,0.3-1.8-0.9-3.2-1c1.4,0.2,0.4-0.2,0.7-0.5
						c-0.2-0.3-0.6-0.6-0.4-0.7c-0.7,0-0.7-0.8-1.7-0.8c0-0.1-0.6-0.4-0.3-0.6c-0.7-0.3,0,0.3-0.1,0.4c-1.3-0.3-2.2-2-4-2.4
						c-1.4-0.6-1.9-0.4-3.2-0.9c-0.3-0.4,0.6-0.2,0.6-0.2c-0.6-0.6-1.1-0.8-1.8-1.1c0.2,0,0.1-0.2,0-0.4c-0.5-0.3-0.6,0.2-1.1-0.4
						c0.2-0.1,0.5-0.2,0.8-0.1c-0.7-0.3-1.4-0.4-2-0.7c0-0.3,0.6-0.1,0.8-0.1c-0.7-0.3-1.9-0.9-2.3-0.7l0.4,0.4
						c-0.3-0.1,0-0.3,0.3-0.3c0.7,0.1,0.8,0.6,0.7,0.8l-0.5-0.2c0,0.9,1.8,1,2.7,1.5l-0.7,0.3l1.1,0.2c0.1,0.2,0.1,0.6-0.4,0.4
						c0.5,0.6,0.7,0.2,1,0.8c0,0.1,0,0.1-0.1,0.1l0.7,0.2c-0.2,0-0.1,0.4-0.4,0.1c0.9,1,2,0.7,2.2,1.3l-0.1,0c1.6,0.8,0.4-0.3,1.8,0
						l0.2,1.3l0.4-0.3c0.1,0.1,0.4,0.3,0.3,0.4c0.7,0.1,0-0.2,0.5-0.2c0.6,0.8,2.2,1.1,2,1.8c0.4-0.1-0.6-0.7,0.3-0.3
						c-0.1,0.7,1,0.5,1.5,1.2c-0.4,0.2-1-0.4-0.4,0.3c0.7-0.3,1.3,0.9,1.9,1.2c0.3-0.4,1.4,0.6,2.4,1.1c-0.1,0.1,1.7,1.4,2.5,2.1
						l-0.1,0.1c0.4-0.3,1.3,0.3,2.1,0.7c-0.2,0.2-0.4,0.3-0.8,0.1l0.6,0.4c0.2,0,0.5,0,0.9,0.2l-0.4,0.2c0.9,0.5,1.9,0.7,2.9,1.6
						c0.2-0.3-0.4-1.4,0.9-0.8c-0.1,0.2-0.2,0.5-0.5,0.4c0.1,0,0.4,0.1,0.6,0.3l-0.6,0c0.4,0.4,0.4-0.1,0.8,0.2
						c-0.1,0.2,0.2,0.3,0,0.5c-0.1,0-0.3-0.3-0.5-0.3c0.4,0.3,0.9,0.8,1,1.1c0-0.2,0.2-0.3,0.5-0.1c0.9,0.5,0.1,0.5,0.5,0.9
						c0.3,0,0.7,0.5,1,0.1c0.2,0.2,0.2,0.3,0.2,0.5c0.5,0.1,2.1,1.2,1.8,0.6l-0.1-0.5c0,0,0.1-0.4,0.1-0.4h0h0
						c1.7,0,2.9,2.5,4.4,3.2l-0.1,0.3c0.9,0.4,2,1.2,2.7,1.3c0.3,0.2,0.5,0.6,0.3,0.7c0.7,0.3,0.9,0.3,1.7,1
						c-0.8-0.2,0.1,0.3-0.8-0.3c0.8,0.6,0.9,0.9,2,1.2c-0.5,0.1,0.4,0.8,0.9,0.9l-0.5-0.6c0.5,0.2,0.9,0.5,1.3,0.8l-0.5,0.3
						c1.5,1.5,3.6,1.1,4.5,2.7c0.6,0-0.8-0.8-0.2-0.8c0.8,0.5,1.3,1.6,1.5,1.8c1,0.9,1.4,0.1,2.4,0.9c-0.1-0.2,0-0.7,1-0.3
						c0.8,0.5,0.6,1.2,0.1,1c-0.2-0.1-0.3-0.2-0.2-0.2c-0.3-0.1-0.7-0.3-0.4,0.1l0.2-0.1c0.3,0.4,1.4,1.1,1,1.1
						c0.7,0.2,0.4-0.1,0-0.4c0.9,0.8,1.6,1,2.6,1.8c-0.1-0.2-0.2-0.4,0-0.3c1.4,1.1,0.8,0.2,1.9,0.7c0.5,0.6-0.5,0.4,0.6,0.8
						c0.6,0.5-0.1,0.4-0.4,0.4c1.1,0.3,1.7,1.3,2.2,1.7l-0.6-0.2c0.3,0.1,0.6,0.3,0.8,0.4l-0.1-0.5c0.3,0.2,0.5,0.4,0.4,0.5
						c0.4,0,0-0.6,0.8-0.5c0.3,0.4,1.3,0.6,1.2,1c-1.2-0.9-0.1,0.5-1.2-0.1c0.2,0.1,0.5,0.2,0.7,0.5c0,0.1-0.1,0-0.2,0
						c1,1.1,0.8-0.1,2,0.7c-0.3,0.1,0,0.6,0.3,0.6c-0.5-0.3,0-0.5,0.5-0.4c0.7,0.6,0.9,0.4,1.3,0.7l-0.4-0.4
						c0.3-0.1,0.7,0.2,1.3,0.4c-0.1,0.2-0.6-0.2-0.4,0c0.8,0,1.2,1.2,2.2,1.5c0.3,0.4-0.2,0.4,0.1,0.7c1.1,0.3,0.9,0.9,2,1.3
						c-0.1-0.5-0.2-0.4,0.7-0.2l-1.8-0.8l1.3,0.3c-0.5-0.3-1.2-0.5-1.4-0.7c0.6,0.1,0.6,0.1,0.5-0.3c0.4,0.8,1.5,0.6,2.1,1.4
						l-0.4,0.7c1,1,2.3,1,3.8,2.1l-0.4-0.4c0.4-0.1,1,0.6,1.5,0.8c-0.2,0.2,0.1,0.5,0.2,0.7c0.1-0.2,1.1,0.7,1.5,0.3l0.5,0.7
						c1.2,0.9,1.8,0.2,3,1c-0.5,0-0.1,0.5-1,0.2c0.4,0.2,0.7,0.5,0.8,0.4c0.1,0.3,1.3,0.4,1.5,0.8c0.2,0,0.4-0.2,0.9,0.1
						c0,0.1-0.1,0.1-0.1,0.1c0.1-0.1,0.8,0.3,0.6-0.2c0.2,0.3,0.5,0.6,0.8,0.9c0.5,0.3,1,0.7,1.5,1c1.1,0.6,2,1.1,3,2
						c0-0.1,0.1-0.2,0.1-0.2c-0.1-1.7-0.2-3.4-0.2-4.7c0.1,0.1,0.1,0,0.1,0.3c0.1-0.4,0-0.8,0-0.9c-0.1-0.2-0.2-0.3-0.2-0.4
						c-0.2-0.2-0.4-0.5-0.2-1.2c0.4-0.7,0.2,0.8,0.4,0.3c0.9-0.2-0.1-1.8,0.4-2.8l0.1,0.2c0.3-0.8-0.3-1.8-0.3-3.1
						c0,0,0.1,0.1,0.1,0c-0.4-0.8-0.6-2.4-0.7-3.6c0.3,0.4,0.2,0.5,0.5,0.3c0-0.5-0.6,0.2-0.7-0.9c0.2-0.3,0.4-1.1,0.7-1.2l0,1
						c0.5-0.5,0-1.3,0.1-1.8l0.2,0.1c-0.1-1.5-0.6-1.6-0.6-3.2l-0.2,0.2c-0.5-0.9,0.3-0.8-0.1-1.7l0.5-0.3c-0.1-0.6-0.5-2.1-0.6-3.1
						c0.4,0.6,0.6,1.9,0.8,2.6c0-0.6,0-2-0.3-2.3c0.1,0.2,0.2,0.5,0.1,0.8c-0.4-0.7-0.6-1.7-0.6-2.8c0.3,0.1,0.4-0.1,0.5-0.5
						c0.1-0.4,0.1-1.2,0.1-1.9c-0.5-0.3-1.1-0.7-1.5-1c-0.3-0.3-0.5-0.5-0.6-0.8c-2-0.8-3.4-2.3-5.5-3.6c0.3,1.1-0.6-0.4-0.9,0.4
						c-0.5-0.3-0.7-0.4-0.7-0.5l-1.2-1.3c-0.2-0.4,0.6,0.1,0.6-0.1c-1-0.7-0.3-0.6-0.8-1.2c0,0.3-0.6,0.1-1.1-0.3l0.6,0.8
						c-1.7-0.5-0.9-1.4-2.6-1.9l0.6,0.1c-0.8-0.3-2.8-1.7-3.9-1.6c-0.1-0.2-0.1-0.5,0.2-0.3c-1.8-1.2-4.4-1.9-5.6-3.1l0.2-0.1
						c-0.4-0.2-0.8,0-1.1-0.5c0.1-0.1,0.2-0.1,0.1-0.2c-0.2-0.1-1.1-0.3-1.5-0.6l0.5,0c-1.6-1.3-3-1.2-4.6-2c0.3-0.5-1-1.5-1.6-2.1
						l0.1-0.1c-2-1.3-3.8-1.8-5.8-2.8c-0.8-1.3-3.9-2.7-5.6-4.2c0.2,0.3-0.3,0.4-0.7,0.2c-0.4-0.4-1.5-0.4-1.1-0.8l0.2,0.1
						c-0.1-0.7-1-1.1-1.7-1.6l-0.5,0.5c-1.3-2.1-5.1-2.7-5.6-4.2c-0.5-0.1-1.1-0.5-1.6-0.6l0.2-0.3c-1.2-0.9-1.8-1.3-3.4-2.2l0.5,0
						c-0.9-0.6-1.7,0.3-2.5-0.2l0.1-0.6c-1.5-0.9-2.8-2.3-4.6-2.8c0.1-0.1,0.2-0.2,0.5,0c-0.7-0.5-2.6-2.1-2.7-1.2
						c0.3-0.4-1.5-1-2.5-1.3l0.3-0.2c-0.9,0-1,0.1-2.1-0.4c-0.2-0.2,0-0.4,0.2-0.1c-0.7-0.6-0.8-0.1-1.6-0.8l0.5,0
						c-0.8-0.5-0.8-0.4-1.4-0.4c-0.6-0.2-1.4-1-1.4-1.4c-0.2,0.1-0.8,0.1-1.2-0.3c0-0.1,0.2-0.1,0.3-0.1c-1.2-1-2.2-0.8-2.9-1.7
						c0-0.1,0-0.2,0-0.3c1,0.7,1.9,1.2,1.8,1.2c0.2-0.3-0.6-0.9,0.3-0.9c-0.8-0.2-2.3-0.4-3-1.1c0-0.1,0-0.1,0-0.2l0.1,0
						c-0.2-0.1-0.4-0.2-0.5-0.3c-0.2-0.2-0.4-0.4-0.6-0.5c0.1-0.3-0.9-0.7-1.3-1c-0.2,0.3-0.7-0.1-0.3,0.5c-0.1-0.1,0.1,0,0.4,0.2
						c0.1,0,0.1,0.1,0.2,0.1l0,0c0.3,0.2,0.6,0.4,1.1,0.6c-0.4,0-0.9-0.1-1.2-0.6c-0.3,0.1-0.7,0.1-0.9,0.2
						c-0.3-0.8-1.3-1.7-1.2-2.1c-1.4-0.6-3.1-1.8-4.3-1.7c-0.4-0.2-0.3-0.4-0.4-0.6c0.2,0.1,0.5,0.2,0.7,0.2c-0.8-0.3-2.2-1.3-2.6-1
						c-0.8-0.8,0.8-0.1-0.5-0.8l0.3,0c-0.2-0.2-0.3-0.3-0.5-0.5c-0.1-0.1-0.2-0.1-0.3-0.3l-0.4-0.3c-0.6-0.4-1.1-0.7-1.6-0.9
						c-1-0.5-1.8-0.7-2.5-1c0.2,1.7,0.2,2.7-0.1,4.3c0.1-0.3,0.1-0.4,0.2-0.5l-0.1,0.9l0,0.8c0,0.5,0,0.9,0,1.4
						c0,0.9,0.1,1.9,0.1,2.9c0.1,1.9,0.1,3.8-0.2,5.6c-0.1,1,0.2,1.2,0.4,1.8l-0.4,0.2l0.5,1.1c0.3,1.5-1,2.7-0.4,4.6l0.3-0.3
						c-0.1,0.7,0.2,2.2-0.2,2.1c0.1,0.1,0.3,0.2,0.1,0.5l-0.2,0l0.4,1.7c-0.2,1.3-0.9-0.2-0.9,1.7c0.1,0.7,0.6,2.1,0.8,1.8
						c0-0.3,0.1-0.7,0.3-0.8l0.1,0.7c0.6,0.1,1.3,0.6,1.7-1l-0.4-1.1l0.3-0.4l0,1c0.3-0.5,0-0.9-0.1-1.3c0.2-0.1,0.3-0.2,0.3-0.5
						l-0.6-1.1c0.2-0.1,0.5,0.5,0.6-0.2c-0.3-0.5-0.6,0.5-0.7-0.4c0.3-0.5,0.5-0.4,0.3-1c0.2-0.1,0.3,0,0.3,0.3
						c-0.2-0.6-0.1-1.5-0.4-1.8c0.4-0.6-0.1-1.9,0.5-1.9c-0.1-0.2-0.5-1-0.5-1.5c0.7,0.9,0-1.9,0.8-1.7c-0.6-0.7-0.3-2.5-0.6-3.8
						c0.1,0.1,0.2,0.2,0.1,0.3c0.1-0.7,0.2-0.9,0.4-1.4c-0.5-0.1-0.7-1.2-1-1.8c0.5-0.9,0.6,0.5,1.1,0.3c-0.4,0-0.4-1.5-0.8-1.2
						c0.3-0.7,0.2-0.6,0.6-0.9c-0.7-0.1-0.1-0.6-0.5-1.2c0.3-0.9,0.6-0.2,0.4-1.3C72.3,81.5,72.5,82.4,72.5,82.4z M85.4,86.7
						L85.4,86.7c-0.2-0.1-0.3-0.2-0.4-0.2C85.1,86.5,85.2,86.5,85.4,86.7z M87.2,87.8c-0.2-0.1-0.5-0.3-0.8-0.5
						c0-0.2,0.1-0.2,0.3-0.1C86.6,87.2,87,87.5,87.2,87.8z M84.8,83.2c0.3,0.1,0.4,0.3,0.4,0.3c-0.1-0.1-0.3-0.2-0.5-0.3
						c0,0,0,0-0.1,0C84.7,83.2,84.8,83.2,84.8,83.2z"/>
				</g>
				<g id="XMLID_137_">
					<path class="st4" d="M84.1,83.3c0,0-0.1,0-0.1,0c0,0.1,0.1,0.1,0.1,0.2c0.1,0,0.1,0,0.2,0C84.2,83.4,84.1,83.3,84.1,83.3z"/>
				</g>
				<g id="XMLID_136_">
					<path class="st4" d="M105.3,127.8L105.3,127.8C105.3,127.8,105.3,127.8,105.3,127.8C105.3,127.8,105.3,127.8,105.3,127.8z"/>
				</g>
				<g id="XMLID_135_">
					<polygon class="st4" points="111.2,103.6 111.2,103.6 111.1,103.5 					"/>
				</g>
				<g id="XMLID_134_">
					<path class="st4" d="M96.2,120.7c0,0,0-0.1-0.1-0.2C96.2,120.5,96.2,120.6,96.2,120.7z"/>
				</g>
				<g id="XMLID_133_">
					<path class="st4" d="M92.1,118l-0.5-0.5C91.8,117.7,91.9,117.9,92.1,118z"/>
				</g>
				<g id="XMLID_132_">
					<path class="st4" d="M88.9,115.8c-0.1,0-0.1,0.1-0.1,0.1l0,0L88.9,115.8z"/>
				</g>
				<g id="XMLID_131_">
					<path class="st4" d="M140.8,147.2c0,0,0.1,0,0.1,0.1C141.2,147.4,141,147.3,140.8,147.2z"/>
				</g>
				<g id="XMLID_130_">
					<path class="st4" d="M124.9,138.5c0.2,0,0.4,0.1,0.6,0.2C125.3,138.5,125.1,138.4,124.9,138.5z"/>
				</g>
				<g id="XMLID_129_">
					<polygon class="st4" points="158.1,157.4 158.1,157.4 158.2,157.5 					"/>
				</g>
				<g id="XMLID_128_">
					<path class="st4" d="M126.2,139.1c-0.2-0.2-0.5-0.4-0.7-0.4C125.7,138.8,126,139,126.2,139.1z"/>
				</g>
				<g id="XMLID_127_">
					<path class="st4" d="M74.9,107l-0.1-0.1c0,0,0,0-0.1,0L74.9,107z"/>
				</g>
				<g id="XMLID_126_">
					<path class="st4" d="M74.7,106.9l-0.2-0.1C74.6,106.9,74.7,107,74.7,106.9z"/>
				</g>
				<g id="XMLID_125_">
					<path class="st4" d="M74.1,106.7l0.4,0.1C74.4,106.8,74.3,106.7,74.1,106.7z"/>
				</g>
				<g id="XMLID_124_">
					<path class="st4" d="M79.1,109.8l0.1-0.1C79.2,109.7,79.2,109.7,79.1,109.8z"/>
				</g>
				<g id="XMLID_123_">
					<path class="st4" d="M80.5,110.6c-0.3-0.2-0.6-0.7-1.1-0.9l-0.1,0.1C79.6,109.7,80.1,110.6,80.5,110.6z"/>
				</g>
				<g id="XMLID_122_">
					<path class="st4" d="M85,115.4l-1-0.8c0.1,0.2,0.3,0.6-0.3,0.3C84.9,116.1,83.6,114.4,85,115.4z"/>
				</g>
				<g id="XMLID_121_">
					<path class="st4" d="M88.3,117.7c-0.6-0.3-0.1,0.2-0.2,0.2C88.6,118,88.7,118,88.3,117.7z"/>
				</g>
				<g id="XMLID_120_">
					<path class="st4" d="M112.8,132.8l-0.2,0.3C113.1,133.3,112.7,132.9,112.8,132.8z"/>
				</g>
				<g id="XMLID_119_">
					<polygon class="st4" points="118.4,134.1 118.1,133.7 117.7,133.8 					"/>
				</g>
				<g id="XMLID_118_">
					<polygon class="st4" points="119.9,137.9 119.7,137.9 120.5,138.2 					"/>
				</g>
				<g id="XMLID_117_">
					<path class="st4" d="M162.9,164.3l-0.5-0.8C162,163.3,162.1,163.9,162.9,164.3z"/>
				</g>
				<g id="XMLID_116_">
					<path class="st4" d="M163.6,142.4c0.2-0.2,0.4-0.8,0.1-1.2C163.7,141.6,163.5,142.1,163.6,142.4z"/>
				</g>
				<g id="XMLID_115_">
					<polygon class="st4" points="117.7,103.7 118.1,103.8 117.4,103.5 					"/>
				</g>
			</g>
			<g id="XMLID_58_">
				<g id="XMLID_113_">
					<path class="st3" d="M163.5,105.2c0.2,0,0.2-0.3-0.1-0.4l-0.4,0.3L163.5,105.2z"/>
				</g>
				<g id="XMLID_112_">
					<path class="st3" d="M162.1,103.4c-0.4,0-1,0.1-1,0.6c0.5-0.2,0.5,0,1.1-0.2c0.3,0.1,0.4,0.4,0.3,0.5c0.2,0,0.4,0.3,0.7,0.2
						c-0.2-0.5-0.6-0.8-1.3-0.8C161.8,103.5,162,103.5,162.1,103.4z"/>
				</g>
				<g id="XMLID_111_">
					<path class="st3" d="M135.4,86.8l0.1,0.1C135.6,86.9,135.5,86.8,135.4,86.8z"/>
				</g>
				<g id="XMLID_110_">
					<path class="st3" d="M118.9,76.6c0.1,0.1,0.2,0.1,0.2,0C119,76.6,118.9,76.5,118.9,76.6z"/>
				</g>
				<g id="XMLID_109_">
					<path class="st3" d="M115.1,75.1c0.1,0,0.2-0.1,0.3-0.1C115.3,75,115.2,75,115.1,75.1z"/>
				</g>
				<g id="XMLID_108_">
					<path class="st3" d="M135.4,86.8l-0.4-0.4C135,86.5,135.2,86.6,135.4,86.8z"/>
				</g>
				<g id="XMLID_107_">
					<path class="st3" d="M157.8,102.1c0.1,0,0.2,0,0.3,0L157.8,102.1L157.8,102.1z"/>
				</g>
				<g id="XMLID_106_">
					<path class="st3" d="M143,90.8l0.1,0.1c0.1,0,0.1-0.1,0.2-0.1L143,90.8z"/>
				</g>
				<g id="XMLID_105_">
					<path class="st3" d="M148.7,94.1c-0.1-0.1-0.4,0.2-0.5,0.3c0.2-0.1,0.3-0.1,0.4-0.1C148.6,94.3,148.7,94.3,148.7,94.1z"/>
				</g>
				<g id="XMLID_104_">
					<path class="st3" d="M157.3,100.1l0.2,0C157.4,100.1,157.4,100.1,157.3,100.1z"/>
				</g>
				<g id="XMLID_103_">
					<path class="st3" d="M139,88.3c0-0.1,0-0.1,0-0.1C139,88.2,139,88.3,139,88.3z"/>
				</g>
				<g id="XMLID_102_">
					<path class="st3" d="M165.7,96.8C165.7,96.8,165.7,96.8,165.7,96.8C165.7,96.9,165.7,96.9,165.7,96.8z"/>
				</g>
				<g id="XMLID_101_">
					<path class="st3" d="M163.9,104.5l0-0.1c-0.1,0-0.1,0-0.2,0L163.9,104.5z"/>
				</g>
				<g id="XMLID_100_">
					<path class="st3" d="M109.4,78C109.4,78,109.4,78,109.4,78C109.5,77.9,109.5,77.9,109.4,78z"/>
				</g>
				<g id="XMLID_99_">
					<path class="st3" d="M100.7,59c-0.7,0,0.6-0.9-0.4-0.7C100.5,58.4,99.9,59.2,100.7,59z"/>
				</g>
				<g id="XMLID_98_">
					<path class="st3" d="M157.7,102c-0.1,0-0.2-0.1-0.2-0.1C157.5,101.9,157.6,102,157.7,102z"/>
				</g>
				<g id="XMLID_97_">
					<path class="st3" d="M100.3,58.3L100.3,58.3l-0.1,0C100.3,58.3,100.3,58.3,100.3,58.3z"/>
				</g>
				<g id="XMLID_96_">
					<path class="st3" d="M99.4,78.5c0,0.1,0,0.1,0,0.2C99.4,78.7,99.4,78.6,99.4,78.5z"/>
				</g>
				<g id="XMLID_95_">
					<path class="st3" d="M106.7,80.5l-0.2,0.1C106.6,80.6,106.7,80.5,106.7,80.5z"/>
				</g>
				<g id="XMLID_94_">
					<path class="st3" d="M94.5,76c-0.1-0.1-0.1-0.2-0.3-0.2c0,0,0,0,0,0.1C94.3,75.8,94.4,75.9,94.5,76z"/>
				</g>
				<g id="XMLID_93_">
					<path class="st3" d="M89.8,73c0,0,0,0.1,0,0.1c0.1,0,0.1,0.1,0.2,0.1L89.8,73z"/>
				</g>
				<g id="XMLID_92_">
					<path class="st3" d="M165.6,79.7c-0.1,0.1-0.2,0.2-0.3,0.3C165.5,79.9,165.6,80.7,165.6,79.7z"/>
				</g>
				<g id="XMLID_91_">
					<path class="st3" d="M157.9,102c-0.1,0.1-0.1,0.1-0.2,0.1l0.2,0.1C157.9,102,157.9,102,157.9,102z"/>
				</g>
				<g id="XMLID_90_">
					<path class="st3" d="M92.7,78.4L92,77.9C92.2,78,92.4,78.2,92.7,78.4z"/>
				</g>
				<g id="XMLID_89_">
					<path class="st3" d="M133.2,55.9l0.2,0.1C133.3,55.9,133.2,55.9,133.2,55.9z"/>
				</g>
				<g id="XMLID_88_">
					<path class="st3" d="M89.7,76.5c-0.1-0.2-0.2-0.4-0.3-0.5c0,0-0.1,0-0.1,0L89.7,76.5z"/>
				</g>
				<g id="XMLID_87_">
					<path class="st3" d="M165.2,78.9L165.2,78.9L165.2,78.9z"/>
				</g>
				<g id="XMLID_82_">
					<path class="st3" d="M166.1,85.9c0-0.9-0.5-0.4-0.8-0.6c-0.1-1,0.4-0.5,0.6-0.8c-0.1-0.6-0.6-1.1-0.6-1.6c0.1,0,0.1-0.1,0.2,0
						c-0.4-0.7,0-2-0.5-2.8c0-0.1,0.1-0.1,0.1-0.1c-0.3,0.1-0.5,0.1-0.7,0.1c0-0.4-0.3-0.7,0-0.9c0,0.2,0.1,0.3,0.2,0.4l-0.1-0.4
						c0.5-0.4,0.2,0.5,0.5,0.5c-0.2-0.8-0.5-1.7-0.4-2.3c0.5-0.1,0.2,1.4,0.6,0.6l-0.2,0.9c0.7-0.7-0.1,0.6,0.7-0.1
						c0.1-1.3-0.2-1-0.1-3.4c-0.3-0.4-0.4,0.3-0.6,0c0,0,0-0.1,0-0.1c-2.4-1-1-2-2.4-2.1c-0.4,0.1-0.8,0.5-1.5-0.2l0.5-0.3
						c-1-0.6-1,0.3-1.8-0.6c0.3-0.1,0.9,0.3,0.8,0.2c-0.5-0.8-0.6,0-1.2-0.4l0.1-0.5c-1.1-0.6-2.5-1-3.7-1.6
						c0.1-0.1,0.4-0.1,0.2-0.4c-1.6-0.7-3.2-2-4.5-3.1l-0.8,0c-0.1-0.1-0.1-0.3,0-0.3c-0.5-0.5-0.2,0.2-0.5,0.2
						c-0.3-0.2-0.3-0.5,0-0.4c-1.2-0.3-3.2-1.1-4.1-2.1l0.3,0c-0.7-0.6-1.3,0.1-1.9-0.6l0.2,0c-1.7-1.2-3.8-2.1-4.9-3.4
						c-0.6,0.3-1.6-1.3-2.2-0.7c-0.8-0.9-0.4-0.9-1.7-2c-0.4-0.3-0.8,0.1-1.3-0.1l0.2-0.4l-0.9,0l-0.1-0.6l-0.5-0.2
						c0.2,0.1,0.3,0.4,0.2,0.5c-0.8-0.3-1.5-1.3-1.4-1.5l-1.8-0.7c0.1-0.1,0.4,0,0.7,0c-1.1-0.2,0.1-0.5-0.9-0.6
						c0.1,0.1-0.2,0.2-0.2,0.2c-0.3-0.5-1.2-1-1.9-1.3l0.3-0.2c-1.2-0.8-2.6-1.4-4-2.2c0.4,0.4,0.1,0.8-0.4,0.6l0.1-0.5
						c-0.4,0.1,0.3,0.4-0.4,0.4c-0.5-0.3-0.1-0.6,0.3-0.6l-0.7-0.2c0-0.1,0.2-0.1,0.3-0.2c-0.4,0.1-0.8-1-1.5-0.8l0-0.1
						c-1.4-0.8-2.1-1.1-3.2-1.7c-0.2,0.3-0.5,0-1.3-0.1c-0.4-0.3-0.8-0.6-1.2-0.9c-0.5,0.2-1,0.5-1.6,0.8c-0.2,0.1-0.4,0.2-0.7,0.3
						c-0.2,0.1-0.3,0.2-0.5,0.3c-0.6,0.6,0,0.4-0.2,0.8c-0.2-0.3-1.2,0.4-0.8-0.2c-1.1,0.8-1.5,1-2.8,2.1c0.2,0,0.4,0,0.4,0.1
						c-0.2,0.2-0.7,0.3-0.7,0.1l0.1-0.1c-1.4,1.5-4.4,1.5-5.3,2.9l0.1-0.1l-1.2,1.2c-0.7,0.3,0.2-0.5-0.3-0.4
						c-1.2,1.4-2.4,1.4-3.4,2.4c-1.5-0.3-3.3,2.1-4.9,2.3l0.2,0.2c-0.2,0.4-0.5,0.1-0.7,0.2c0.1,0.1,0.5,0,0.3,0.2
						c-2.6,2-6,3.2-8.9,4.8c-1.1,0.6,0.1,1.4-1.6,1.8c0.1,0,0.2-0.6,0.2-0.6l-0.2,0.2c0,0-0.1,0.1-0.3,0.2l-0.7,0.5
						c-0.5,0.3-0.9,0.6-1.4,1c-1,0.6-1.9,1.2-2.9,1.8c0.9,0.6,1.8,1.2,2.8,1.8l1.4,0.8l0.7,0.4c0.2,0.1,0.5,0.3,0.6,0.3
						c-0.2,0-0.3,0.1-0.6-0.1c0.1,0.1,0.2,0.2,0.3,0.3c0.1,0.1,0.1,0.1,0.2,0.2c0.2,0.1,0.4,0.2,0.6,0.3c0.4,0.2,0.8,0.2,0.8,0.1
						c0.3,0.2-0.1,0.2,0.1,0.5c0.3,0.4,1.3,0.3,1.4,0.8c0,0.1-0.2,0-0.3,0c0.4,0,1.3,0.9,1.2,0.4c0.7,0.6,1.6,0.8,2,1.4
						c0.6-0.1,1.2,1,1.7,0.6c-0.4,0.5,1.1,1.3,1.7,1.3c-0.3,0.1,0.3,0.4,0,0.5c0.6,0.3,1.1,0.6,1.2,0.3c0.6,1.3,2.4,0.8,2.4,2
						c1.8,0.8,3.5,1.6,5,2.4c-0.4,0.5-1.7-1-2-0.4c0.8,0.3,1.4,0.5,2,0.8l0.5,0.2l0.2,0.1l0.3,0.2c0.5,0.3,0.9,0.5,1.5,0.9
						c0,0,0,0,0.1,0c0.3-0.1,0.2,0-0.1,0.3c-0.2,0-0.4-0.1-0.5-0.1c0.2,0.1,0.3,0.2,0.5,0.3c0.6-0.4,1.1-0.7,1.6-1.1
						c0.4-0.2,0.7-0.4,1.1-0.7c0.6-0.4,1.2-0.8,1.7-1.2c0,0.1-0.1,0.2-0.2,0.3c0.2-0.2,0.6-0.3,0.5-0.5l-0.2,0.2
						c-0.6-0.1,0.6-1.3,0.5-1.5c0,0.9,1.4-0.6,1.2,0.7c0.1-0.1,0.3-0.4,0.1-0.5c0.3-0.1,0.4-0.1,0.3,0.3c0.8-0.7,0.3-0.7,1.2-1.2
						c0.1,0.1-0.1,0.3-0.1,0.4c0.3-0.5,0.6-0.9,1.3-1.3c0,0.1,0.1,0.1-0.1,0.3c0.6-0.4,1-0.8,1.4-1.3c0.2-0.2,0.5-0.4,0.7-0.6
						c0.1-0.1,0.3-0.2,0.4-0.3c0.1-0.1,0.2-0.1,0.3-0.1c0,0.7,0.3,0,0.4,0.6l0-0.1c0.1,0,0.1,0,0.2,0c0,0-0.1-0.3-0.1-0.3
						c0.2,0.1,0.3,0.1,0.6,0.1c0.3,0.1,0.6,0.2,0.8,0.4l-0.6-0.1l1.2,0.6l-0.5-0.6c0.8,0.1,0.3,0,1,0.6c-0.2-0.1,0.6,1.4,0.8,1.4h0
						c0.4,0,0.8-0.5,1.2-0.1c0,0.2-0.4,0.1-0.4,0.3c0.5-0.2,1.5,0.6,2.1,0.4c-0.2,0-0.3,0.2-0.3,0.2l0.4-0.2
						c0.2,0.3,0.2,0.3,0.1,0.5c0.8,0.6,0.1-0.7,0.9,0.1c-0.1,0-0.1,0-0.3,0c0.9,0.7,2.1,1,2.9,1.7c0,0.6-0.9-0.4-0.8,0.2
						c1.4,0.7,3.1,1.1,4.3,2l-0.2-0.2c0.5-0.5,0.8,0.9,1.6,1c-0.2-0.1-0.4,0.2-0.3,0.2c0.8,0.6,1.9,0.9,3.4,1.5l-0.3,0.1
						c0.4,0.5,1.3,0.9,1.9,1.3c0.3-0.1,0.6,0.2,0.5-0.2c1.2,1.9,3.6,1.5,4.7,3.2c-0.2-0.1-0.5-0.1-0.4,0l1.4,0.6
						c0.1-0.3-0.1-0.3-0.2-0.6c0.3-0.1,0.7,0,1,0.2c-0.7-0.2-0.3,0.4-0.1,0.7c0-0.1,0.1-0.1,0.2-0.2c0.4,0.9,0.4-0.5,1.2,0.4
						l-0.1,0.1c0.4,0.1,0.8,0.1,1.2,0.4c0,0.4-0.5-0.1-0.6,0.2c0.5,0.3,1.4,0,1.7,0.6c-0.3,0-0.6-0.2-0.9-0.3
						c0.3,0.7,0.4,0.6,0.8,0.9l0,0l0.8,0.7l-0.2-0.2c1.2-0.4,1.4,0.7,2.7,0.7c-1.2,0-0.3,0.2-0.6,0.5c0.2,0.2,0.5,0.6,0.3,0.6
						c0.6,0,0.6,0.6,1.4,0.6c0,0.1,0.4,0.3,0.2,0.5c0.6,0.2,0-0.3,0.1-0.4c1.1,0.1,1.7,1.7,3.3,1.9c1.2,0.4,1.6,0.1,2.7,0.5
						c0.2,0.4-0.5,0.3-0.5,0.3c0.4,0.5,0.9,0.7,1.4,0.9c-0.2,0-0.1,0.2,0,0.4c0.4,0.2,0.5-0.3,0.9,0.2c-0.2,0.1-0.4,0.2-0.7,0.2
						c0.5,0.2,1.1,0.2,1.7,0.4c0,0.3-0.5,0.1-0.7,0.1c0.6,0.2,1.5,0.7,1.9,0.5l-0.3-0.3c0.2,0.1-0.1,0.3-0.2,0.3
						c-0.6,0-0.6-0.5-0.6-0.6l0.4,0.1c0-0.9-1.5-0.7-2.2-1.2l0.6-0.3l-1,0c-0.1-0.2,0-0.6,0.4-0.4c-0.4-0.5-0.6-0.1-0.8-0.6
						c0-0.1,0-0.1,0.1-0.1l-0.6-0.2c0.2,0,0.1-0.4,0.4-0.1c-0.7-0.8-1.6-0.5-1.8-1.1l0.1,0c-1.3-0.6-0.3,0.3-1.5,0.2l-0.1-1.2
						l-0.3,0.3c-0.1-0.1-0.4-0.3-0.2-0.4c-0.6,0,0,0.2-0.4,0.3c-0.4-0.7-1.8-0.9-1.6-1.5c-0.4,0.1,0.5,0.6-0.3,0.4
						c0.2-0.7-0.8-0.3-1.2-1c0.4-0.2,0.8,0.3,0.4-0.3c-0.7,0.3-1-0.8-1.6-0.9c-0.3,0.4-1.1-0.4-2-0.8c0.1-0.1-1.4-1.1-2-1.7l0.1-0.1
						c-0.4,0.3-1.1-0.2-1.7-0.4c0.2-0.2,0.3-0.3,0.7-0.2l-0.5-0.3c-0.2,0.1-0.4,0-0.8-0.1l0.3-0.2c-0.7-0.4-1.6-0.5-2.4-1.2
						c-0.2,0.3,0.2,1.3-0.8,0.9c0.1-0.2,0.2-0.5,0.5-0.4c-0.1,0-0.4,0-0.5-0.2l0.5,0c-0.3-0.4-0.3,0.1-0.7-0.1
						c0.1-0.2-0.1-0.3,0-0.5c0.1,0,0.2,0.3,0.4,0.2c-0.3-0.3-0.7-0.7-0.7-0.9c0,0.1-0.2,0.3-0.5,0.2c-0.7-0.4-0.1-0.4-0.4-0.8
						c-0.3,0.1-0.6-0.4-0.8,0c-0.2-0.1-0.1-0.3-0.2-0.4c-0.4-0.1-1.7-1-1.5-0.3l0.1,0.5c0,0,0,0.4-0.1,0.4h0h0
						c-1.4,0-2.3-2.1-3.6-2.7l0.1-0.3c-0.8-0.3-1.6-1-2.2-1c-0.2-0.1-0.4-0.6-0.2-0.6c-0.6-0.2-0.7-0.2-1.4-0.8
						c0.7,0.1-0.1-0.3,0.6,0.2c-0.6-0.5-0.7-0.8-1.6-0.9c0.4-0.1-0.3-0.7-0.7-0.8l0.4,0.5c-0.4-0.2-0.7-0.4-1-0.6l0.4-0.3
						c-1.1-1.3-3-0.7-3.6-2.1c-0.5,0,0.7,0.6,0.1,0.8c-0.6-0.4-1-1.4-1.2-1.5c-0.8-0.7-1.2,0.1-2-0.6c0,0.2-0.1,0.6-0.8,0.4
						c-0.6-0.4-0.5-1.1,0-0.9c0.2,0.1,0.2,0.2,0.2,0.2c0.2,0.1,0.6,0.2,0.4-0.1l-0.2,0.1c-0.2-0.3-1.1-0.9-0.8-1
						c-0.6-0.2-0.3,0.1,0,0.4c-0.1-0.1-0.3-0.3-0.4-0.3c-0.1-0.1-0.4-0.3-0.6-0.4c-0.4-0.2-0.8-0.5-1.3-0.8
						c-0.2,0.1-0.5,0.3-0.8,0.4c0.2,0,0.5,0.1,0.3,0.2c-1,0.5-1.2,0.7-1.2,0.8c0,0.1,0,0.3-0.4,0.6c-0.6,0.1-0.1-0.6-0.9,0.1
						c-0.6,0.2-0.3-0.3-0.2-0.5c-0.6,0.7-1.6,0.7-2,0.9l0.3-0.4c-0.2,0.2-0.4,0.3-0.6,0.5l0.4,0.1c-0.3,0.1-0.5,0.2-0.5,0.1
						c-0.1,0.3,0.5,0.3,0.1,0.9c-0.4,0.1-0.9,0.7-1.2,0.4c1.1-0.5-0.3-0.3,0.5-0.9c-0.1,0.1-0.3,0.3-0.6,0.4c-0.1,0,0-0.1,0-0.2
						c-1.2,0.3-0.2,0.7-1.2,1.3c0-0.3-0.5-0.3-0.6-0.1c0.4-0.2,0.4,0.2,0.1,0.6c-0.7,0.2-0.6,0.5-1,0.7l0.4-0.2
						c0,0.3-0.3,0.5-0.8,0.8c-0.1-0.1,0.3-0.4,0.1-0.3c-0.3,0.7-1.4,0.3-1.9,1c-0.2,0-0.2-0.4-0.4-0.4c-0.1,0.2-0.2,0.2-0.2,0.1
						c0-0.1-0.1-0.2-0.2-0.1c-0.1,0.3,0.1,0.3-0.3,0.4c0.2,0.1,0.4,0.1,0.5,0.1l0.1-0.1l-0.1,0.2c-0.1,0.1-0.2,0.1-0.4,0.2
						c0.1,0.1,0.2,0.1,0.3,0.1c0.1-0.1,0.2-0.2,0.3-0.2c-0.2,0.4-0.2,0.3,0,0.5c-0.1-0.1-0.2-0.1-0.2,0c-0.3-0.3-0.7,0-1.1-0.5
						l0.5-0.7c-0.8-0.9-1.9-0.7-3-1.7l0.3,0.4c-0.3,0.2-0.8-0.5-1.3-0.6c0.2-0.2,0-0.4-0.1-0.7c-0.1,0.2-0.9-0.6-1.3-0.2l-0.4-0.6
						c-0.9-0.8-1.5-0.1-2.5-0.8c0.4-0.1,0.1-0.5,0.9-0.3c-0.3-0.2-0.6-0.4-0.7-0.3c-0.1-0.3-1.1-0.3-1.2-0.7c-0.2,0-0.4,0.2-0.7,0
						c0-0.1,0.1-0.1,0.1-0.1c-0.1,0.1-0.7-0.2-0.5,0.2c-0.5-1.3-2.8-1.7-3.2-2.9c-0.7-0.4-1.6-0.8-2.3-1.2c0.1,0,0.1-0.1,0.2,0
						c-0.7-0.8-1,0.3-1.8-0.6c-0.3-0.7,0.7,0.1,0.4-0.2c0.2-0.4-0.1-0.6-0.6-0.8c-0.4-0.2-1-0.4-0.9-0.6l0.1,0
						c0-0.2-0.2-0.2-0.4-0.2c-0.3,0-0.7-0.1-0.9-0.3c0,0,0.1,0,0.2,0c-0.3,0-0.6-0.1-0.9-0.2c0-0.2,0.4-0.6,0.8-0.9
						c0.2,0.3-0.1,0.2,0.4,0.4c0.2-0.2-0.7-0.2-0.2-0.6c0.4,0,0.8-0.1,1.1,0.2l-0.4,0.3c0.3,0.1,0.3,0.1,0.4,0
						c0.2-0.2,0.4-0.4,0.6-0.5l0.1,0.2c1-0.7,0.8-1.2,1.9-1.8L87.4,66c0.3-0.8,0.7-0.1,1.1-0.8l0.5,0.3c0.3-0.4,1.2-1.3,1.8-1.8
						c-0.2,0.6-1,1.3-1.4,1.8c0.4-0.2,1.4-0.9,1.4-1.2c-0.1,0.1-0.3,0.4-0.5,0.4c0.3-0.7,0.8-1.2,1.6-1.7c0.4,1,2.2-1.1,3.2-0.7
						c1.2-1.2,2.9-1.6,4.5-2.7c-1-0.3,0.5-0.3-0.1-1c0.4-0.3,0.5-0.4,0.6-0.3l1.4-0.3c0.4,0-0.3,0.4-0.1,0.5
						c0.9-0.5,0.5,0.1,1.2-0.1c-0.3-0.2,0.1-0.5,0.6-0.7l-0.9,0.1c1-1.1,1.4,0,2.3-1.1l-0.2,0.5c0.5-0.5,2.3-1.4,2.5-2.3
						c0.2,0,0.4,0.1,0.2,0.3c1.5-0.8,2.9-2.6,4.2-2.9l0,0.2c0.2-0.2,0.3-0.6,0.7-0.7c0,0.1,0,0.2,0.1,0.2c0.1-0.1,0.5-0.7,1-0.9
						l-0.2,0.4c0.8-0.3,1.3-0.8,1.7-1.3c0.4-0.5,0.9-1,1.1-1.3c0.1,0.3,0.2,0.4,0.3,0.5c0.1,0.2,0.2,0.4,0.2,0.4l0,0.1
						c1.6,1,3.1,1.3,4.7,2c0.6,1.1,3.1,2.2,4.5,3.4c-0.2-0.2,0.3-0.4,0.6-0.3c0.3,0.3,1.2,0.2,0.9,0.7l-0.1-0.1
						c0,0.6,0.8,0.9,1.4,1.3l0.5-0.6c1,1.8,4.2,2,4.5,3.3c0.5,0.1,0.9,0.3,1.4,0.4l-0.2,0.3c1,0.7,1.5,1,2.8,1.7l-0.4,0.1
						c0.7,0.4,1.5-0.4,2.1,0l-0.1,0.6c1.2,0.7,2.2,1.9,3.7,2.2c-0.1,0.1-0.2,0.2-0.4,0.1c0.6,0.4,2.1,1.7,2.2,0.9
						c-0.2,0.4,1.3,0.8,2,1l-0.3,0.3c0.8-0.1,0.9-0.2,1.8,0.2c0.2,0.2,0,0.4-0.2,0.1c0.5,0.5,0.7,0,1.3,0.6l-0.4,0
						c0.6,0.4,0.6,0.3,1.1,0.2c0.5,0.1,1.2,0.8,1.1,1.2c0.2-0.1,0.7-0.2,1,0.2c0,0.1-0.2,0.1-0.3,0.1c0.9,0.9,1.8,0.6,2.4,1.3
						c0,0.1,0,0.2,0,0.3c-0.8-0.5-1.5-0.9-1.4-0.9c-0.2,0.3,0.5,0.8-0.3,0.8c0.7,0.1,1.9,0.2,2.5,0.7c0,0,0,0.1,0,0.2l-0.1,0
						c0.1,0.1,0.3,0.2,0.5,0.2c0.2,0.2,0.3,0.3,0.5,0.4c-0.1,0.3,0.7,0.6,1,0.8c0.2-0.3,0.6,0,0.3-0.5c0,0.1-0.1,0-0.3-0.1
						c-0.1,0-0.1-0.1-0.2-0.1l0,0c-0.2-0.1-0.5-0.3-0.9-0.5c0.4,0,0.7,0,1,0.4c0.3-0.1,0.6-0.2,0.8-0.2c0.2,0.7,1,1.5,0.9,1.9
						c1.2,0.4,2.5,1.3,3.6,1.1c0.3,0.1,0.2,0.4,0.3,0.5c-0.2,0-0.4-0.2-0.6-0.1c0.7,0.2,0.9,0.4,1.3,0.5c0.1,0.1,0.1,0.1,0.3,0.1
						c-0.2,0.7-0.5-0.1-0.4,0.6l-0.2-0.1c-0.1,0.1-0.1,0.1-0.1,0.2c0,0.1,0,0.3-0.1,0.4c0,0.3,0,0.5,0,0.8c0.1,0.5,0.2,1,0.4,1.5
						c0.3,1,0.6,2,0,3.3c0.1-0.2,0.1-0.3,0.2-0.3c-0.5,3,0.4,6.1-0.3,9.1c-0.1,0.8,0.2,0.9,0.4,1.4l-0.4,0.2l0.5,0.9
						c0.3,1.2-1,2.1-0.4,3.7l0.3-0.2c-0.1,0.6,0.2,1.8-0.2,1.7c0.1,0.1,0.3,0.2,0.1,0.4l-0.2,0l0.4,1.4c-0.2,1.1-0.9-0.2-0.9,1.4
						c0.1,0.6,0.6,1.7,0.8,1.4c0-0.2,0.1-0.6,0.3-0.6l0.1,0.5c0.6,0.1,1.3,0.5,1.7-0.8l-0.4-0.9l0.3-0.3l0,0.8c0.3-0.4,0-0.7-0.1-1
						c0.2-0.1,0.3-0.2,0.3-0.4l-0.6-0.9c0.2-0.1,0.5,0.4,0.6-0.2c-0.3-0.4-0.6,0.4-0.7-0.3c0.3-0.4,0.5-0.3,0.3-0.8
						c0.2-0.1,0.3,0,0.3,0.2c-0.2-0.5-0.1-1.2-0.4-1.4c0.4-0.5-0.1-1.5,0.5-1.5c-0.1-0.1-0.5-0.8-0.5-1.2c0.7,0.8,0-1.6,0.8-1.4
						c-0.6-0.6-0.3-2-0.6-3c0.1,0.1,0.2,0.2,0.1,0.3c0.1-0.6,0.2-0.7,0.4-1.1c-0.5-0.1-0.7-0.9-1-1.4c0.5-0.7,0.6,0.4,1.1,0.2
						c-0.4,0-0.4-1.2-0.8-1c0.3-0.5,0.2-0.5,0.6-0.7c-0.7-0.1-0.1-0.5-0.5-0.9c0.3-0.8,0.6-0.2,0.4-1
						C165.9,85.1,166.1,85.9,166.1,85.9z M155.8,70L155.8,70c0.2,0.1,0.3,0.1,0.4,0.2C156.1,70.1,156,70.1,155.8,70z M154.4,69.1
						c0.2,0.1,0.4,0.2,0.6,0.4c0,0.1-0.1,0.2-0.3,0.1C154.8,69.6,154.5,69.4,154.4,69.1z M156,73.2c-0.3-0.1-0.3-0.2-0.3-0.3
						c0.1,0.1,0.2,0.1,0.4,0.2c0,0,0,0,0.1,0C156.2,73.2,156.1,73.2,156,73.2z"/>
				</g>
				<g id="XMLID_81_">
					<path class="st3" d="M156.7,73c0,0,0.1,0,0.1,0c0-0.1-0.1-0.1-0.1-0.2l-0.1,0.1C156.6,73,156.7,73,156.7,73z"/>
				</g>
				<g id="XMLID_80_">
					<path class="st3" d="M135.6,86.9L135.6,86.9C135.6,86.9,135.6,87,135.6,86.9C135.6,87,135.6,87,135.6,86.9z"/>
				</g>
				<g id="XMLID_79_">
					<polygon class="st3" points="134.9,56.7 134.8,56.7 135,56.7 					"/>
				</g>
				<g id="XMLID_78_">
					<path class="st3" d="M142.9,92.8c0,0,0,0.1,0.1,0.1C142.9,92.9,142.9,92.8,142.9,92.8z"/>
				</g>
				<g id="XMLID_77_">
					<path class="st3" d="M146.3,94.9l0.4,0.4C146.5,95.1,146.4,95,146.3,94.9z"/>
				</g>
				<g id="XMLID_76_">
					<path class="st3" d="M148.8,96.6c0.1,0,0.1-0.1,0.1-0.1l0,0L148.8,96.6z"/>
				</g>
				<g id="XMLID_75_">
					<path class="st3" d="M108.3,82.6C108.2,82.6,108.2,82.6,108.3,82.6C108,82.9,108.1,82.7,108.3,82.6z"/>
				</g>
				<g id="XMLID_74_">
					<path class="st3" d="M119.6,78.7c-0.2,0-0.3,0-0.5-0.1C119.3,78.8,119.5,78.9,119.6,78.7z"/>
				</g>
				<g id="XMLID_73_">
					<polygon class="st3" points="92.8,78.5 92.8,78.5 92.7,78.4 					"/>
				</g>
				<g id="XMLID_72_">
					<path class="st3" d="M118.5,78.3c0.2,0.2,0.4,0.3,0.6,0.4C119,78.5,118.8,78.4,118.5,78.3z"/>
				</g>
				<g id="XMLID_71_">
					<path class="st3" d="M160.1,103.6l0.1,0.1c0,0,0,0,0,0L160.1,103.6z"/>
				</g>
				<g id="XMLID_70_">
					<path class="st3" d="M160.3,103.6l0.2,0C160.4,103.6,160.3,103.6,160.3,103.6z"/>
				</g>
				<g id="XMLID_69_">
					<path class="st3" d="M160.8,103.8l-0.3-0.1C160.5,103.7,160.7,103.8,160.8,103.8z"/>
				</g>
				<g id="XMLID_68_">
					<path class="st3" d="M156.7,101.3l-0.1,0.1C156.6,101.4,156.7,101.4,156.7,101.3z"/>
				</g>
				<g id="XMLID_67_">
					<path class="st3" d="M155.6,100.7c0.2,0.2,0.5,0.6,0.9,0.8l0.1-0.1C156.3,101.5,156,100.7,155.6,100.7z"/>
				</g>
				<g id="XMLID_66_">
					<path class="st3" d="M152.1,96.6l0.8,0.6c-0.1-0.2-0.2-0.5,0.2-0.3C152.3,95.9,153.2,97.4,152.1,96.6z"/>
				</g>
				<g id="XMLID_65_">
					<path class="st3" d="M149.5,94.8c0.5,0.2,0.1-0.2,0.2-0.2C149.3,94.5,149.2,94.5,149.5,94.8z"/>
				</g>
				<g id="XMLID_64_">
					<path class="st3" d="M129.6,83l0.2-0.3C129.4,82.5,129.7,82.8,129.6,83z"/>
				</g>
				<g id="XMLID_63_">
					<polygon class="st3" points="124.8,82.2 125.1,82.6 125.4,82.5 					"/>
				</g>
				<g id="XMLID_62_">
					<polygon class="st3" points="123.9,78.8 124.1,78.8 123.4,78.6 					"/>
				</g>
				<g id="XMLID_61_">
					<path class="st3" d="M90.8,73.2l-0.1,0.4C91,73.7,91.3,73.4,90.8,73.2z"/>
				</g>
				<g id="XMLID_60_">
					<path class="st3" d="M87.6,66.3c0.3,0.1,0.7,0,0.9-0.4C88.2,66.1,87.8,66.2,87.6,66.3z"/>
				</g>
				<g id="XMLID_59_">
					<polygon class="st3" points="129.3,57.3 128.9,57.3 129.5,57.5 					"/>
				</g>
			</g>
		</g>
		<g id="XMLID_1_">
			<g id="XMLID_56_">
				<path class="st4" d="M11.5,119.9c-0.2-0.4-0.8-0.2-0.6,0.8l0.9,0.7L11.5,119.9z"/>
			</g>
			<g id="XMLID_55_">
				<path class="st4" d="M10.1,126.5c0.5,1.1,1.4,2.4,2.2,1.6c-0.9-1.1-0.6-1.3-1.7-2.5c-0.1-1,0.2-1.7,0.6-1.6
					c-0.2-0.3,0.2-1.5-0.4-2c-0.6,1.3-0.7,2.9,0,4.5C10.5,126.9,10.3,126.6,10.1,126.5z"/>
			</g>
			<g id="XMLID_54_">
				<path class="st4" d="M54.2,208.4l-0.4-0.4C53.8,208.1,54,208.3,54.2,208.4z"/>
			</g>
			<g id="XMLID_53_">
				<path class="st4" d="M109.9,228.8c-0.5,0-0.7,0.1-0.7,0.1C109.7,228.9,110,228.9,109.9,228.8z"/>
			</g>
			<g id="XMLID_52_">
				<path class="st4" d="M120.2,230c-0.2,0-0.4,0-0.6,0C119.8,230,120.1,230.1,120.2,230z"/>
			</g>
			<g id="XMLID_51_">
				<path class="st4" d="M54.2,208.4l1.1,1.2C55.6,209.4,54.8,208.9,54.2,208.4z"/>
			</g>
			<g id="XMLID_50_">
				<path class="st4" d="M13.8,139.2c-0.1-0.3-0.2-0.6-0.4-0.8c0.1,0.3,0.2,0.5,0.2,0.8C13.7,139.1,13.8,139.1,13.8,139.2z"/>
			</g>
			<g id="XMLID_49_">
				<path class="st4" d="M34.1,191.1l-0.3-0.4c-0.2,0-0.4-0.1-0.5-0.1L34.1,191.1z"/>
			</g>
			<g id="XMLID_48_">
				<path class="st4" d="M22.2,174.5c0.2,0.4,0.9,0.2,1.3,0.2c-0.4-0.1-0.7-0.3-1-0.6C22.5,174.2,22.3,174.3,22.2,174.5z"/>
			</g>
			<g id="XMLID_47_">
				<path class="st4" d="M11.7,144.2l-0.2-0.5C11.5,143.8,11.6,144,11.7,144.2z"/>
			</g>
			<g id="XMLID_46_">
				<path class="st4" d="M44.2,201.7c0,0.1-0.1,0.2,0,0.3C44.3,201.9,44.3,201.8,44.2,201.7z"/>
			</g>
			<g id="XMLID_45_">
				<path class="st4" d="M15.7,97.6c0,0-0.1,0-0.1,0C15.7,97.7,15.7,97.7,15.7,97.6z"/>
			</g>
			<g id="XMLID_44_">
				<path class="st4" d="M9.5,119.9l0-0.3c-0.1,0-0.3-0.1-0.4-0.1L9.5,119.9z"/>
			</g>
			<g id="XMLID_43_">
				<path class="st4" d="M139.3,230.9C139.2,230.9,139.2,230.9,139.3,230.9C138.7,230.9,139,230.9,139.3,230.9z"/>
			</g>
			<g id="XMLID_42_">
				<path class="st4" d="M225.2,96.5c-0.2,2.1-1.6-2.9-1.6,0.1C223.8,96.3,225.3,99,225.2,96.5z"/>
			</g>
			<g id="XMLID_41_">
				<path class="st4" d="M13.8,139.7c0.1,0.3,0.1,0.5,0.1,0.8C13.9,140.1,13.9,139.9,13.8,139.7z"/>
			</g>
			<g id="XMLID_40_">
				<path class="st4" d="M223.6,96.6L223.6,96.6l0,0.3C223.6,96.8,223.6,96.7,223.6,96.6z"/>
			</g>
			<g id="XMLID_39_">
				<path class="st4" d="M179.4,211.4c-0.1-0.1-0.3,0-0.6,0C178.9,211.4,179.1,211.4,179.4,211.4z"/>
			</g>
			<g id="XMLID_38_">
				<path class="st4" d="M149.7,224.6l0.8-0.2C150.2,224.5,149.9,224.5,149.7,224.6z"/>
			</g>
			<g id="XMLID_37_">
				<path class="st4" d="M192,200c0.4-0.3,0.5-0.3,0.9-0.8c-0.1,0-0.1,0-0.2,0.1C192.6,199.5,192.4,199.7,192,200z"/>
			</g>
			<g id="XMLID_36_">
				<path class="st4" d="M203.8,187c-0.1,0-0.2,0.1-0.3,0.2c-0.1,0.1-0.2,0.3-0.3,0.5L203.8,187z"/>
			</g>
			<g id="XMLID_35_">
				<path class="st4" d="M37.7,52.6c-0.4,0.1-0.7,0.2-1,0.1C37.2,52.9,35.7,54.8,37.7,52.6z"/>
			</g>
			<g id="XMLID_34_">
				<path class="st4" d="M13.4,139.3c0.2,0.1,0.3,0.2,0.4,0.4c0-0.2-0.1-0.4-0.1-0.5C13.6,139.1,13.5,139.1,13.4,139.3z"/>
			</g>
			<g id="XMLID_33_">
				<path class="st4" d="M188.3,195.1l2-1.7C189.7,193.8,189,194.5,188.3,195.1z"/>
			</g>
			<g id="XMLID_32_">
				<path class="st4" d="M146,19.7l-0.6-0.1C145.6,19.7,145.8,19.7,146,19.7z"/>
			</g>
			<g id="XMLID_31_">
				<path class="st4" d="M195.6,187.6c0.5-0.2,1-0.5,1.4-0.8c0-0.1,0.1-0.2,0.1-0.4L195.6,187.6z"/>
			</g>
			<g id="XMLID_30_">
				<path class="st4" d="M36.6,53.9L36.6,53.9L36.6,53.9z"/>
			</g>
			<g id="XMLID_25_">
				<path class="st4" d="M28.1,68c1.3-2.2-0.3-1.5-0.5-2.3C29,63,29,64.9,30,64.3c0.4-0.9,0.6-1.7,0.8-2.5c0.2-0.8,0.5-1.5,0.9-2
					c0.2,0,0.4-0.2,0.4,0.2c0.5-2.1,3.5-4.8,4.2-7.2c0.2-0.1,0.3-0.1,0.4-0.1c-0.6,0-1.1-0.3-1.3-0.6c0.7-0.9,0.9-2,1.7-1.9
					c-0.5,0.5-0.3,0.7-0.4,1.1l0.6-1.1c1.4-0.2-0.8,1.5-0.3,1.9c0.6-1,1.3-2.1,1.9-3.2c0.7-1,1.4-1.9,2.1-2.5
					c0.9,0.4-2.7,3.2-0.4,2.1c0,0-0.5,0.4-1.1,0.9c-0.5,0.5-1,0.9-1,0.9c2.5-0.6-1.2,1.2,1.3,0.8c1.3-1.3,1.9-2,2.5-2.9
					c0.6-0.8,1.2-1.7,2.6-2.8c0.2-0.9-0.7-0.4-0.5-1.3c1.5-2.1,2.7-2.4,3.7-2.5c1-0.1,1.8-0.2,2.8-1.9c0.4-1.1-0.1-2.2,2.4-3.4
					l-0.1,1.4c2.8-2.1,0.7-2.4,4.1-4c-0.3,0.7-2,1.9-1.5,1.7c2.4-0.7,1-1.5,2.5-2.5l0.8,0.6c3-2.1,6.2-4.9,9.8-6.9
					c-0.1,0.3-0.6,0.9,0.4,0.7c2.2-1.4,4.8-2.5,7.3-3.5c2.6-0.9,5.2-1.6,7.7-2.1l1.6-1.4c0.4-0.1,0.9,0.1,0.5,0.4
					c2-0.2-0.1-0.5,0.8-1.1c1.1-0.4,1.5,0,0.9,0.5c3.1-1.7,9.3-3.8,13-3.5l-0.7,0.4c2.8-0.1,3-2,5.7-1.7l-0.5,0.2
					c6.2-0.4,13-1.1,17.7,0.4c0.5-0.5,2-0.3,3.4-0.1c1.5,0.1,2.8,0.4,3.1-0.4c3.4,1.2,2.4,1.3,7.1,2.7c1.3,0.3,2.1-0.6,3.8-0.4
					l-0.1,0.8l2.4-0.4c0,0,0.2,0.3,0.5,0.6c0.2,0.3,0.4,0.6,0.4,0.6l1.5,0.2c-0.6-0.2-1.1-0.7-1-0.9c1.2,0.1,2.6,0.7,3.6,1.2
					c1,0.6,1.8,1.2,1.7,1.4c0,0,1.4,0.3,2.8,0.6c1.4,0.3,2.8,0.7,2.8,0.7c-0.2,0.3-1.2,0-1.9,0c3.1,0.3,0.2,1,3,1.3
					c-0.3-0.3,0.4-0.4,0.5-0.5c0.6,0.5,1.5,1,2.6,1.6c1.1,0.6,2.4,1,3.5,1.5l-0.6,0.3c3.6,2,7.9,3.8,11.8,6.4
					c-1.3-1.1-0.4-1.8,0.8-1.1l0,1c1.1,0-1-1.1,0.9-0.6c1.4,1.1,0.4,1.5-0.6,1.2l1.9,1c-0.1,0.3-0.5,0.1-0.8,0.3
					c1,0.1,2.5,2.8,4,2.9l-0.1,0.3c0.9,0.7,1.7,1.3,2.5,1.9c0.7,0.6,1.4,1.1,2,1.6c1.3,1,2.4,1.9,3.8,3.2c0.6-0.5,1.5,0.7,2.8,1
					c0.9,1.1,1.8,2.3,2.7,3.6c0.9,1.3,1.9,2.6,3,3.9c1.8,1.6,0.9,0.1,2,0.7c-0.4,0.6,1.7,3.2,0.2,2.1c1.3,1.5,2.1,2.6,3,3.7
					c0.5,0.6,0.9,1.1,1.5,1.8c0.6,0.7,1.2,1.5,2,2.5c-0.1-0.6-0.3-1.2,0.1-1.1c0.6,0.7,0.9,2,0.6,2l-0.2-0.2c2,2.2,3.2,5.4,4.2,8.5
					c0.6,1.5,1,3,1.5,4.4c0.3,0.7,0.6,1.3,0.9,1.9c0.3,0.6,0.6,1.1,1,1.6l-0.2-0.2c0,0,0.6,1,1.2,2.1c0.6,1,1.2,2.1,1.2,2.1
					c0.6,2.1-0.9-1.1-0.8,0.6c0.7,1.1,1.2,2.2,1.6,3.2c0.3,1,0.6,2,0.8,2.9c0.5,1.9,0.7,3.7,1.6,5.6c-0.3,0.9-0.3,2.1-0.2,3.4
					c0.1,1.3,0.5,2.7,0.7,4.2c0.2,1.5,0.5,3,0.7,4.5c0.1,1.4,0.1,2.8-0.1,3.9l0.5-0.3c0.6,1.1-0.2,1.4-0.3,2.2
					c0.4-0.1,0.4-1.3,0.7-0.6c0.5,4.8,0.3,9.9-0.5,14.8c-0.8,5-2,9.9-3.4,14.6c-1,3.4,1.9,2.6-0.4,6.7l-0.5-1.5
					c-0.2,1.8-0.8,3.6-1.3,5.4c-0.5,1.8-1.3,3.5-2,5.2c-0.8,1.7-1.5,3.4-2.3,5.1c-0.8,1.6-1.5,3.3-2.2,5c0-0.5-0.2-0.6,0.1-1.2
					c-1.3,1-2.8,4.8-2.3,5.1c-0.7,0.9-0.6,0-1.2,0.4c-1.1,1.1-1.3,3.7-2.4,4c-0.2,0.1,0.1-0.5,0.2-0.7c-0.3,1-2.7,3.7-1.6,3.4
					c-0.9,1-1.7,2.1-2.3,3.1c-0.7,1-1.3,2-2.2,2.6c-0.3,1.6-3.3,3.2-2.8,4.3c-0.8-1-3.9,2.8-4.8,4.3c0.2-0.7-1.3,0.7-1.2-0.1
					c-1.4,1.4-2.6,2.7-1.9,2.9c-1.8,0.6-3,2-4.1,3.2c-1.1,1.2-2.1,2.2-3.5,2.1c-4.2,4-8.6,7.1-13.1,9.8c-0.2-0.6,1.1-1.2,2.3-2
					c1.2-0.7,2.3-1.4,1.9-1.9c-1,0.7-1.9,1.4-2.7,2.1c-0.8,0.6-1.6,1.2-2.4,1.8c-1.6,1.2-3.3,2.1-5.6,3c-1.2,0.4,0.4-0.8,0.7-1.2
					c-2.1,1.3-4.4,2.1-6.5,2.9c-1.1,0.4-2.2,0.7-3.2,1.1c-1,0.4-2.1,0.8-3.1,1.3c0-0.1,0.4-0.4,0.8-0.6c-0.8,0.3-2,0.4-1.7,0.9
					l0.8-0.4c1.6,0.4-2.9,2.6-2.9,3c1.1-1.9-4.4,0.6-2.6-1.9c-0.5,0.2-1.2,0.6-1,1c-0.9,0.1-1.2-0.1-0.4-0.7
					c-1.5,0.5-1.9,0.8-2.3,1.1c-0.4,0.3-0.8,0.5-2.2,0.7c0-0.3,0.5-0.5,0.7-0.8c-1.3,0.8-2.6,1.6-5.1,1.6c0.1-0.2-0.2-0.4,0.5-0.4
					c-2,0.3-3.7,0.9-5.5,1.3c-1.8,0.4-3.6,0.8-5.9,0.5c1.3-1.2-1.5-0.3-1.8-1.4c0,0-0.6,0.1-1.2,0.2c-0.6,0.1-1.2,0.1-1.2,0.1l1,0.5
					c-2.1-0.1-4,0.7-5.8,0.2c0,0,0.4-0.1,0.8-0.1c0.4-0.1,0.8-0.2,0.8-0.2s-1,0-2,0c-1,0-2-0.1-2-0.1l2.2,0.6
					c-2.2,0.4,0.2,0.5-2.7,0c0.6-0.1-2.2,1.3-3.2-1.7h0c-1.1,0-2.2,1.2-3.8,0.7c-0.4-0.4,0.5-0.7,0.3-0.9c-1.2,0.7-4.9-0.4-6.4,0.2
					c0.5-0.1,0.6-0.5,0.5-0.7l-1,0.5c-0.9-0.4-1-0.6-0.8-0.9c-2.9-0.8,0.6,1.5-2.7,0.1c0.3,0,0.2-0.1,0.8-0.1
					c-3.4-1.1-6.7-1.4-9.7-2.8c-0.6-1.3,2.8,0.7,2-0.5c-4.5-1.2-9.5-2.3-13.5-4.5l0.7,0.5c-1.2,1-2.7-2.2-5-2.6
					c0.5,0.2,1-0.3,0.8-0.3c-1.3-0.9-2.7-1.6-4.3-2.3c-1.6-0.8-3.4-1.6-5.5-2.8l0.7,0c-1.3-1.4-3.9-2.9-5.3-4.3
					c-0.7-0.1-1.5-0.8-1.3,0c-0.4-0.7-0.9-1.3-1.4-1.8c-0.5-0.6-1-1.1-1.6-1.6c-1.1-1-2.3-1.8-3.4-2.7c-1.1-0.9-2.3-1.7-3.3-2.7
					c-1-1-1.8-2.1-2.4-3.3c0.5,0.5,1.3,0.9,0.9,0.5c0,0-0.9-0.8-1.7-1.6c-0.8-0.8-1.6-1.6-1.6-1.6c-0.2,0.7,0.1,0.7,0.4,1.8
					c-0.7-0.2-1.7-1-2.5-1.9c1.7,1.3,0.7-0.6,0.5-1.6c-0.1,0.2-0.4,0.1-0.5,0.3c-0.6-2.6-1.2,0.5-2.7-2.6l0.4-0.1
					c-0.9-0.9-1.9-1.6-2.6-2.7c0.3-0.9,1,0.9,1.6,0.6c-1.1-1.5-3.3-2.2-3.6-4.1c0.6,0.6,1.2,1.5,1.9,2.1c-0.4-2-0.6-2.1-1.3-3.3
					l0.1,0.1c0,0-0.3-0.7-0.7-1.4c-0.3-0.7-0.7-1.4-0.7-1.4s0.1,0.2,0.1,0.4c0.1,0.2,0.1,0.4,0.1,0.4c-1.4-0.5-2.1-1.5-2.7-2.6
					c-0.3-0.6-0.7-1.2-1.1-1.7c-0.4-0.6-0.8-1.2-1.5-1.8c2.4,2.2,0.8,0.1,1.7,0c-0.2-0.8-0.5-2-0.1-1.8c-1.3-1-0.6-2.4-2.4-3.9
					c0.2-0.2-0.6-1.5,0.1-1.4c-1-1.7-0.2,0.6-0.6,0.6c-2.1-2.4-1.6-6.8-4.1-10.5c-0.8-1.7-1.4-2.7-2-3.6c-0.6-0.9-1.2-1.9-1.8-3.5
					c0.1-1.2,1.2,0.7,1.2,0.7c0-1.9-0.5-3.3-1.1-5c0.3,0.3,0.4-0.1,0.6-0.7c-0.3-1.4-1.1-0.8-1.1-2.7c0.3,0.3,0.9,0.6,1.3,1.2
					c-0.3-0.8-0.6-1.6-0.9-2.4c-0.3-0.8-0.6-1.6-0.8-2.5c0.4-0.5,0.8,0.9,1.2,1.5c-0.4-1.9-1.1-4.9-1.8-5.4l-0.2,1.3
					c-0.1-0.7,0.6-0.4,0.8,0.1c0.8,1.6,0.1,2.4-0.2,2.5l-0.3-1.2c-0.7,0.7-0.5,2-0.1,3.3c0.4,1.4,1.2,2.8,1.3,4l-1.3-0.8l1.4,2.4
					c-0.2,0.6-0.7,1.1-1.1-0.1c-0.2,1.9,0.7,1.5,0.5,3.1c-0.1,0.2-0.1,0.1-0.2,0l0.7,1.6c-0.3-0.3-0.7,0.5-0.8-0.6
					c0,1.6,0.6,2.8,1,3.8c0.5,0.9,0.8,1.7,0.6,2.4l-0.1-0.2c1.7,4.1,0.9,0.2,2.9,3l-1.2,2.8l0.9,0.1c0.1,0.4,0.4,1.3,0,1.3
					c1.2,1.4,0.2-0.4,1.1,0.3c0.1,1.1,0.7,2.5,1.2,3.7c0.5,1.2,0.9,2.2,0.4,2.7c0.9,0.5-0.4-2.1,0.9-0.2c-0.5,0.6-0.2,1.2,0.3,1.9
					c0.5,0.7,1.2,1.5,1.4,2.5c-0.9-0.2-1.5-2.1-1.1,0c0.8,0.3,1.2,1.2,1.5,2.2c0.3,1,0.6,2.1,1.1,2.8c0.4-0.2,1,0.5,1.6,1.6
					c0.7,1.1,1.5,2.4,2.4,3.6c-0.4,0.1,2.5,4.7,3.9,7l-0.2,0c1.1-0.2,2.6,2.1,4.1,3.4c-0.5,0.3-0.9,0.2-1.8-0.4c0,0,0.3,0.4,0.6,0.7
					c0.3,0.4,0.6,0.7,0.6,0.7c0.5,0.1,1,0.5,1.9,1.3l-0.9,0.1c0.8,0.9,1.8,1.7,2.9,2.6c1.1,0.9,2,1.9,3.1,3.1
					c0.6-0.4-0.5-3.1,2.3-1.1c-0.2,0.4-0.5,0.9-1.3,0.4c0.2,0.2,1,0.5,1.3,1l-1.4-0.5c0.9,1.2,0.9,0.1,1.7,1c-0.4,0.4,0.4,0.9,0,1.1
					c-0.3-0.2-0.6-0.9-1.1-1c0.9,1,1.8,2.3,2,2.9c0.1-0.3,0.5-0.5,1.3,0c1.9,1.6,0.2,1,1.1,2.2c0.7,0.1,1.7,1.4,2.2,0.8
					c0.6,0.5,0.4,0.8,0.5,1.2c0.6,0.3,1.8,1.2,2.8,1.8c1,0.6,1.8,1,1.4,0.2l-0.2-0.2c0.1,0,0.1,0.1,0.2,0.1c0,0,0,0,0,0l0,0
					c1,0.4,1.9,1,2.8,1.6c0.9,0.6,1.8,1.2,2.6,1.9c1.7,1.4,3.5,2.6,5.4,3.5l-0.1,0.2c1.1,0.5,2.4,1.1,3.6,1.6c1.2,0.5,2.3,1,3.2,1.1
					c0.7,0.3,1.4,1.2,1,1.3c1.8,0.6,2.1,0.5,4.5,1.9c-2-0.3,0.5,0.6-2-0.4c2.2,1.1,2.6,1.8,5.4,2c-1.1,0.4,1.5,1.4,2.7,1.6l-1.5-1
					c1.3,0.3,2.4,0.8,3.5,1.2l-0.9,0.7c2.3,1.3,4.7,1.5,6.9,1.6c2.2,0.1,4.2,0.4,5.9,1.6c1.4-0.4-2.7-0.9-1.3-1.4
					c2.3,0.5,4.5,2.2,5.2,2.4c3.2,0.9,3.2-0.9,6.5-0.2c-0.4-0.4-0.7-1.2,1.8-1.4c2.3,0.3,2.8,1.6,1.3,1.7c-0.6,0-0.8-0.1-0.8-0.2
					c-0.8,0.1-1.8,0.1-0.9,0.5l0.3-0.3c0.6,0.2,1.7,0.4,2.5,0.5c0.9,0.1,1.5,0.3,1.1,0.5c1.8-0.3,0.8-0.5-0.5-0.7
					c3,0.5,4.7,0.2,7.8,0.4c-0.5-0.2-1-0.5-0.5-0.5c4.6,0.3,2-0.6,5-1c1.8,0.4-0.5,1.2,2.5,0.6c1.9,0.2,0.5,0.8-0.3,1.1
					c0.7-0.2,1.4-0.3,2-0.4c0.7-0.1,1.3-0.1,1.9-0.1c1.2,0,2.3,0.2,3.1,0.1l-1.5,0.4c0.9-0.3,1.6-0.3,2.4-0.5l-1-0.5
					c0.9,0,1.6-0.2,1.7,0.1c0.8-0.6-0.9-0.9,0.8-1.8c1.2,0.1,3.4-0.9,4-0.2c-3.7,0.4,0.6,0.8-2.5,1.5c0.6-0.2,1.3-0.3,2.2-0.4
					c0.1,0.1-0.1,0.2-0.3,0.3c3.6,0,1.4-1.3,5-2.1c-0.3,0.6,1.1,0.7,1.6,0.4c-1.4,0.4-0.9-0.6,0.3-1.3c2.4-0.3,2.4-1,3.6-1.3
					l-1.4,0.2c0.3-0.6,1.5-0.8,2.9-1.5c0.2,0.3-1.3,0.7-0.7,0.7c1.4-1.4,4.2-0.4,6.3-1.9c1.2-0.1,0.4,0.8,1.5,0.6
					c2.4-1.6,3.1-0.6,5.7-2.3c-1.1-0.2-1.1,0,0.5-1.5l-4.3,2.4l2.5-2.2c-1.3,0.6-2.7,1.7-3.5,1.9c1.2-1,1.1-0.9,0.2-1.1
					c2.2,0,3.4-2.1,5.7-2.5l0.6,1.5c1.7-0.5,3.1-1.4,4.4-2.4c1.3-1.1,2.8-2.2,4.8-3.2c0,0-0.3,0.1-0.7,0.3c-0.3,0.1-0.7,0.3-0.7,0.3
					c0.2-0.8,2.3-1.6,3.4-2.6c0.2,0.5,1.1,0.2,1.8,0.1c-0.3-0.3,2.8-1.9,2.5-3c0,0,0.5-0.2,1-0.3c0.5-0.1,1-0.3,1-0.3
					c3.1-2.1,2.4-3.7,5.1-5.9c-0.4,1.1,1,0.4-0.5,2.2c0.9-0.8,1.8-1.4,1.5-1.7c0.4-0.1,0.9-0.8,1.4-1.5c0.5-0.7,1.1-1.4,1.7-1.6
					c0.2-0.5-0.1-1,0.9-1.9c0.2,0,0.2,0.2,0.2,0.2c-0.2-0.2,1.2-1.7,0-1.3c3.7-1.4,6.8-7.4,9.7-9.1c1.5-2.1,3.1-4.8,4.4-6.7
					c0.1,0.2,0.2,0.2-0.1,0.5c2.1-2.4-0.2-2.5,2.2-5.3c1.7-1.2-0.6,1.9,0.3,1.1c0.9,0.3,1.4-0.7,1.9-2c0.5-1.3,1.2-2.7,2.1-3.6
					l-0.2,0.6c1.4-1.4,1.6-4.4,2.9-7.2c0,0,0.1,0.2,0.2,0.1c0-1.1,0.4-2.6,0.8-4.2c0.4-1.6,0.9-3.2,1.3-4.7c0.4,1.1-0.1,1.4,0.8,1.1
					c0.3-1.3-1.2,0-0.5-2.6c0.6-0.7,1.6-2.4,2.3-2.4c0,0-0.2,0.6-0.4,1.2c-0.2,0.6-0.4,1.2-0.4,1.2c0.7-0.5,0.9-1.2,1.1-2
					c0.1-0.8,0.1-1.7,0.4-2.3l0.4,0.3c0.9-3.7-0.2-4.1,0.9-8l-0.4,0.3c-0.6-2.4,0.9-1.7,0.6-4.1l1.2-0.5c0-0.8,0-2.1-0.1-3.5
					c-0.1-1.5-0.1-3.1-0.1-4.4c0.7,1.6,0.6,4.7,0.9,6.7c0.2-1.5,0.6-5,0.1-5.8c0,0.6,0.2,1.4,0,1.9c-0.6-1.9-0.9-4.3-0.6-7.2
					c2.1,0.6,0.8-7.6,2.2-9.7c-0.1-0.7-0.2-1.3-0.3-1.9c-0.1-0.6-0.2-1.3-0.2-2c-0.1-1.3-0.1-2.6-0.2-4c-0.2-2.7-0.3-5.5-0.9-8.5
					c-1.2,2.4-0.4-1.7-1.9-1.1c-0.4-1.4-0.8-1.9-0.7-2c0,0-0.3-1.1-0.3-2.2c0-0.5,0-1.1,0-1.5c0-0.4,0.3-0.7,0.3-0.7
					c0.2-1.1,0.8,1.2,1.1,1c-0.6-3.1,0.4-1.4,0.3-3.6c-0.5,0.6-1.1-0.8-1.4-2.6l0,2.6c-1-2-0.9-3-0.9-4c0-1,0.1-2-1.1-4l0.9,1.1
					c-1-2.1-3-7.8-5.2-9.3c0-0.4,0.2-1.1,0.7-0.3c-2.1-5-6.7-10-8.4-13.8l0.6,0.1c-0.7-0.8-1.5-1.1-2-2.3c0.2,0,0.6,0.1,0.3-0.3
					c-0.4-0.4-2.1-1.8-2.7-3l1,0.7c-1.3-2.3-2.9-3.7-4.3-4.9c-1.5-1.2-3.1-2.3-4.6-3.8c0.9-0.8-1.6-4.1-3-5.7l0.2-0.1
					c-4.3-4.4-8.4-6.3-13.2-9.2c-0.5-0.8-1.4-1.6-2.4-2.5c-1.1-0.9-2.4-1.7-3.7-2.6c-2.7-1.8-5.8-3.5-8.2-5.1
					c0.7,0.6-0.6,0.8-1.5,0.4c-1.1-0.9-3.6-0.8-3-1.7l0.4,0.2c-0.5-1.4-3.1-2.3-5.1-3.1l-0.9,1.2c-2.2-2-5.7-3-9-3.8
					c-1.6-0.3-3.2-0.7-4.5-1c-1.3-0.3-2.4-0.8-3-1.4c-1.4,0-3-0.3-4.4-0.1l0.2-0.7c-1.8-0.4-3.2-0.8-4.7-0.9
					c-1.5-0.2-3.1-0.5-5.4-0.5l1-0.5c-2.6-0.2-3.4,1.9-5.8,1.9l-0.7-1.2c-2.3,0-4.5-0.4-6.8-0.4c-1.1,0-2.3,0-3.4,0.1
					c-1.1,0.1-2.2,0.4-3.3,0.7c0.1-0.2,0.2-0.5,0.9-0.6c-2.1,0-8.3,0.1-7.3,1.6c-0.2-1.1-4.6,0.6-6.9,1.6l0.2-0.8
					c-1.8,1.4-1.8,1.7-4.5,2.6c-0.7,0.1-0.7-0.5,0.2-0.5c-2.3,0.2-1.5,1.2-4.2,1.5l0.8-0.7c-2.2,0.6-2,0.7-3,1.7
					c-1.3,0.8-4.2,1.2-4.8,0.7c-0.1,0.5-1.1,1.5-2.5,1.8c-0.3-0.2,0.1-0.5,0.3-0.7c-1.9,0.5-3.2,1.2-4.2,1.9
					c-1.1,0.7-2.1,1.3-3.4,1.5c-0.2-0.2-0.4-0.2-0.6-0.2c2.8-1.3,5.1-2.3,4.9-2.1c-0.3-0.6-2.6,0.3-1.2-1.4
					c-0.8,0.7-1.9,1.6-3.1,2.5c-1.1,0.9-2.3,1.8-3.5,2.2c-0.1,0-0.3,0-0.4-0.1l0.2-0.2c-0.5,0.2-1,0.5-1.3,0.8
					c-0.7,0.3-1.2,0.5-1.9,0.8c-0.5-0.3-2.7,1.1-3.7,1.8c0.5,0.6-0.9,1.4,0.7,1.1c-0.2,0.1,0.1-0.2,0.8-0.7c0.2-0.1,0.3-0.2,0.4-0.3
					c0,0,0,0.1,0,0.1c0.7-0.4,1.6-1,2.7-1.6c-0.7,0.8-1.4,1.6-2.8,1.9c-0.3,0.7-0.6,1.6-0.8,2c-2,0-5.1,1.3-5.8,1.1
					c-1.4,1.3-3.2,2.6-4.7,4.1c-0.7,0.7-1.4,1.4-2,2.1c-0.5,0.7-0.9,1.4-1.2,2.1c-0.7,0.8-1.2,0.5-1.7,0.6c0.4-0.5,0.9-1,1.1-1.4
					c-1.4,1.6-4.6,4.4-4.3,5.5c-2.3,1.6,0.4-1.7-2.1,1l0.1-0.6c-1.5,1-2.7,2.2-3.7,3.5c-0.9,1.3-1.7,2.6-2.5,4
					c-0.8,1.4-1.5,2.8-2.5,4.1c-1,1.4-2.1,2.8-3.7,4.1c0.4-0.4,0.6-0.6,0.8-0.6c-0.8,0.9-1.5,1.8-2.1,2.8c-0.7,1-1.3,1.9-1.9,2.9
					c-1.1,2.1-2.3,4.1-3.3,6.3c-2.1,4.2-3.8,8.6-6.1,12.6c-1.1,2.4-0.6,2.8-0.6,4.5l-1,0.3c0,0,0,0.7,0.1,1.4c0,0.7,0.1,1.4,0.1,1.4
					c-0.1,1-0.4,1.8-0.7,2.6c-0.3,0.8-0.8,1.6-1.2,2.4c-0.4,0.8-0.8,1.7-1.1,2.7c-0.3,1-0.4,2.1-0.3,3.3l0.7-0.5
					c-0.2,0.8-0.4,2.2-0.5,3.3c-0.1,1.1-0.3,1.5-0.6,1.3c0.1,0.2,0.5,0.8,0.1,0.8H8.9c0,0,0.1,1.5,0.1,2.6c0.1,1.1,0.2,2.4,0.2,2.4
					c-0.5,3.3-1.7-0.5-2.1,4.3c0.1,1.8,1.1,5.2,1.4,4.5c0-0.7,0.3-1.8,0.7-1.9l0.2,1.6c1.3,0.3,2.5,1.5,3.5-2.3l-0.7-2.7l0.7-0.8
					c0,0,0,0.6-0.1,1.1c0,0.6,0,1.1,0,1.1c0.6-1.3,0.2-2.1-0.1-3c0.3-0.2,0.6-0.6,0.8-1.1l-1-2.7c0.5-0.3,0.8,1.3,1.3-0.5
					c-0.4-1.3-1.3,1.1-1.4-1c0.7-1.2,1.1-0.8,0.9-2.4c0.3-0.2,0.5,0.2,0.6,0.8c-0.3-1.4,0.3-3.5-0.2-4.3c0.5-0.6,0.6-1.7,0.8-2.7
					c0.2-0.9,0.5-1.7,1-1.5c-0.2-0.5-0.4-2.5-0.2-3.7c0.8,2.5,1.3-4.5,2.7-3.4c-0.4-1-0.1-2.5,0.4-4.1c0.2-0.8,0.5-1.6,0.7-2.5
					c0.3-0.8,0.5-1.6,0.6-2.4c0,0.2,0.1,0.6,0,0.8c0.7-1.5,1.2-1.8,1.9-2.7c-0.9-0.6,0-3.1-0.1-4.6c1.8-1.4,0.6,1.7,1.8,1.5
					c-0.4-0.1-0.3-1-0.1-1.9c0.2-0.8,0.4-1.5-0.1-1.4c1.3-1.1,0.9-1.1,2-1.4c-1-0.9,0.4-1.4,0.4-2.9c1.7-1.6,1.4,0.1,2.3-2.2
					C28.8,65.9,28.1,68,28.1,68z M68.8,26.3C68.8,26.3,68.8,26.3,68.8,26.3c-0.4,0.3-0.8,0.5-1.1,0.6C67.9,26.8,68.2,26.6,68.8,26.3
					z M73.3,24.1c-0.6,0.2-1.3,0.5-2,0.9c-0.3-0.2-0.2-0.5,0.2-0.7C71.3,24.6,72.5,24.2,73.3,24.1z M61.2,24.4
					c0.7-0.5,1-0.5,1.2-0.4c-0.3,0.2-0.7,0.5-1.2,0.8c0,0,0,0.1,0,0.1C61.1,24.8,61.1,24.6,61.2,24.4z"/>
			</g>
			<g id="XMLID_24_">
				<path class="st4" d="M60.4,26c-0.1,0.1-0.1,0.1-0.3,0.2c0.2,0,0.3-0.1,0.5-0.1c0-0.1,0.1-0.2,0.1-0.4C60.7,25.9,60.5,26,60.4,26
					z"/>
			</g>
			<g id="XMLID_23_">
				<path class="st4" d="M53.6,207.9L53.6,207.9c0,0,0-0.1,0-0.1C53.6,207.8,53.6,207.9,53.6,207.9z"/>
			</g>
			<g id="XMLID_22_">
				<polygon class="st4" points="140.5,18.7 140.6,18.5 140.1,18.5 				"/>
			</g>
			<g id="XMLID_21_">
				<path class="st4" d="M35,186.8c0-0.1,0-0.2-0.1-0.4C34.9,186.5,35,186.6,35,186.8z"/>
			</g>
			<g id="XMLID_20_">
				<path class="st4" d="M28.2,177l-0.7-1.6C27.7,176.2,28,176.6,28.2,177z"/>
			</g>
			<g id="XMLID_19_">
				<path class="st4" d="M23.8,168.9c-0.2,0-0.3,0-0.4,0c0,0,0,0,0,0L23.8,168.9z"/>
			</g>
			<g id="XMLID_18_">
				<path class="st4" d="M147.6,219.9c0.1,0,0.2-0.1,0.3-0.1C148.7,219.4,148.2,219.6,147.6,219.9z"/>
			</g>
			<g id="XMLID_17_">
				<path class="st4" d="M104.9,225.5c0.5-0.1,0.9-0.2,1.4-0.2C105.5,225.1,104.9,225,104.9,225.5z"/>
			</g>
			<g id="XMLID_16_">
				<path class="st4" d="M188.1,195.3C188.1,195.3,188.1,195.3,188.1,195.3c0.1-0.1,0.1-0.1,0.2-0.2L188.1,195.3z"/>
			</g>
			<g id="XMLID_15_">
				<path class="st4" d="M108.3,225.4c-0.8-0.2-1.4-0.2-2-0.2C106.9,225.4,107.7,225.5,108.3,225.4z"/>
			</g>
			<g id="XMLID_14_">
				<path class="st4" d="M12.7,131.1l0-0.4c0,0-0.1,0-0.1,0L12.7,131.1z"/>
			</g>
			<g id="XMLID_13_">
				<path class="st4" d="M12.6,130.6l-0.1-0.5C12.4,130.4,12.5,130.6,12.6,130.6z"/>
			</g>
			<g id="XMLID_12_">
				<path class="st4" d="M12.2,129.1l0.3,1C12.4,129.8,12.4,129.3,12.2,129.1z"/>
			</g>
			<g id="XMLID_11_">
				<path class="st4" d="M14.3,143.1l0.3,0.1C14.6,143.1,14.5,143.1,14.3,143.1z"/>
			</g>
			<g id="XMLID_10_">
				<path class="st4" d="M15.3,146.7c-0.2-0.9,0.1-2.3-0.4-3.4l-0.2-0.1C15.2,143.6,14.6,146,15.3,146.7z"/>
			</g>
			<g id="XMLID_9_">
				<path class="st4" d="M17.1,162.5c0,0-0.3-0.8-0.5-1.5c-0.2-0.8-0.5-1.5-0.5-1.5c-0.1,0.6-0.2,1.5-0.8,0.1
					C16,163.7,15.6,158.6,17.1,162.5z"/>
			</g>
			<g id="XMLID_8_">
				<path class="st4" d="M21,171.6c-0.9-1.5-0.4,0.2-0.6,0.2C21.2,172.7,21.4,172.9,21,171.6z"/>
			</g>
			<g id="XMLID_7_">
				<path class="st4" d="M72.6,219.6l-0.4,0.6C73.4,220.6,72.3,219.9,72.6,219.6z"/>
			</g>
			<g id="XMLID_6_">
				<path class="st4" d="M86.5,220.9c0,0-0.3-0.2-0.5-0.4c-0.3-0.2-0.5-0.4-0.5-0.4l-0.8,0.4c0,0,0.5,0.1,0.9,0.2
					C86,220.9,86.5,220.9,86.5,220.9z"/>
			</g>
			<g id="XMLID_5_">
				<polygon class="st4" points="93,227.7 92.4,227.7 94.6,228 				"/>
			</g>
			<g id="XMLID_4_">
				<path class="st4" d="M202.4,189.9l-0.9-0.2C201,190.4,201.6,191.2,202.4,189.9z"/>
			</g>
			<g id="XMLID_3_">
				<path class="st4" d="M224.1,142.9c0.6-0.5,1.1-1.9,0.8-2.8C224.7,141.2,224.2,142.3,224.1,142.9z"/>
			</g>
			<g id="XMLID_2_">
				<path class="st4" d="M155.5,15.9l1.1,0.1c0,0-0.5-0.1-1-0.3c-0.5-0.1-1-0.2-1-0.2s0.2,0.1,0.4,0.2
					C155.3,15.8,155.5,15.9,155.5,15.9z"/>
			</g>
		</g>
	</g>
</g>
</svg>
